<svg xmlns="http://www.w3.org/2000/svg" xmlns:v="https://svgstorm.com"
viewBox = "0 0 512 512"
width="512"
height="512">
<g fill="None" fill-opacity="0.0" stroke="#000000" stroke-opacity="0.00" stroke-width="0.3"><path d="
M 0.00 512.00 
L 96.00 512.00
C 59.88 498.19 69.54 460.42 69.00 426.00 C 68.46 391.58 69.13 348.72 69.00 313.00 C 68.87 277.28 68.82 235.74 69.00 200.00 C 69.18 164.26 68.39 121.47 69.00 87.00 C 69.61 52.53 59.64 13.82 96.00 0.00
L 0.00 0.00
L 0.00 512.00 Z"/>
</g>
<g fill="None" fill-opacity="0.0" stroke="#0086F9" stroke-opacity="1.00" stroke-width="0.3"><path d="
M 96.00 512.00 
L 416.00 512.00
C 448.65 500.17 443.46 468.63 443.00 437.00 C 442.54 405.37 443.69 367.03 443.00 334.00 C 442.31 300.97 444.38 264.56 443.00 231.00 C 441.62 197.44 445.98 161.58 443.00 128.00
C 443.00 127.96 442.00 128.00 442.00 128.00
C 441.50 128.00 441.00 128.00 441.00 128.00
C 398.67 128.00 356.33 128.00 314.00 128.00
C 314.00 85.67 314.00 43.33 314.00 1.00
C 314.00 0.50 314.00 0.00 314.00 0.00
L 96.00 0.00
C 59.64 13.82 69.61 52.53 69.00 87.00 C 68.39 121.47 69.18 164.26 69.00 200.00 C 68.82 235.74 68.87 277.28 69.00 313.00 C 69.13 348.72 68.46 391.58 69.00 426.00 C 69.54 460.42 59.88 498.19 96.00 512.00
M 360.00 227.00 
C 355.42 230.20 345.92 225.64 340.00 227.00 C 334.08 228.36 325.50 226.39 319.00 227.00 C 312.50 227.61 304.75 226.73 298.00 227.00 C 291.25 227.27 283.84 226.90 277.00 227.00 C 270.16 227.10 262.83 227.00 256.00 227.00 C 249.17 227.00 242.80 227.12 236.00 227.00 C 229.20 226.88 221.74 227.29 215.00 227.00 C 208.26 226.71 200.51 227.67 194.00 227.00 C 187.49 226.33 178.95 228.48 173.00 227.00 C 167.05 225.52 156.69 230.28 152.00 227.00
C 149.60 225.32 150.87 216.07 151.00 213.00 C 151.13 209.93 149.45 199.79 152.00 198.00
C 156.58 194.80 166.08 199.36 172.00 198.00 C 177.92 196.64 186.50 198.61 193.00 198.00 C 199.50 197.39 207.25 198.27 214.00 198.00 C 220.75 197.73 228.16 198.10 235.00 198.00 C 241.84 197.90 249.17 198.00 256.00 198.00 C 262.83 198.00 269.20 197.88 276.00 198.00 C 282.80 198.12 290.26 197.71 297.00 198.00 C 303.74 198.29 311.49 197.33 318.00 198.00 C 324.51 198.67 333.05 196.52 339.00 198.00 C 344.95 199.48 355.31 194.72 360.00 198.00
C 362.40 199.68 361.13 208.93 361.00 212.00 C 360.87 215.07 362.55 225.21 360.00 227.00
M 361.00 268.00 
C 361.86 277.59 360.35 287.39 361.00 297.00
C 291.00 297.00 221.00 297.00 151.00 297.00
C 151.00 287.33 151.00 277.67 151.00 268.00
C 155.72 263.09 168.69 268.48 176.00 267.00 C 183.31 265.52 194.90 267.67 203.00 267.00 C 211.10 266.33 220.53 267.24 229.00 267.00 C 237.47 266.76 247.44 267.00 256.00 267.00 C 264.56 267.00 273.54 266.73 282.00 267.00 C 290.46 267.27 300.88 266.32 309.00 267.00 C 317.12 267.68 327.76 265.39 335.00 267.00 C 342.24 268.61 356.25 263.06 361.00 268.00
M 303.00 337.00 
C 303.00 347.00 303.00 357.00 303.00 367.00
C 252.33 367.00 201.67 367.00 151.00 367.00
C 151.00 357.00 151.00 347.00 151.00 337.00
C 201.67 337.00 252.33 337.00 303.00 337.00 Z"/>
</g>
<g fill="None" fill-opacity="0.0" stroke="#006EE1" stroke-opacity="0.89" stroke-width="0.3"><path d="
M 314.00 1.00 
C 329.92 12.12 341.92 29.49 356.25 42.75 C 370.58 56.01 385.49 70.86 398.75 85.25 C 412.01 99.64 429.86 112.06 441.00 128.00
C 441.00 128.00 441.50 128.00 442.00 128.00
C 430.67 111.79 412.76 100.24 399.75 85.25 C 386.74 70.25 370.75 57.40 357.25 42.75 C 343.74 28.11 328.11 14.88 315.00 0.00
L 314.00 0.00
C 314.00 0.00 314.00 0.50 314.00 1.00 Z"/>
</g>
<g fill="None" fill-opacity="0.0" stroke="#007EE5" stroke-opacity="0.04" stroke-width="0.3"><path d="
M 442.00 128.00 
C 442.00 128.00 443.00 127.96 443.00 128.00
C 438.64 117.56 424.56 111.49 417.75 102.25 C 410.95 93.01 399.97 85.60 392.25 76.75 C 384.53 67.90 374.86 59.93 366.75 51.25 C 358.64 42.57 349.49 34.39 341.25 25.75 C 333.01 17.11 323.74 8.96 316.00 0.00
L 315.00 0.00
C 328.11 14.88 343.74 28.11 357.25 42.75 C 370.75 57.40 386.74 70.25 399.75 85.25 C 412.76 100.24 430.67 111.79 442.00 128.00 Z"/>
</g>
<g fill="None" fill-opacity="0.0" stroke="#000000" stroke-opacity="0.00" stroke-width="0.3"><path d="
M 443.00 128.00 
C 445.98 161.58 441.62 197.44 443.00 231.00 C 444.38 264.56 442.31 300.97 443.00 334.00 C 443.69 367.03 442.54 405.37 443.00 437.00 C 443.46 468.63 448.65 500.17 416.00 512.00
L 512.00 512.00
L 512.00 0.00
L 316.00 0.00
C 323.74 8.96 333.01 17.11 341.25 25.75 C 349.49 34.39 358.64 42.57 366.75 51.25 C 374.86 59.93 384.53 67.90 392.25 76.75 C 399.97 85.60 410.95 93.01 417.75 102.25 C 424.56 111.49 438.64 117.56 443.00 128.00 Z"/>
</g>
<g fill="None" fill-opacity="0.0" stroke="#0067D9" stroke-opacity="1.00" stroke-width="0.3"><path d="
M 441.00 128.00 
C 429.86 112.06 412.01 99.64 398.75 85.25 C 385.49 70.86 370.58 56.01 356.25 42.75 C 341.92 29.49 329.92 12.12 314.00 1.00
C 314.00 43.33 314.00 85.67 314.00 128.00
C 356.33 128.00 398.67 128.00 441.00 128.00 Z"/>
</g>
<g fill="None" fill-opacity="0.0" stroke="#B6DDFD" stroke-opacity="1.00" stroke-width="0.3"><path d="
M 152.00 227.00 
C 152.00 217.33 152.00 207.67 152.00 198.00
C 149.45 199.79 151.13 209.93 151.00 213.00 C 150.87 216.07 149.60 225.32 152.00 227.00 Z"/>
</g>
<g fill="None" fill-opacity="0.0" stroke="#FAFEFE" stroke-opacity="1.00" stroke-width="0.3"><path d="
M 152.00 227.00 
C 156.69 230.28 167.05 225.52 173.00 227.00 C 178.95 228.48 187.49 226.33 194.00 227.00 C 200.51 227.67 208.26 226.71 215.00 227.00 C 221.74 227.29 229.20 226.88 236.00 227.00 C 242.80 227.12 249.17 227.00 256.00 227.00 C 262.83 227.00 270.16 227.10 277.00 227.00 C 283.84 226.90 291.25 227.27 298.00 227.00 C 304.75 226.73 312.50 227.61 319.00 227.00 C 325.50 226.39 334.08 228.36 340.00 227.00 C 345.92 225.64 355.42 230.20 360.00 227.00
C 360.00 217.33 360.00 207.67 360.00 198.00
C 355.31 194.72 344.95 199.48 339.00 198.00 C 333.05 196.52 324.51 198.67 318.00 198.00 C 311.49 197.33 303.74 198.29 297.00 198.00 C 290.26 197.71 282.80 198.12 276.00 198.00 C 269.20 197.88 262.83 198.00 256.00 198.00 C 249.17 198.00 241.84 197.90 235.00 198.00 C 228.16 198.10 220.75 197.73 214.00 198.00 C 207.25 198.27 199.50 197.39 193.00 198.00 C 186.50 198.61 177.92 196.64 172.00 198.00 C 166.08 199.36 156.58 194.80 152.00 198.00
C 152.00 207.67 152.00 217.33 152.00 227.00 Z"/>
</g>
<g fill="None" fill-opacity="0.0" stroke="#B6DDFD" stroke-opacity="1.00" stroke-width="0.3"><path d="
M 360.00 227.00 
C 362.55 225.21 360.87 215.07 361.00 212.00 C 361.13 208.93 362.40 199.68 360.00 198.00
C 360.00 207.67 360.00 217.33 360.00 227.00 Z"/>
</g>
<g fill="None" fill-opacity="0.0" stroke="#5BB1FB" stroke-opacity="1.00" stroke-width="0.3"><path d="
M 151.00 268.00 
C 151.00 267.96 152.00 268.00 152.00 268.00
C 221.33 268.00 290.67 267.99 360.00 268.00
C 360.50 268.00 361.00 268.00 361.00 268.00
C 356.25 263.06 342.24 268.61 335.00 267.00 C 327.76 265.39 317.12 267.68 309.00 267.00 C 300.88 266.32 290.46 267.27 282.00 267.00 C 273.54 266.73 264.56 267.00 256.00 267.00 C 247.44 267.00 237.47 266.76 229.00 267.00 C 220.53 267.24 211.10 266.33 203.00 267.00 C 194.90 267.67 183.31 265.52 176.00 267.00 C 168.69 268.48 155.72 263.09 151.00 268.00 Z"/>
</g>
<g fill="None" fill-opacity="0.0" stroke="#B6DDFC" stroke-opacity="1.00" stroke-width="0.3"><path d="
M 361.00 268.00 
C 361.00 268.00 360.50 268.00 360.00 268.00
C 359.16 277.26 360.63 286.72 360.00 296.00
C 290.67 296.00 221.33 296.00 152.00 296.00
C 152.00 286.67 152.00 277.33 152.00 268.00
C 152.00 268.00 151.00 267.96 151.00 268.00
C 151.00 277.67 151.00 287.33 151.00 297.00
C 221.00 297.00 291.00 297.00 361.00 297.00
C 360.35 287.39 361.86 277.59 361.00 268.00 Z"/>
</g>
<g fill="None" fill-opacity="0.0" stroke="#FBFFFF" stroke-opacity="1.00" stroke-width="0.3"><path d="
M 360.00 268.00 
C 290.67 267.99 221.33 268.00 152.00 268.00
C 152.00 277.33 152.00 286.67 152.00 296.00
C 221.33 296.00 290.67 296.00 360.00 296.00
C 360.63 286.72 359.16 277.26 360.00 268.00 Z"/>
</g>
<g fill="None" fill-opacity="0.0" stroke="#8DC9FC" stroke-opacity="1.00" stroke-width="0.3"><path d="
M 303.00 337.00 
C 252.33 337.00 201.67 337.00 151.00 337.00
C 151.00 347.00 151.00 357.00 151.00 367.00
C 201.67 367.00 252.33 367.00 303.00 367.00
C 303.00 357.00 303.00 347.00 303.00 337.00
M 302.00 338.00 
C 302.00 347.33 302.00 356.67 302.00 366.00
C 252.00 366.00 202.00 366.00 152.00 366.00
C 152.00 356.67 152.00 347.33 152.00 338.00
C 202.00 338.00 252.00 338.00 302.00 338.00 Z"/>
</g>
<g fill="None" fill-opacity="0.0" stroke="#FBFFFF" stroke-opacity="1.00" stroke-width="0.3"><path d="
M 302.00 338.00 
C 252.00 338.00 202.00 338.00 152.00 338.00
C 152.00 347.33 152.00 356.67 152.00 366.00
C 202.00 366.00 252.00 366.00 302.00 366.00
C 302.00 356.67 302.00 347.33 302.00 338.00 Z"/>
</g>
<g fill="#000000" fill-opacity="0.00" stroke="None">
<path d="
M 0.00 512.00 
L 96.00 512.00
C 59.88 498.19 69.54 460.42 69.00 426.00 C 68.46 391.58 69.13 348.72 69.00 313.00 C 68.87 277.28 68.82 235.74 69.00 200.00 C 69.18 164.26 68.39 121.47 69.00 87.00 C 69.61 52.53 59.64 13.82 96.00 0.00
L 0.00 0.00
L 0.00 512.00 Z"/>
</g>
<g fill="#0086F9" fill-opacity="1.00" stroke="None">
<path d="
M 96.00 512.00 
L 416.00 512.00
C 448.65 500.17 443.46 468.63 443.00 437.00 C 442.54 405.37 443.69 367.03 443.00 334.00 C 442.31 300.97 444.38 264.56 443.00 231.00 C 441.62 197.44 445.98 161.58 443.00 128.00
C 443.00 127.96 442.00 128.00 442.00 128.00
C 441.50 128.00 441.00 128.00 441.00 128.00
C 398.67 128.00 356.33 128.00 314.00 128.00
C 314.00 85.67 314.00 43.33 314.00 1.00
C 314.00 0.50 314.00 0.00 314.00 0.00
L 96.00 0.00
C 59.64 13.82 69.61 52.53 69.00 87.00 C 68.39 121.47 69.18 164.26 69.00 200.00 C 68.82 235.74 68.87 277.28 69.00 313.00 C 69.13 348.72 68.46 391.58 69.00 426.00 C 69.54 460.42 59.88 498.19 96.00 512.00
M 360.00 227.00 
C 355.42 230.20 345.92 225.64 340.00 227.00 C 334.08 228.36 325.50 226.39 319.00 227.00 C 312.50 227.61 304.75 226.73 298.00 227.00 C 291.25 227.27 283.84 226.90 277.00 227.00 C 270.16 227.10 262.83 227.00 256.00 227.00 C 249.17 227.00 242.80 227.12 236.00 227.00 C 229.20 226.88 221.74 227.29 215.00 227.00 C 208.26 226.71 200.51 227.67 194.00 227.00 C 187.49 226.33 178.95 228.48 173.00 227.00 C 167.05 225.52 156.69 230.28 152.00 227.00
C 149.60 225.32 150.87 216.07 151.00 213.00 C 151.13 209.93 149.45 199.79 152.00 198.00
C 156.58 194.80 166.08 199.36 172.00 198.00 C 177.92 196.64 186.50 198.61 193.00 198.00 C 199.50 197.39 207.25 198.27 214.00 198.00 C 220.75 197.73 228.16 198.10 235.00 198.00 C 241.84 197.90 249.17 198.00 256.00 198.00 C 262.83 198.00 269.20 197.88 276.00 198.00 C 282.80 198.12 290.26 197.71 297.00 198.00 C 303.74 198.29 311.49 197.33 318.00 198.00 C 324.51 198.67 333.05 196.52 339.00 198.00 C 344.95 199.48 355.31 194.72 360.00 198.00
C 362.40 199.68 361.13 208.93 361.00 212.00 C 360.87 215.07 362.55 225.21 360.00 227.00
M 361.00 268.00 
C 361.86 277.59 360.35 287.39 361.00 297.00
C 291.00 297.00 221.00 297.00 151.00 297.00
C 151.00 287.33 151.00 277.67 151.00 268.00
C 155.72 263.09 168.69 268.48 176.00 267.00 C 183.31 265.52 194.90 267.67 203.00 267.00 C 211.10 266.33 220.53 267.24 229.00 267.00 C 237.47 266.76 247.44 267.00 256.00 267.00 C 264.56 267.00 273.54 266.73 282.00 267.00 C 290.46 267.27 300.88 266.32 309.00 267.00 C 317.12 267.68 327.76 265.39 335.00 267.00 C 342.24 268.61 356.25 263.06 361.00 268.00
M 303.00 337.00 
C 303.00 347.00 303.00 357.00 303.00 367.00
C 252.33 367.00 201.67 367.00 151.00 367.00
C 151.00 357.00 151.00 347.00 151.00 337.00
C 201.67 337.00 252.33 337.00 303.00 337.00 Z"/>
</g>
<g fill="#006EE1" fill-opacity="0.89" stroke="None">
<path d="
M 314.00 1.00 
C 329.92 12.12 341.92 29.49 356.25 42.75 C 370.58 56.01 385.49 70.86 398.75 85.25 C 412.01 99.64 429.86 112.06 441.00 128.00
C 441.00 128.00 441.50 128.00 442.00 128.00
C 430.67 111.79 412.76 100.24 399.75 85.25 C 386.74 70.25 370.75 57.40 357.25 42.75 C 343.74 28.11 328.11 14.88 315.00 0.00
L 314.00 0.00
C 314.00 0.00 314.00 0.50 314.00 1.00 Z"/>
</g>
<g fill="#007EE5" fill-opacity="0.04" stroke="None">
<path d="
M 442.00 128.00 
C 442.00 128.00 443.00 127.96 443.00 128.00
C 438.64 117.56 424.56 111.49 417.75 102.25 C 410.95 93.01 399.97 85.60 392.25 76.75 C 384.53 67.90 374.86 59.93 366.75 51.25 C 358.64 42.57 349.49 34.39 341.25 25.75 C 333.01 17.11 323.74 8.96 316.00 0.00
L 315.00 0.00
C 328.11 14.88 343.74 28.11 357.25 42.75 C 370.75 57.40 386.74 70.25 399.75 85.25 C 412.76 100.24 430.67 111.79 442.00 128.00 Z"/>
</g>
<g fill="#000000" fill-opacity="0.00" stroke="None">
<path d="
M 443.00 128.00 
C 445.98 161.58 441.62 197.44 443.00 231.00 C 444.38 264.56 442.31 300.97 443.00 334.00 C 443.69 367.03 442.54 405.37 443.00 437.00 C 443.46 468.63 448.65 500.17 416.00 512.00
L 512.00 512.00
L 512.00 0.00
L 316.00 0.00
C 323.74 8.96 333.01 17.11 341.25 25.75 C 349.49 34.39 358.64 42.57 366.75 51.25 C 374.86 59.93 384.53 67.90 392.25 76.75 C 399.97 85.60 410.95 93.01 417.75 102.25 C 424.56 111.49 438.64 117.56 443.00 128.00 Z"/>
</g>
<g fill="#0067D9" fill-opacity="1.00" stroke="None">
<path d="
M 441.00 128.00 
C 429.86 112.06 412.01 99.64 398.75 85.25 C 385.49 70.86 370.58 56.01 356.25 42.75 C 341.92 29.49 329.92 12.12 314.00 1.00
C 314.00 43.33 314.00 85.67 314.00 128.00
C 356.33 128.00 398.67 128.00 441.00 128.00 Z"/>
</g>
<g fill="#B6DDFD" fill-opacity="1.00" stroke="None">
<path d="
M 152.00 227.00 
C 152.00 217.33 152.00 207.67 152.00 198.00
C 149.45 199.79 151.13 209.93 151.00 213.00 C 150.87 216.07 149.60 225.32 152.00 227.00 Z"/>
</g>
<g fill="#FAFEFE" fill-opacity="1.00" stroke="None">
<path d="
M 152.00 227.00 
C 156.69 230.28 167.05 225.52 173.00 227.00 C 178.95 228.48 187.49 226.33 194.00 227.00 C 200.51 227.67 208.26 226.71 215.00 227.00 C 221.74 227.29 229.20 226.88 236.00 227.00 C 242.80 227.12 249.17 227.00 256.00 227.00 C 262.83 227.00 270.16 227.10 277.00 227.00 C 283.84 226.90 291.25 227.27 298.00 227.00 C 304.75 226.73 312.50 227.61 319.00 227.00 C 325.50 226.39 334.08 228.36 340.00 227.00 C 345.92 225.64 355.42 230.20 360.00 227.00
C 360.00 217.33 360.00 207.67 360.00 198.00
C 355.31 194.72 344.95 199.48 339.00 198.00 C 333.05 196.52 324.51 198.67 318.00 198.00 C 311.49 197.33 303.74 198.29 297.00 198.00 C 290.26 197.71 282.80 198.12 276.00 198.00 C 269.20 197.88 262.83 198.00 256.00 198.00 C 249.17 198.00 241.84 197.90 235.00 198.00 C 228.16 198.10 220.75 197.73 214.00 198.00 C 207.25 198.27 199.50 197.39 193.00 198.00 C 186.50 198.61 177.92 196.64 172.00 198.00 C 166.08 199.36 156.58 194.80 152.00 198.00
C 152.00 207.67 152.00 217.33 152.00 227.00 Z"/>
</g>
<g fill="#B6DDFD" fill-opacity="1.00" stroke="None">
<path d="
M 360.00 227.00 
C 362.55 225.21 360.87 215.07 361.00 212.00 C 361.13 208.93 362.40 199.68 360.00 198.00
C 360.00 207.67 360.00 217.33 360.00 227.00 Z"/>
</g>
<g fill="#5BB1FB" fill-opacity="1.00" stroke="None">
<path d="
M 151.00 268.00 
C 151.00 267.96 152.00 268.00 152.00 268.00
C 221.33 268.00 290.67 267.99 360.00 268.00
C 360.50 268.00 361.00 268.00 361.00 268.00
C 356.25 263.06 342.24 268.61 335.00 267.00 C 327.76 265.39 317.12 267.68 309.00 267.00 C 300.88 266.32 290.46 267.27 282.00 267.00 C 273.54 266.73 264.56 267.00 256.00 267.00 C 247.44 267.00 237.47 266.76 229.00 267.00 C 220.53 267.24 211.10 266.33 203.00 267.00 C 194.90 267.67 183.31 265.52 176.00 267.00 C 168.69 268.48 155.72 263.09 151.00 268.00 Z"/>
</g>
<g fill="#B6DDFC" fill-opacity="1.00" stroke="None">
<path d="
M 361.00 268.00 
C 361.00 268.00 360.50 268.00 360.00 268.00
C 359.16 277.26 360.63 286.72 360.00 296.00
C 290.67 296.00 221.33 296.00 152.00 296.00
C 152.00 286.67 152.00 277.33 152.00 268.00
C 152.00 268.00 151.00 267.96 151.00 268.00
C 151.00 277.67 151.00 287.33 151.00 297.00
C 221.00 297.00 291.00 297.00 361.00 297.00
C 360.35 287.39 361.86 277.59 361.00 268.00 Z"/>
</g>
<g fill="#FBFFFF" fill-opacity="1.00" stroke="None">
<path d="
M 360.00 268.00 
C 290.67 267.99 221.33 268.00 152.00 268.00
C 152.00 277.33 152.00 286.67 152.00 296.00
C 221.33 296.00 290.67 296.00 360.00 296.00
C 360.63 286.72 359.16 277.26 360.00 268.00 Z"/>
</g>
<g fill="#8DC9FC" fill-opacity="1.00" stroke="None">
<path d="
M 303.00 337.00 
C 252.33 337.00 201.67 337.00 151.00 337.00
C 151.00 347.00 151.00 357.00 151.00 367.00
C 201.67 367.00 252.33 367.00 303.00 367.00
C 303.00 357.00 303.00 347.00 303.00 337.00
M 302.00 338.00 
C 302.00 347.33 302.00 356.67 302.00 366.00
C 252.00 366.00 202.00 366.00 152.00 366.00
C 152.00 356.67 152.00 347.33 152.00 338.00
C 202.00 338.00 252.00 338.00 302.00 338.00 Z"/>
</g>
<g fill="#FBFFFF" fill-opacity="1.00" stroke="None">
<path d="
M 302.00 338.00 
C 252.00 338.00 202.00 338.00 152.00 338.00
C 152.00 347.33 152.00 356.67 152.00 366.00
C 202.00 366.00 252.00 366.00 302.00 366.00
C 302.00 356.67 302.00 347.33 302.00 338.00 Z"/>
</g>
</svg>