<svg xmlns="http://www.w3.org/2000/svg" xmlns:v="https://svgstorm.com"
viewBox = "0 0 512 512"
width="512"
height="512">
<g fill="None" fill-opacity="0.0" stroke="#000000" stroke-opacity="0.00" stroke-width="0.3"><path d="
M 0.00 512.00 
L 512.00 512.00
L 512.00 0.00
L 0.00 0.00
L 0.00 512.00
M 442.00 56.00 
C 473.38 67.58 466.70 101.16 467.00 131.00 C 467.30 160.84 466.98 200.21 467.00 232.00 C 467.02 263.79 467.26 299.36 467.00 332.00 C 466.74 364.64 467.70 400.09 467.00 433.00 C 466.30 465.91 438.44 476.69 408.00 475.00 C 377.56 473.31 339.58 475.49 308.00 475.00 C 276.42 474.51 238.41 474.64 207.00 475.00 C 175.59 475.36 136.84 473.52 107.00 475.00 C 77.16 476.48 47.01 468.90 45.01 435.99 C 43.01 403.08 45.85 367.72 45.00 335.00 C 44.15 302.28 45.26 266.99 45.00 235.00 C 44.74 203.01 44.86 164.28 45.00 134.00 C 45.14 103.72 38.51 70.14 68.00 58.00
C 87.61 45.35 115.47 55.30 139.00 53.00 C 162.53 50.70 190.53 53.72 215.00 53.00 C 239.47 52.28 267.30 52.68 292.00 53.00 C 316.70 53.32 343.61 51.37 368.00 53.00 C 392.39 54.63 419.51 47.70 442.00 56.00 Z"/>
</g>
<g fill="None" fill-opacity="0.0" stroke="#EC9F42" stroke-opacity="0.88" stroke-width="0.3"><path d="
M 68.00 58.00 
C 61.24 62.36 57.45 67.66 55.00 75.00
C 70.15 50.28 97.03 56.32 124.00 56.00 C 150.97 55.68 184.03 56.11 212.00 56.00 C 239.97 55.89 271.94 55.97 300.00 56.00 C 328.06 56.03 360.70 55.81 388.00 56.00 C 415.30 56.19 441.50 49.97 457.00 75.00
C 454.38 67.39 449.26 60.04 442.00 56.00
C 419.51 47.70 392.39 54.63 368.00 53.00 C 343.61 51.37 316.70 53.32 292.00 53.00 C 267.30 52.68 239.47 52.28 215.00 53.00 C 190.53 53.72 162.53 50.70 139.00 53.00 C 115.47 55.30 87.61 45.35 68.00 58.00 Z"/>
</g>
<g fill="None" fill-opacity="0.0" stroke="#F08C10" stroke-opacity="1.00" stroke-width="0.3"><path d="
M 55.00 75.00 
C 54.29 77.14 53.21 79.35 53.00 82.00
C 51.45 101.52 53.64 121.42 53.00 141.00 C 52.36 160.58 53.15 180.41 53.00 200.00 C 52.85 219.59 52.76 239.45 53.00 259.00 C 53.24 278.55 52.22 298.57 53.00 318.00 C 53.78 337.43 51.16 357.86 53.00 377.00 C 54.84 396.14 48.50 417.86 54.00 436.00
C 59.75 446.78 70.65 455.41 85.00 456.00 C 99.36 456.59 121.22 455.78 137.00 456.00 C 152.78 456.22 172.83 456.00 189.00 456.00
C 185.66 445.74 171.49 439.01 164.75 430.25 C 158.01 421.48 147.38 413.51 139.75 405.25 C 132.13 396.98 121.70 387.60 116.00 380.00
C 110.40 372.53 102.55 368.20 104.00 357.00 C 105.45 345.80 103.07 333.07 104.00 322.00 C 104.93 310.93 101.53 298.99 107.77 289.77 C 114.01 280.55 122.03 279.88 133.00 280.00 C 143.97 280.12 157.77 279.91 169.00 280.00
C 182.37 253.52 200.58 228.85 213.00 202.00
C 189.99 197.83 196.56 168.65 196.00 151.00 C 195.44 133.35 191.60 104.74 215.00 102.00
C 228.01 99.31 246.29 100.61 260.00 101.00 C 273.71 101.39 291.59 97.36 303.00 104.00
C 307.14 106.41 309.79 109.83 313.00 113.00
C 318.42 118.37 323.59 123.57 328.75 129.25 C 333.91 134.92 340.15 140.08 345.25 145.75 C 350.35 151.42 355.07 156.95 360.75 162.25 C 366.43 167.54 371.59 173.46 377.25 178.75 C 382.91 184.04 387.29 189.85 392.75 195.25 C 398.21 200.65 403.88 206.34 409.25 211.75 C 414.62 217.16 420.29 222.37 424.75 228.25 C 429.22 234.13 437.44 238.67 441.25 244.75 C 445.06 250.83 455.70 254.78 458.00 261.00
C 455.29 231.08 460.11 199.92 458.00 170.00 C 455.89 140.08 460.47 108.99 459.00 80.00
C 458.65 78.32 457.45 76.31 457.00 75.00
C 441.50 49.97 415.30 56.19 388.00 56.00 C 360.70 55.81 328.06 56.03 300.00 56.00 C 271.94 55.97 239.97 55.89 212.00 56.00 C 184.03 56.11 150.97 55.68 124.00 56.00 C 97.03 56.32 70.15 50.28 55.00 75.00 Z"/>
</g>
<g fill="None" fill-opacity="0.0" stroke="#000000" stroke-opacity="0.07" stroke-width="0.3"><path d="
M 457.00 75.00 
C 457.45 76.31 458.65 78.32 459.00 80.00
C 459.10 80.48 459.00 81.50 459.00 82.00
C 468.35 108.81 460.07 140.62 462.00 170.00 C 463.93 199.38 461.77 232.02 462.00 262.00 C 462.23 291.98 463.31 323.87 462.00 354.00 C 460.69 384.13 466.69 413.56 460.02 443.02 C 453.36 472.49 420.48 469.60 394.00 469.00 C 367.52 468.40 330.06 469.21 302.00 469.00 C 273.94 468.79 239.03 468.95 211.00 469.00 C 182.97 469.05 145.37 468.65 119.00 469.00 C 92.63 469.35 59.45 473.18 52.08 443.92 C 44.70 414.67 51.69 385.11 50.00 355.00 C 48.31 324.89 50.22 293.14 50.00 263.00 C 49.78 232.86 48.90 200.82 50.00 171.00 C 51.10 141.18 45.49 109.70 53.00 82.00
C 53.21 79.35 54.29 77.14 55.00 75.00
C 57.45 67.66 61.24 62.36 68.00 58.00
C 38.51 70.14 45.14 103.72 45.00 134.00 C 44.86 164.28 44.74 203.01 45.00 235.00 C 45.26 266.99 44.15 302.28 45.00 335.00 C 45.85 367.72 43.01 403.08 45.01 435.99 C 47.01 468.90 77.16 476.48 107.00 475.00 C 136.84 473.52 175.59 475.36 207.00 475.00 C 238.41 474.64 276.42 474.51 308.00 475.00 C 339.58 475.49 377.56 473.31 408.00 475.00 C 438.44 476.69 466.30 465.91 467.00 433.00 C 467.70 400.09 466.74 364.64 467.00 332.00 C 467.26 299.36 467.02 263.79 467.00 232.00 C 466.98 200.21 467.30 160.84 467.00 131.00 C 466.70 101.16 473.38 67.58 442.00 56.00
C 449.26 60.04 454.38 67.39 457.00 75.00 Z"/>
</g>
<g fill="None" fill-opacity="0.0" stroke="#7F7F8D" stroke-opacity="0.71" stroke-width="0.3"><path d="
M 458.00 261.00 
C 458.00 260.96 459.00 261.00 459.00 261.00
C 459.00 201.33 459.01 141.67 459.00 82.00
C 459.00 81.50 459.10 80.48 459.00 80.00
C 460.47 108.99 455.89 140.08 458.00 170.00 C 460.11 199.92 455.29 231.08 458.00 261.00 Z"/>
</g>
<g fill="None" fill-opacity="0.0" stroke="#000000" stroke-opacity="0.14" stroke-width="0.3"><path d="
M 459.00 82.00 
C 459.01 141.67 459.00 201.33 459.00 261.00
C 459.00 289.23 460.31 318.92 459.00 347.00 C 457.69 375.08 462.94 405.11 458.00 432.00
C 457.84 434.23 457.64 435.91 457.00 438.00
C 455.22 443.79 451.22 447.78 447.00 452.00
C 429.26 469.74 402.79 461.75 378.00 463.00 C 353.21 464.25 322.68 462.68 297.00 463.00 C 271.32 463.32 241.69 463.39 216.00 463.00 C 190.31 462.62 159.82 464.35 135.00 463.00 C 110.18 461.65 82.88 469.88 65.00 452.00
C 60.35 447.35 55.95 442.44 54.00 436.00
C 48.50 417.86 54.84 396.14 53.00 377.00 C 51.16 357.86 53.78 337.43 53.00 318.00 C 52.22 298.57 53.24 278.55 53.00 259.00 C 52.76 239.45 52.85 219.59 53.00 200.00 C 53.15 180.41 52.36 160.58 53.00 141.00 C 53.64 121.42 51.45 101.52 53.00 82.00
C 45.49 109.70 51.10 141.18 50.00 171.00 C 48.90 200.82 49.78 232.86 50.00 263.00 C 50.22 293.14 48.31 324.89 50.00 355.00 C 51.69 385.11 44.70 414.67 52.08 443.92 C 59.45 473.18 92.63 469.35 119.00 469.00 C 145.37 468.65 182.97 469.05 211.00 469.00 C 239.03 468.95 273.94 468.79 302.00 469.00 C 330.06 469.21 367.52 468.40 394.00 469.00 C 420.48 469.60 453.36 472.49 460.02 443.02 C 466.69 413.56 460.69 384.13 462.00 354.00 C 463.31 323.87 462.23 291.98 462.00 262.00 C 461.77 232.02 463.93 199.38 462.00 170.00 C 460.07 140.62 468.35 108.81 459.00 82.00 Z"/>
</g>
<g fill="None" fill-opacity="0.0" stroke="#F8C88B" stroke-opacity="1.00" stroke-width="0.3"><path d="
M 215.00 102.00 
C 229.03 100.72 246.10 101.54 260.00 102.00 C 273.90 102.46 290.55 98.57 303.00 104.00
C 291.59 97.36 273.71 101.39 260.00 101.00 C 246.29 100.61 228.01 99.31 215.00 102.00 Z"/>
</g>
<g fill="None" fill-opacity="0.0" stroke="#FEFEFD" stroke-opacity="1.00" stroke-width="0.3"><path d="
M 116.00 380.00 
C 128.44 386.43 147.69 381.33 162.00 382.00 C 176.31 382.67 194.55 384.36 208.68 380.68 C 222.81 377.00 224.01 360.20 223.00 347.00 C 221.99 333.80 223.88 312.90 223.00 299.00 C 222.12 285.10 206.86 277.63 194.00 280.00
C 197.53 272.00 202.24 266.38 206.30 258.30 C 210.37 250.23 214.97 244.89 219.30 236.30 C 223.64 227.72 228.04 224.20 231.92 213.92 C 235.81 203.65 245.13 202.91 256.00 203.00 C 266.87 203.09 275.65 203.42 279.30 213.70 C 282.96 223.98 288.28 227.01 292.25 235.75 C 296.23 244.48 301.03 249.71 305.25 257.75 C 309.48 265.78 314.21 272.03 318.00 280.00
C 305.59 277.94 290.28 284.42 289.00 298.00
C 287.92 308.54 288.96 319.35 289.00 330.00 C 289.04 340.65 287.91 352.37 289.00 363.00
C 292.84 380.35 306.68 382.40 323.00 382.00 C 339.32 381.60 360.99 381.43 377.00 382.00 C 393.01 382.57 406.70 377.11 407.99 359.99 C 409.28 342.88 406.67 322.91 408.00 306.00 C 409.33 289.09 396.39 279.20 381.00 280.00 C 365.61 280.80 343.43 283.80 337.23 269.77 C 331.02 255.74 323.41 249.55 317.25 236.75 C 311.08 223.96 303.54 214.83 298.00 202.00
C 306.92 201.77 314.53 192.50 315.00 184.00
C 316.79 164.28 317.02 140.69 315.00 121.00
C 314.45 118.50 314.24 115.29 313.00 113.00
C 309.79 109.83 307.14 106.41 303.00 104.00
C 290.55 98.57 273.90 102.46 260.00 102.00 C 246.10 101.54 229.03 100.72 215.00 102.00
C 191.60 104.74 195.44 133.35 196.00 151.00 C 196.56 168.65 189.99 197.83 213.00 202.00
C 200.58 228.85 182.37 253.52 169.00 280.00
C 157.77 279.91 143.97 280.12 133.00 280.00 C 122.03 279.88 114.01 280.55 107.77 289.77 C 101.53 298.99 104.93 310.93 104.00 322.00 C 103.07 333.07 105.45 345.80 104.00 357.00 C 102.55 368.20 110.40 372.53 116.00 380.00 Z"/>
</g>
<g fill="None" fill-opacity="0.0" stroke="#DF6E10" stroke-opacity="1.00" stroke-width="0.3"><path d="
M 315.00 121.00 
C 317.09 130.44 315.97 141.73 316.00 152.00 C 316.03 162.27 316.96 174.52 315.00 184.00
C 314.53 192.50 306.92 201.77 298.00 202.00
C 303.54 214.83 311.08 223.96 317.25 236.75 C 323.41 249.55 331.02 255.74 337.23 269.77 C 343.43 283.80 365.61 280.80 381.00 280.00 C 396.39 279.20 409.33 289.09 408.00 306.00 C 406.67 322.91 409.28 342.88 407.99 359.99 C 406.70 377.11 393.01 382.57 377.00 382.00 C 360.99 381.43 339.32 381.60 323.00 382.00 C 306.68 382.40 292.84 380.35 289.00 363.00
C 286.85 353.29 287.97 341.56 288.00 331.00 C 288.03 320.44 286.84 307.73 289.00 298.00
C 290.28 284.42 305.59 277.94 318.00 280.00
C 314.21 272.03 309.48 265.78 305.25 257.75 C 301.03 249.71 296.23 244.48 292.25 235.75 C 288.28 227.01 282.96 223.98 279.30 213.70 C 275.65 203.42 266.87 203.09 256.00 203.00 C 245.13 202.91 235.81 203.65 231.92 213.92 C 228.04 224.20 223.64 227.72 219.30 236.30 C 214.97 244.89 210.37 250.23 206.30 258.30 C 202.24 266.38 197.53 272.00 194.00 280.00
C 206.86 277.63 222.12 285.10 223.00 299.00 C 223.88 312.90 221.99 333.80 223.00 347.00 C 224.01 360.20 222.81 377.00 208.68 380.68 C 194.55 384.36 176.31 382.67 162.00 382.00 C 147.69 381.33 128.44 386.43 116.00 380.00
C 121.70 387.60 132.13 396.98 139.75 405.25 C 147.38 413.51 158.01 421.48 164.75 430.25 C 171.49 439.01 185.66 445.74 189.00 456.00
C 189.50 456.00 190.00 456.00 190.00 456.00
C 220.13 456.00 255.38 456.55 285.00 456.00 C 314.62 455.45 352.25 457.47 380.00 456.00 C 407.75 454.53 442.94 465.19 457.00 438.00
C 457.64 435.91 457.84 434.23 458.00 432.00
C 460.08 403.71 456.26 375.36 458.00 347.00 C 459.74 318.64 455.44 289.32 458.00 261.00
C 455.70 254.78 445.06 250.83 441.25 244.75 C 437.44 238.67 429.22 234.13 424.75 228.25 C 420.29 222.37 414.62 217.16 409.25 211.75 C 403.88 206.34 398.21 200.65 392.75 195.25 C 387.29 189.85 382.91 184.04 377.25 178.75 C 371.59 173.46 366.43 167.54 360.75 162.25 C 355.07 156.95 350.35 151.42 345.25 145.75 C 340.15 140.08 333.91 134.92 328.75 129.25 C 323.59 123.57 318.42 118.37 313.00 113.00
C 314.24 115.29 314.45 118.50 315.00 121.00 Z"/>
</g>
<g fill="None" fill-opacity="0.0" stroke="#ECAD77" stroke-opacity="1.00" stroke-width="0.3"><path d="
M 315.00 184.00 
C 316.96 174.52 316.03 162.27 316.00 152.00 C 315.97 141.73 317.09 130.44 315.00 121.00
C 317.02 140.69 316.79 164.28 315.00 184.00 Z"/>
</g>
<g fill="None" fill-opacity="0.0" stroke="#81757D" stroke-opacity="0.71" stroke-width="0.3"><path d="
M 458.00 432.00 
C 462.94 405.11 457.69 375.08 459.00 347.00 C 460.31 318.92 459.00 289.23 459.00 261.00
C 459.00 261.00 458.00 260.96 458.00 261.00
C 455.44 289.32 459.74 318.64 458.00 347.00 C 456.26 375.36 460.08 403.71 458.00 432.00 Z"/>
</g>
<g fill="None" fill-opacity="0.0" stroke="#EFB98B" stroke-opacity="1.00" stroke-width="0.3"><path d="
M 289.00 363.00 
C 287.91 352.37 289.04 340.65 289.00 330.00 C 288.96 319.35 287.92 308.54 289.00 298.00
C 286.84 307.73 288.03 320.44 288.00 331.00 C 287.97 341.56 286.85 353.29 289.00 363.00 Z"/>
</g>
<g fill="None" fill-opacity="0.0" stroke="#BD6D0F" stroke-opacity="0.96" stroke-width="0.3"><path d="
M 65.00 452.00 
C 69.69 455.49 74.09 457.68 80.00 458.00
C 116.75 459.99 154.19 458.00 191.00 458.00
C 190.57 457.80 190.28 456.14 190.00 456.00
C 190.00 456.00 189.50 456.00 189.00 456.00
C 172.83 456.00 152.78 456.22 137.00 456.00 C 121.22 455.78 99.36 456.59 85.00 456.00 C 70.65 455.41 59.75 446.78 54.00 436.00
C 55.95 442.44 60.35 447.35 65.00 452.00 Z"/>
</g>
<g fill="None" fill-opacity="0.0" stroke="#B05912" stroke-opacity="0.98" stroke-width="0.3"><path d="
M 190.00 456.00 
C 190.28 456.14 190.57 457.80 191.00 458.00
C 231.07 458.00 270.91 458.83 311.00 458.00 C 351.10 457.18 391.93 460.17 432.00 458.00
C 437.63 457.69 442.50 455.35 447.00 452.00
C 451.22 447.78 455.22 443.79 457.00 438.00
C 442.94 465.19 407.75 454.53 380.00 456.00 C 352.25 457.47 314.62 455.45 285.00 456.00 C 255.38 456.55 220.13 456.00 190.00 456.00 Z"/>
</g>
<g fill="None" fill-opacity="0.0" stroke="#000000" stroke-opacity="0.22" stroke-width="0.3"><path d="
M 447.00 452.00 
C 442.50 455.35 437.63 457.69 432.00 458.00
C 404.10 462.53 373.99 457.87 345.00 459.00 C 316.01 460.13 285.13 459.00 256.00 459.00 C 226.87 459.00 197.02 460.18 168.00 459.00 C 138.98 457.82 107.94 462.54 80.00 458.00
C 74.09 457.68 69.69 455.49 65.00 452.00
C 82.88 469.88 110.18 461.65 135.00 463.00 C 159.82 464.35 190.31 462.62 216.00 463.00 C 241.69 463.39 271.32 463.32 297.00 463.00 C 322.68 462.68 353.21 464.25 378.00 463.00 C 402.79 461.75 429.26 469.74 447.00 452.00 Z"/>
</g>
<g fill="None" fill-opacity="0.0" stroke="#635B65" stroke-opacity="0.75" stroke-width="0.3"><path d="
M 432.00 458.00 
C 391.93 460.17 351.10 457.18 311.00 458.00 C 270.91 458.83 231.07 458.00 191.00 458.00
C 154.19 458.00 116.75 459.99 80.00 458.00
C 107.94 462.54 138.98 457.82 168.00 459.00 C 197.02 460.18 226.87 459.00 256.00 459.00 C 285.13 459.00 316.01 460.13 345.00 459.00 C 373.99 457.87 404.10 462.53 432.00 458.00 Z"/>
</g>
<g fill="#000000" fill-opacity="0.00" stroke="None">
<path d="
M 0.00 512.00 
L 512.00 512.00
L 512.00 0.00
L 0.00 0.00
L 0.00 512.00
M 442.00 56.00 
C 473.38 67.58 466.70 101.16 467.00 131.00 C 467.30 160.84 466.98 200.21 467.00 232.00 C 467.02 263.79 467.26 299.36 467.00 332.00 C 466.74 364.64 467.70 400.09 467.00 433.00 C 466.30 465.91 438.44 476.69 408.00 475.00 C 377.56 473.31 339.58 475.49 308.00 475.00 C 276.42 474.51 238.41 474.64 207.00 475.00 C 175.59 475.36 136.84 473.52 107.00 475.00 C 77.16 476.48 47.01 468.90 45.01 435.99 C 43.01 403.08 45.85 367.72 45.00 335.00 C 44.15 302.28 45.26 266.99 45.00 235.00 C 44.74 203.01 44.86 164.28 45.00 134.00 C 45.14 103.72 38.51 70.14 68.00 58.00
C 87.61 45.35 115.47 55.30 139.00 53.00 C 162.53 50.70 190.53 53.72 215.00 53.00 C 239.47 52.28 267.30 52.68 292.00 53.00 C 316.70 53.32 343.61 51.37 368.00 53.00 C 392.39 54.63 419.51 47.70 442.00 56.00 Z"/>
</g>
<g fill="#EC9F42" fill-opacity="0.88" stroke="None">
<path d="
M 68.00 58.00 
C 61.24 62.36 57.45 67.66 55.00 75.00
C 70.15 50.28 97.03 56.32 124.00 56.00 C 150.97 55.68 184.03 56.11 212.00 56.00 C 239.97 55.89 271.94 55.97 300.00 56.00 C 328.06 56.03 360.70 55.81 388.00 56.00 C 415.30 56.19 441.50 49.97 457.00 75.00
C 454.38 67.39 449.26 60.04 442.00 56.00
C 419.51 47.70 392.39 54.63 368.00 53.00 C 343.61 51.37 316.70 53.32 292.00 53.00 C 267.30 52.68 239.47 52.28 215.00 53.00 C 190.53 53.72 162.53 50.70 139.00 53.00 C 115.47 55.30 87.61 45.35 68.00 58.00 Z"/>
</g>
<g fill="#F08C10" fill-opacity="1.00" stroke="None">
<path d="
M 55.00 75.00 
C 54.29 77.14 53.21 79.35 53.00 82.00
C 51.45 101.52 53.64 121.42 53.00 141.00 C 52.36 160.58 53.15 180.41 53.00 200.00 C 52.85 219.59 52.76 239.45 53.00 259.00 C 53.24 278.55 52.22 298.57 53.00 318.00 C 53.78 337.43 51.16 357.86 53.00 377.00 C 54.84 396.14 48.50 417.86 54.00 436.00
C 59.75 446.78 70.65 455.41 85.00 456.00 C 99.36 456.59 121.22 455.78 137.00 456.00 C 152.78 456.22 172.83 456.00 189.00 456.00
C 185.66 445.74 171.49 439.01 164.75 430.25 C 158.01 421.48 147.38 413.51 139.75 405.25 C 132.13 396.98 121.70 387.60 116.00 380.00
C 110.40 372.53 102.55 368.20 104.00 357.00 C 105.45 345.80 103.07 333.07 104.00 322.00 C 104.93 310.93 101.53 298.99 107.77 289.77 C 114.01 280.55 122.03 279.88 133.00 280.00 C 143.97 280.12 157.77 279.91 169.00 280.00
C 182.37 253.52 200.58 228.85 213.00 202.00
C 189.99 197.83 196.56 168.65 196.00 151.00 C 195.44 133.35 191.60 104.74 215.00 102.00
C 228.01 99.31 246.29 100.61 260.00 101.00 C 273.71 101.39 291.59 97.36 303.00 104.00
C 307.14 106.41 309.79 109.83 313.00 113.00
C 318.42 118.37 323.59 123.57 328.75 129.25 C 333.91 134.92 340.15 140.08 345.25 145.75 C 350.35 151.42 355.07 156.95 360.75 162.25 C 366.43 167.54 371.59 173.46 377.25 178.75 C 382.91 184.04 387.29 189.85 392.75 195.25 C 398.21 200.65 403.88 206.34 409.25 211.75 C 414.62 217.16 420.29 222.37 424.75 228.25 C 429.22 234.13 437.44 238.67 441.25 244.75 C 445.06 250.83 455.70 254.78 458.00 261.00
C 455.29 231.08 460.11 199.92 458.00 170.00 C 455.89 140.08 460.47 108.99 459.00 80.00
C 458.65 78.32 457.45 76.31 457.00 75.00
C 441.50 49.97 415.30 56.19 388.00 56.00 C 360.70 55.81 328.06 56.03 300.00 56.00 C 271.94 55.97 239.97 55.89 212.00 56.00 C 184.03 56.11 150.97 55.68 124.00 56.00 C 97.03 56.32 70.15 50.28 55.00 75.00 Z"/>
</g>
<g fill="#000000" fill-opacity="0.07" stroke="None">
<path d="
M 457.00 75.00 
C 457.45 76.31 458.65 78.32 459.00 80.00
C 459.10 80.48 459.00 81.50 459.00 82.00
C 468.35 108.81 460.07 140.62 462.00 170.00 C 463.93 199.38 461.77 232.02 462.00 262.00 C 462.23 291.98 463.31 323.87 462.00 354.00 C 460.69 384.13 466.69 413.56 460.02 443.02 C 453.36 472.49 420.48 469.60 394.00 469.00 C 367.52 468.40 330.06 469.21 302.00 469.00 C 273.94 468.79 239.03 468.95 211.00 469.00 C 182.97 469.05 145.37 468.65 119.00 469.00 C 92.63 469.35 59.45 473.18 52.08 443.92 C 44.70 414.67 51.69 385.11 50.00 355.00 C 48.31 324.89 50.22 293.14 50.00 263.00 C 49.78 232.86 48.90 200.82 50.00 171.00 C 51.10 141.18 45.49 109.70 53.00 82.00
C 53.21 79.35 54.29 77.14 55.00 75.00
C 57.45 67.66 61.24 62.36 68.00 58.00
C 38.51 70.14 45.14 103.72 45.00 134.00 C 44.86 164.28 44.74 203.01 45.00 235.00 C 45.26 266.99 44.15 302.28 45.00 335.00 C 45.85 367.72 43.01 403.08 45.01 435.99 C 47.01 468.90 77.16 476.48 107.00 475.00 C 136.84 473.52 175.59 475.36 207.00 475.00 C 238.41 474.64 276.42 474.51 308.00 475.00 C 339.58 475.49 377.56 473.31 408.00 475.00 C 438.44 476.69 466.30 465.91 467.00 433.00 C 467.70 400.09 466.74 364.64 467.00 332.00 C 467.26 299.36 467.02 263.79 467.00 232.00 C 466.98 200.21 467.30 160.84 467.00 131.00 C 466.70 101.16 473.38 67.58 442.00 56.00
C 449.26 60.04 454.38 67.39 457.00 75.00 Z"/>
</g>
<g fill="#7F7F8D" fill-opacity="0.71" stroke="None">
<path d="
M 458.00 261.00 
C 458.00 260.96 459.00 261.00 459.00 261.00
C 459.00 201.33 459.01 141.67 459.00 82.00
C 459.00 81.50 459.10 80.48 459.00 80.00
C 460.47 108.99 455.89 140.08 458.00 170.00 C 460.11 199.92 455.29 231.08 458.00 261.00 Z"/>
</g>
<g fill="#000000" fill-opacity="0.14" stroke="None">
<path d="
M 459.00 82.00 
C 459.01 141.67 459.00 201.33 459.00 261.00
C 459.00 289.23 460.31 318.92 459.00 347.00 C 457.69 375.08 462.94 405.11 458.00 432.00
C 457.84 434.23 457.64 435.91 457.00 438.00
C 455.22 443.79 451.22 447.78 447.00 452.00
C 429.26 469.74 402.79 461.75 378.00 463.00 C 353.21 464.25 322.68 462.68 297.00 463.00 C 271.32 463.32 241.69 463.39 216.00 463.00 C 190.31 462.62 159.82 464.35 135.00 463.00 C 110.18 461.65 82.88 469.88 65.00 452.00
C 60.35 447.35 55.95 442.44 54.00 436.00
C 48.50 417.86 54.84 396.14 53.00 377.00 C 51.16 357.86 53.78 337.43 53.00 318.00 C 52.22 298.57 53.24 278.55 53.00 259.00 C 52.76 239.45 52.85 219.59 53.00 200.00 C 53.15 180.41 52.36 160.58 53.00 141.00 C 53.64 121.42 51.45 101.52 53.00 82.00
C 45.49 109.70 51.10 141.18 50.00 171.00 C 48.90 200.82 49.78 232.86 50.00 263.00 C 50.22 293.14 48.31 324.89 50.00 355.00 C 51.69 385.11 44.70 414.67 52.08 443.92 C 59.45 473.18 92.63 469.35 119.00 469.00 C 145.37 468.65 182.97 469.05 211.00 469.00 C 239.03 468.95 273.94 468.79 302.00 469.00 C 330.06 469.21 367.52 468.40 394.00 469.00 C 420.48 469.60 453.36 472.49 460.02 443.02 C 466.69 413.56 460.69 384.13 462.00 354.00 C 463.31 323.87 462.23 291.98 462.00 262.00 C 461.77 232.02 463.93 199.38 462.00 170.00 C 460.07 140.62 468.35 108.81 459.00 82.00 Z"/>
</g>
<g fill="#F8C88B" fill-opacity="1.00" stroke="None">
<path d="
M 215.00 102.00 
C 229.03 100.72 246.10 101.54 260.00 102.00 C 273.90 102.46 290.55 98.57 303.00 104.00
C 291.59 97.36 273.71 101.39 260.00 101.00 C 246.29 100.61 228.01 99.31 215.00 102.00 Z"/>
</g>
<g fill="#FEFEFD" fill-opacity="1.00" stroke="None">
<path d="
M 116.00 380.00 
C 128.44 386.43 147.69 381.33 162.00 382.00 C 176.31 382.67 194.55 384.36 208.68 380.68 C 222.81 377.00 224.01 360.20 223.00 347.00 C 221.99 333.80 223.88 312.90 223.00 299.00 C 222.12 285.10 206.86 277.63 194.00 280.00
C 197.53 272.00 202.24 266.38 206.30 258.30 C 210.37 250.23 214.97 244.89 219.30 236.30 C 223.64 227.72 228.04 224.20 231.92 213.92 C 235.81 203.65 245.13 202.91 256.00 203.00 C 266.87 203.09 275.65 203.42 279.30 213.70 C 282.96 223.98 288.28 227.01 292.25 235.75 C 296.23 244.48 301.03 249.71 305.25 257.75 C 309.48 265.78 314.21 272.03 318.00 280.00
C 305.59 277.94 290.28 284.42 289.00 298.00
C 287.92 308.54 288.96 319.35 289.00 330.00 C 289.04 340.65 287.91 352.37 289.00 363.00
C 292.84 380.35 306.68 382.40 323.00 382.00 C 339.32 381.60 360.99 381.43 377.00 382.00 C 393.01 382.57 406.70 377.11 407.99 359.99 C 409.28 342.88 406.67 322.91 408.00 306.00 C 409.33 289.09 396.39 279.20 381.00 280.00 C 365.61 280.80 343.43 283.80 337.23 269.77 C 331.02 255.74 323.41 249.55 317.25 236.75 C 311.08 223.96 303.54 214.83 298.00 202.00
C 306.92 201.77 314.53 192.50 315.00 184.00
C 316.79 164.28 317.02 140.69 315.00 121.00
C 314.45 118.50 314.24 115.29 313.00 113.00
C 309.79 109.83 307.14 106.41 303.00 104.00
C 290.55 98.57 273.90 102.46 260.00 102.00 C 246.10 101.54 229.03 100.72 215.00 102.00
C 191.60 104.74 195.44 133.35 196.00 151.00 C 196.56 168.65 189.99 197.83 213.00 202.00
C 200.58 228.85 182.37 253.52 169.00 280.00
C 157.77 279.91 143.97 280.12 133.00 280.00 C 122.03 279.88 114.01 280.55 107.77 289.77 C 101.53 298.99 104.93 310.93 104.00 322.00 C 103.07 333.07 105.45 345.80 104.00 357.00 C 102.55 368.20 110.40 372.53 116.00 380.00 Z"/>
</g>
<g fill="#DF6E10" fill-opacity="1.00" stroke="None">
<path d="
M 315.00 121.00 
C 317.09 130.44 315.97 141.73 316.00 152.00 C 316.03 162.27 316.96 174.52 315.00 184.00
C 314.53 192.50 306.92 201.77 298.00 202.00
C 303.54 214.83 311.08 223.96 317.25 236.75 C 323.41 249.55 331.02 255.74 337.23 269.77 C 343.43 283.80 365.61 280.80 381.00 280.00 C 396.39 279.20 409.33 289.09 408.00 306.00 C 406.67 322.91 409.28 342.88 407.99 359.99 C 406.70 377.11 393.01 382.57 377.00 382.00 C 360.99 381.43 339.32 381.60 323.00 382.00 C 306.68 382.40 292.84 380.35 289.00 363.00
C 286.85 353.29 287.97 341.56 288.00 331.00 C 288.03 320.44 286.84 307.73 289.00 298.00
C 290.28 284.42 305.59 277.94 318.00 280.00
C 314.21 272.03 309.48 265.78 305.25 257.75 C 301.03 249.71 296.23 244.48 292.25 235.75 C 288.28 227.01 282.96 223.98 279.30 213.70 C 275.65 203.42 266.87 203.09 256.00 203.00 C 245.13 202.91 235.81 203.65 231.92 213.92 C 228.04 224.20 223.64 227.72 219.30 236.30 C 214.97 244.89 210.37 250.23 206.30 258.30 C 202.24 266.38 197.53 272.00 194.00 280.00
C 206.86 277.63 222.12 285.10 223.00 299.00 C 223.88 312.90 221.99 333.80 223.00 347.00 C 224.01 360.20 222.81 377.00 208.68 380.68 C 194.55 384.36 176.31 382.67 162.00 382.00 C 147.69 381.33 128.44 386.43 116.00 380.00
C 121.70 387.60 132.13 396.98 139.75 405.25 C 147.38 413.51 158.01 421.48 164.75 430.25 C 171.49 439.01 185.66 445.74 189.00 456.00
C 189.50 456.00 190.00 456.00 190.00 456.00
C 220.13 456.00 255.38 456.55 285.00 456.00 C 314.62 455.45 352.25 457.47 380.00 456.00 C 407.75 454.53 442.94 465.19 457.00 438.00
C 457.64 435.91 457.84 434.23 458.00 432.00
C 460.08 403.71 456.26 375.36 458.00 347.00 C 459.74 318.64 455.44 289.32 458.00 261.00
C 455.70 254.78 445.06 250.83 441.25 244.75 C 437.44 238.67 429.22 234.13 424.75 228.25 C 420.29 222.37 414.62 217.16 409.25 211.75 C 403.88 206.34 398.21 200.65 392.75 195.25 C 387.29 189.85 382.91 184.04 377.25 178.75 C 371.59 173.46 366.43 167.54 360.75 162.25 C 355.07 156.95 350.35 151.42 345.25 145.75 C 340.15 140.08 333.91 134.92 328.75 129.25 C 323.59 123.57 318.42 118.37 313.00 113.00
C 314.24 115.29 314.45 118.50 315.00 121.00 Z"/>
</g>
<g fill="#ECAD77" fill-opacity="1.00" stroke="None">
<path d="
M 315.00 184.00 
C 316.96 174.52 316.03 162.27 316.00 152.00 C 315.97 141.73 317.09 130.44 315.00 121.00
C 317.02 140.69 316.79 164.28 315.00 184.00 Z"/>
</g>
<g fill="#81757D" fill-opacity="0.71" stroke="None">
<path d="
M 458.00 432.00 
C 462.94 405.11 457.69 375.08 459.00 347.00 C 460.31 318.92 459.00 289.23 459.00 261.00
C 459.00 261.00 458.00 260.96 458.00 261.00
C 455.44 289.32 459.74 318.64 458.00 347.00 C 456.26 375.36 460.08 403.71 458.00 432.00 Z"/>
</g>
<g fill="#EFB98B" fill-opacity="1.00" stroke="None">
<path d="
M 289.00 363.00 
C 287.91 352.37 289.04 340.65 289.00 330.00 C 288.96 319.35 287.92 308.54 289.00 298.00
C 286.84 307.73 288.03 320.44 288.00 331.00 C 287.97 341.56 286.85 353.29 289.00 363.00 Z"/>
</g>
<g fill="#BD6D0F" fill-opacity="0.96" stroke="None">
<path d="
M 65.00 452.00 
C 69.69 455.49 74.09 457.68 80.00 458.00
C 116.75 459.99 154.19 458.00 191.00 458.00
C 190.57 457.80 190.28 456.14 190.00 456.00
C 190.00 456.00 189.50 456.00 189.00 456.00
C 172.83 456.00 152.78 456.22 137.00 456.00 C 121.22 455.78 99.36 456.59 85.00 456.00 C 70.65 455.41 59.75 446.78 54.00 436.00
C 55.95 442.44 60.35 447.35 65.00 452.00 Z"/>
</g>
<g fill="#B05912" fill-opacity="0.98" stroke="None">
<path d="
M 190.00 456.00 
C 190.28 456.14 190.57 457.80 191.00 458.00
C 231.07 458.00 270.91 458.83 311.00 458.00 C 351.10 457.18 391.93 460.17 432.00 458.00
C 437.63 457.69 442.50 455.35 447.00 452.00
C 451.22 447.78 455.22 443.79 457.00 438.00
C 442.94 465.19 407.75 454.53 380.00 456.00 C 352.25 457.47 314.62 455.45 285.00 456.00 C 255.38 456.55 220.13 456.00 190.00 456.00 Z"/>
</g>
<g fill="#000000" fill-opacity="0.22" stroke="None">
<path d="
M 447.00 452.00 
C 442.50 455.35 437.63 457.69 432.00 458.00
C 404.10 462.53 373.99 457.87 345.00 459.00 C 316.01 460.13 285.13 459.00 256.00 459.00 C 226.87 459.00 197.02 460.18 168.00 459.00 C 138.98 457.82 107.94 462.54 80.00 458.00
C 74.09 457.68 69.69 455.49 65.00 452.00
C 82.88 469.88 110.18 461.65 135.00 463.00 C 159.82 464.35 190.31 462.62 216.00 463.00 C 241.69 463.39 271.32 463.32 297.00 463.00 C 322.68 462.68 353.21 464.25 378.00 463.00 C 402.79 461.75 429.26 469.74 447.00 452.00 Z"/>
</g>
<g fill="#635B65" fill-opacity="0.75" stroke="None">
<path d="
M 432.00 458.00 
C 391.93 460.17 351.10 457.18 311.00 458.00 C 270.91 458.83 231.07 458.00 191.00 458.00
C 154.19 458.00 116.75 459.99 80.00 458.00
C 107.94 462.54 138.98 457.82 168.00 459.00 C 197.02 460.18 226.87 459.00 256.00 459.00 C 285.13 459.00 316.01 460.13 345.00 459.00 C 373.99 457.87 404.10 462.53 432.00 458.00 Z"/>
</g>
</svg>