<svg xmlns="http://www.w3.org/2000/svg" xmlns:v="https://svgstorm.com"
viewBox = "0 0 920 920"
width="920"
height="920">
<g fill="None" fill-opacity="0.0" stroke="#F0F0F0" stroke-opacity="1.00" stroke-width="0.3"><path d="
M 0.00 920.00 
L 920.00 920.00
L 920.00 0.00
L 0.00 0.00
L 0.00 920.00
M 696.00 56.00 
C 699.15 56.00 702.57 56.71 705.00 57.00
C 711.23 57.75 716.37 58.08 722.00 59.00
C 726.92 59.80 732.86 60.74 737.00 63.00
C 737.50 62.97 738.00 63.00 738.00 63.00
C 752.62 63.56 768.73 75.74 781.23 82.77 C 793.73 89.80 805.33 100.54 815.25 111.75 C 825.16 122.97 834.10 135.78 840.31 149.69 C 846.51 163.61 855.61 182.97 855.00 199.00
C 854.98 199.50 854.82 200.58 855.00 201.00
C 856.02 203.40 856.00 206.00 856.00 209.00
C 856.00 209.50 856.00 210.00 856.00 210.00
C 861.38 217.27 855.29 231.45 857.00 241.00 C 858.71 250.55 856.21 263.75 857.00 274.00 C 857.79 284.25 856.65 295.39 857.00 306.00 C 857.35 316.61 856.84 328.22 857.00 339.00 C 857.16 349.78 856.93 361.18 857.00 372.00 C 857.07 382.82 856.97 393.17 857.00 404.00 C 857.03 414.83 856.99 426.16 857.00 437.00 C 857.01 447.84 857.01 458.14 857.00 469.00 C 856.99 479.86 857.03 491.12 857.00 502.00 C 856.97 512.88 857.07 524.18 857.00 535.00 C 856.93 545.82 857.17 556.26 857.00 567.00 C 856.83 577.74 857.37 589.40 857.00 600.00 C 856.63 610.60 857.84 621.73 857.00 632.00 C 856.16 642.27 858.80 655.39 857.00 665.00 C 855.20 674.61 861.43 689.66 856.00 697.00
C 856.18 697.42 856.00 698.00 856.00 698.00
C 856.83 699.59 855.84 703.22 855.00 705.00
C 855.23 705.35 855.00 706.00 855.00 706.00
C 855.00 723.64 846.82 739.75 840.00 755.00
C 839.90 758.06 838.43 759.51 837.00 762.00
C 824.75 783.30 809.65 803.71 788.75 817.75 C 767.86 831.80 741.01 847.28 715.00 848.00
C 711.75 848.09 708.97 848.20 705.00 849.00
C 677.28 854.62 646.29 848.47 617.00 850.00 C 587.71 851.53 555.55 850.03 526.00 850.00
C 525.50 850.00 525.00 850.00 525.00 850.00
C 507.92 850.00 491.11 850.06 474.00 850.00 C 456.89 849.94 439.09 850.16 422.00 850.00 C 404.91 849.84 388.02 850.37 371.00 850.00 C 353.98 849.63 335.86 850.81 319.00 850.00 C 302.14 849.19 284.48 851.82 268.00 850.00 C 251.52 848.18 232.38 854.43 217.00 849.00
C 216.56 848.84 216.00 849.00 216.00 849.00
C 210.51 849.00 205.52 848.97 201.00 847.00
C 200.65 847.23 200.00 847.00 200.00 847.00
C 183.41 848.11 164.83 836.02 150.30 829.70 C 135.78 823.37 123.78 812.13 112.25 800.75 C 100.71 789.37 89.71 776.38 83.00 762.00
C 82.49 760.91 82.39 760.10 82.00 759.00
C 79.22 754.09 74.45 748.04 74.00 742.00
C 73.96 741.50 74.00 741.00 74.00 741.00
C 63.76 729.07 66.55 711.77 64.00 696.00 C 61.45 680.23 63.50 659.32 63.00 642.00 C 62.50 624.68 63.22 604.91 63.00 587.00 C 62.78 569.09 63.10 550.21 63.00 532.00 C 62.90 513.79 63.04 494.30 63.00 476.00 C 62.96 457.70 63.02 439.26 63.00 421.00 C 62.98 402.74 63.00 384.17 63.00 366.00 C 63.00 347.83 62.98 328.97 63.00 311.00 C 63.02 293.03 62.95 273.52 63.00 256.00 C 63.05 238.48 62.49 218.72 64.00 203.00 C 65.50 187.28 70.19 173.02 75.32 159.32 C 80.45 145.63 87.60 135.83 95.25 124.25 C 102.91 112.68 111.25 104.85 121.75 95.75 C 132.24 86.65 142.62 80.48 154.70 73.70 C 166.77 66.91 182.46 62.46 195.00 60.00
C 217.99 50.13 244.34 57.95 271.00 56.00 C 297.66 54.05 328.42 56.88 356.00 56.00 C 383.58 55.12 413.01 56.39 441.00 56.00 C 468.99 55.61 497.83 56.17 526.00 56.00 C 554.17 55.83 582.75 56.06 611.00 56.00 C 639.25 55.94 667.73 56.00 696.00 56.00 Z"/>
</g>
<g fill="None" fill-opacity="0.0" stroke="#6E7075" stroke-opacity="1.00" stroke-width="0.3"><path d="
M 195.00 60.00 
C 194.27 60.31 192.71 61.76 192.00 62.00
C 245.35 54.21 304.13 58.52 363.00 58.00 C 421.87 57.48 489.89 57.43 549.00 58.00 C 608.11 58.57 668.73 54.60 724.00 61.00
C 723.40 60.77 722.53 59.30 722.00 59.00
C 716.37 58.08 711.23 57.75 705.00 57.00
C 703.00 56.97 698.21 56.21 696.00 56.00
C 667.73 56.00 639.25 55.94 611.00 56.00 C 582.75 56.06 554.17 55.83 526.00 56.00 C 497.83 56.17 468.99 55.61 441.00 56.00 C 413.01 56.39 383.58 55.12 356.00 56.00 C 328.42 56.88 297.66 54.05 271.00 56.00 C 244.34 57.95 217.99 50.13 195.00 60.00 Z"/>
</g>
<g fill="None" fill-opacity="0.0" stroke="#939393" stroke-opacity="1.00" stroke-width="0.3"><path d="
M 705.00 57.00 
C 702.57 56.71 699.15 56.00 696.00 56.00
C 698.21 56.21 703.00 56.97 705.00 57.00 Z"/>
</g>
<g fill="None" fill-opacity="0.0" stroke="#2C2E37" stroke-opacity="1.00" stroke-width="0.3"><path d="
M 192.00 62.00 
C 172.66 64.82 154.36 74.45 138.00 85.00
C 134.73 87.66 131.44 90.37 128.00 93.00
C 127.68 93.24 127.00 93.00 127.00 93.00
C 121.84 100.38 112.67 106.83 106.00 113.00
C 102.61 116.67 99.61 120.70 97.00 125.00
C 90.53 135.67 84.14 146.44 78.00 157.00
C 70.65 174.03 64.63 193.48 65.00 212.00
C 68.22 372.52 65.00 533.44 65.00 694.00
C 65.00 708.22 68.10 722.06 73.00 735.00
C 74.02 737.70 75.09 740.28 76.00 743.00
C 76.91 745.73 77.93 748.28 79.00 751.00
C 82.01 756.65 86.77 762.82 89.00 769.00
C 89.16 769.44 89.00 770.00 89.00 770.00
C 92.38 773.24 95.39 777.95 98.00 782.00
C 98.96 783.48 99.78 785.45 101.00 787.00
C 105.53 791.90 110.23 797.23 115.00 802.00
C 122.04 808.02 127.92 814.20 136.00 819.00
C 145.24 824.49 154.72 830.05 164.00 835.00
C 169.72 837.24 176.05 839.15 181.67 841.33 C 187.29 843.50 195.50 843.35 200.00 847.00
C 200.00 847.00 200.65 847.23 201.00 847.00
C 203.15 845.62 213.40 847.86 216.00 849.00
C 216.00 849.00 216.56 848.84 217.00 849.00
C 221.68 845.32 238.30 850.19 244.25 848.20 C 250.20 846.21 261.07 850.59 269.00 849.00 C 276.93 847.41 280.18 848.64 289.00 849.00 C 297.83 849.36 305.02 847.62 312.25 848.20 C 319.48 848.78 331.30 848.78 337.75 848.60 C 344.20 848.43 355.58 849.27 362.75 848.40 C 369.93 847.52 377.02 849.71 386.00 849.00 C 394.98 848.29 397.54 848.29 406.08 848.93 C 414.63 849.58 424.37 847.88 431.25 848.80 C 438.13 849.72 449.83 848.35 456.25 848.20 C 462.67 848.05 473.74 849.88 481.25 848.80 C 488.75 847.72 494.08 849.20 503.00 849.00 C 511.92 848.80 517.41 848.44 525.00 848.00
C 529.89 847.72 535.11 847.72 540.00 848.00
C 593.61 851.07 649.80 849.33 705.00 849.00
C 708.97 848.20 711.75 848.09 715.00 848.00
C 726.19 846.05 739.96 841.48 750.00 837.00
C 753.35 835.50 756.64 834.33 760.00 833.00
C 775.83 826.71 792.10 815.25 804.00 803.00
C 806.90 800.01 810.11 796.89 813.00 794.00
C 820.61 785.09 827.75 776.28 833.00 766.00
C 835.26 761.58 837.63 757.08 840.00 753.00
C 842.10 745.35 846.89 738.62 848.78 730.78 C 850.67 722.94 851.94 713.02 855.00 706.00
C 855.00 706.00 855.23 705.35 855.00 705.00
C 853.80 703.18 855.14 699.97 856.00 698.00
C 856.00 698.00 856.18 697.42 856.00 697.00
C 855.52 695.88 855.09 694.56 855.00 693.00
C 854.36 681.59 855.28 670.46 855.00 659.00 C 854.72 647.54 855.13 635.49 855.00 624.00 C 854.87 612.51 855.06 601.50 855.00 590.00 C 854.94 578.50 855.02 566.50 855.00 555.00 C 854.98 543.50 855.01 532.50 855.00 521.00 C 854.99 509.50 855.00 497.50 855.00 486.00 C 855.00 474.50 854.99 463.50 855.00 452.00 C 855.01 440.50 854.97 428.49 855.00 417.00 C 855.03 405.51 854.93 394.46 855.00 383.00 C 855.07 371.54 854.84 359.42 855.00 348.00 C 855.16 336.58 854.64 325.30 855.00 314.00 C 855.36 302.70 854.23 290.06 855.00 279.00 C 855.77 267.94 853.25 255.48 855.00 245.00 C 856.75 234.52 851.17 220.82 855.00 212.00
C 855.33 211.24 855.85 210.84 856.00 210.00
C 856.00 210.00 856.00 209.50 856.00 209.00
C 854.57 207.06 854.65 202.64 855.00 201.00
C 854.82 200.58 854.98 199.50 855.00 199.00
C 852.25 191.13 851.22 182.01 848.00 174.00
C 846.54 170.37 845.19 166.71 844.00 163.00
C 840.89 153.28 836.04 144.95 831.00 136.00
C 827.54 131.15 823.25 126.25 820.00 121.00
C 819.78 120.64 820.00 120.00 820.00 120.00
C 815.09 116.57 810.75 110.79 806.75 106.25 C 802.75 101.70 795.14 97.78 793.00 93.00
C 792.56 92.84 792.00 93.00 792.00 93.00
C 787.04 89.21 781.89 85.35 777.00 82.00
C 770.74 78.55 764.12 75.32 757.98 72.02 C 751.83 68.73 742.99 67.28 738.00 63.00
C 738.00 63.00 737.50 62.97 737.00 63.00
C 732.57 63.30 728.42 61.51 724.00 61.00
C 668.73 54.60 608.11 58.57 549.00 58.00 C 489.89 57.43 421.87 57.48 363.00 58.00 C 304.13 58.52 245.35 54.21 192.00 62.00
M 564.00 352.00 
C 584.33 353.97 603.40 362.66 620.00 375.00
C 624.00 377.97 628.07 382.06 631.00 386.00
C 656.20 419.89 661.74 465.55 638.70 501.70 C 615.65 537.84 571.49 552.86 531.98 543.02 C 492.46 533.19 465.46 498.20 460.00 460.00
C 460.00 488.67 460.00 517.33 460.00 546.00
C 460.00 594.48 468.50 655.38 444.23 696.23 C 419.96 737.08 368.38 748.89 326.78 733.22 C 285.17 717.55 260.78 671.83 267.00 629.00 C 273.21 586.16 309.85 551.14 353.00 547.00
C 351.96 546.92 349.02 545.25 348.00 545.00
C 312.98 540.00 289.47 519.11 274.03 486.98 C 258.58 454.84 268.65 414.49 289.00 386.00
C 291.87 381.98 296.10 377.90 300.00 375.00
C 316.79 362.51 334.87 354.21 356.00 353.00
C 317.99 348.35 278.57 321.14 269.22 280.78 C 259.87 240.42 273.30 193.61 313.08 172.08 C 352.86 150.56 413.50 158.00 460.00 158.00
C 506.36 158.00 565.04 150.59 605.08 170.92 C 645.12 191.26 659.60 237.74 651.02 278.02 C 642.44 318.31 604.64 349.23 564.00 352.00 Z"/>
</g>
<g fill="None" fill-opacity="0.0" stroke="#939393" stroke-opacity="1.00" stroke-width="0.3"><path d="
M 74.00 741.00 
C 73.73 739.32 73.17 735.67 73.00 735.00
C 68.10 722.06 65.00 708.22 65.00 694.00
C 59.95 641.81 65.01 587.18 64.00 534.00 C 62.99 480.82 63.09 426.25 64.00 373.00 C 64.91 319.75 60.16 264.27 65.00 212.00
C 64.63 193.48 70.65 174.03 78.00 157.00
C 83.09 145.21 89.25 135.11 97.00 125.00
C 99.61 120.70 102.61 116.67 106.00 113.00
C 112.00 106.51 119.08 96.87 127.00 93.00
C 127.00 93.00 127.68 93.24 128.00 93.00
C 130.70 89.14 134.24 87.42 138.00 85.00
C 154.36 74.45 172.66 64.82 192.00 62.00
C 192.71 61.76 194.27 60.31 195.00 60.00
C 182.46 62.46 166.77 66.91 154.70 73.70 C 142.62 80.48 132.24 86.65 121.75 95.75 C 111.25 104.85 102.91 112.68 95.25 124.25 C 87.60 135.83 80.45 145.63 75.32 159.32 C 70.19 173.02 65.50 187.28 64.00 203.00 C 62.49 218.72 63.05 238.48 63.00 256.00 C 62.95 273.52 63.02 293.03 63.00 311.00 C 62.98 328.97 63.00 347.83 63.00 366.00 C 63.00 384.17 62.98 402.74 63.00 421.00 C 63.02 439.26 62.96 457.70 63.00 476.00 C 63.04 494.30 62.90 513.79 63.00 532.00 C 63.10 550.21 62.78 569.09 63.00 587.00 C 63.22 604.91 62.50 624.68 63.00 642.00 C 63.50 659.32 61.45 680.23 64.00 696.00 C 66.55 711.77 63.76 729.07 74.00 741.00 Z"/>
</g>
<g fill="None" fill-opacity="0.0" stroke="#939393" stroke-opacity="1.00" stroke-width="0.3"><path d="
M 724.00 61.00 
C 728.42 61.51 732.57 63.30 737.00 63.00
C 732.86 60.74 726.92 59.80 722.00 59.00
C 722.53 59.30 723.40 60.77 724.00 61.00 Z"/>
</g>
<g fill="None" fill-opacity="0.0" stroke="#939393" stroke-opacity="1.00" stroke-width="0.3"><path d="
M 777.00 82.00 
C 782.41 84.98 788.31 87.72 792.00 93.00
C 792.00 93.00 792.56 92.84 793.00 93.00
C 802.72 96.50 813.99 112.12 820.00 120.00
C 820.00 120.00 819.78 120.64 820.00 121.00
C 825.18 124.62 828.10 130.86 831.00 136.00
C 836.04 144.95 840.89 153.28 844.00 163.00
C 845.60 166.58 847.19 171.06 848.00 174.00
C 851.22 182.01 852.25 191.13 855.00 199.00
C 855.61 182.97 846.51 163.61 840.31 149.69 C 834.10 135.78 825.16 122.97 815.25 111.75 C 805.33 100.54 793.73 89.80 781.23 82.77 C 768.73 75.74 752.62 63.56 738.00 63.00
C 742.99 67.28 751.83 68.73 757.98 72.02 C 764.12 75.32 770.74 78.55 777.00 82.00 Z"/>
</g>
<g fill="None" fill-opacity="0.0" stroke="#606369" stroke-opacity="1.00" stroke-width="0.3"><path d="
M 792.00 93.00 
C 788.31 87.72 782.41 84.98 777.00 82.00
C 781.89 85.35 787.04 89.21 792.00 93.00 Z"/>
</g>
<g fill="None" fill-opacity="0.0" stroke="#606369" stroke-opacity="1.00" stroke-width="0.3"><path d="
M 128.00 93.00 
C 131.44 90.37 134.73 87.66 138.00 85.00
C 134.24 87.42 130.70 89.14 128.00 93.00 Z"/>
</g>
<g fill="None" fill-opacity="0.0" stroke="#606369" stroke-opacity="1.00" stroke-width="0.3"><path d="
M 106.00 113.00 
C 112.67 106.83 121.84 100.38 127.00 93.00
C 119.08 96.87 112.00 106.51 106.00 113.00 Z"/>
</g>
<g fill="None" fill-opacity="0.0" stroke="#606369" stroke-opacity="1.00" stroke-width="0.3"><path d="
M 820.00 120.00 
C 813.99 112.12 802.72 96.50 793.00 93.00
C 795.14 97.78 802.75 101.70 806.75 106.25 C 810.75 110.79 815.09 116.57 820.00 120.00 Z"/>
</g>
<g fill="None" fill-opacity="0.0" stroke="#606369" stroke-opacity="1.00" stroke-width="0.3"><path d="
M 831.00 136.00 
C 828.10 130.86 825.18 124.62 820.00 121.00
C 823.25 126.25 827.54 131.15 831.00 136.00 Z"/>
</g>
<g fill="None" fill-opacity="0.0" stroke="#606369" stroke-opacity="1.00" stroke-width="0.3"><path d="
M 78.00 157.00 
C 84.14 146.44 90.53 135.67 97.00 125.00
C 89.25 135.11 83.09 145.21 78.00 157.00 Z"/>
</g>
<g fill="None" fill-opacity="0.0" stroke="#F14E1E" stroke-opacity="1.00" stroke-width="0.3"><path d="
M 356.00 353.00 
C 390.42 351.03 424.89 353.56 460.00 352.00
C 460.00 287.33 460.00 222.67 460.00 158.00
C 413.50 158.00 352.86 150.56 313.08 172.08 C 273.30 193.61 259.87 240.42 269.22 280.78 C 278.57 321.14 317.99 348.35 356.00 353.00 Z"/>
</g>
<g fill="None" fill-opacity="0.0" stroke="#FE7161" stroke-opacity="1.00" stroke-width="0.3"><path d="
M 460.00 352.00 
C 490.00 352.00 520.00 352.00 550.00 352.00
C 554.63 352.00 559.38 352.31 564.00 352.00
C 604.64 349.23 642.44 318.31 651.02 278.02 C 659.60 237.74 645.12 191.26 605.08 170.92 C 565.04 150.59 506.36 158.00 460.00 158.00
C 460.00 222.67 460.00 287.33 460.00 352.00 Z"/>
</g>
<g fill="None" fill-opacity="0.0" stroke="#606369" stroke-opacity="1.00" stroke-width="0.3"><path d="
M 848.00 174.00 
C 847.19 171.06 845.60 166.58 844.00 163.00
C 845.19 166.71 846.54 170.37 848.00 174.00 Z"/>
</g>
<g fill="None" fill-opacity="0.0" stroke="#939393" stroke-opacity="1.00" stroke-width="0.3"><path d="
M 856.00 209.00 
C 856.00 206.00 856.02 203.40 855.00 201.00
C 854.65 202.64 854.57 207.06 856.00 209.00 Z"/>
</g>
<g fill="None" fill-opacity="0.0" stroke="#939393" stroke-opacity="1.00" stroke-width="0.3"><path d="
M 855.00 212.00 
C 855.54 291.15 857.60 372.08 856.00 452.00 C 854.40 531.92 859.80 613.95 855.00 693.00
C 855.09 694.56 855.52 695.88 856.00 697.00
C 861.43 689.66 855.20 674.61 857.00 665.00 C 858.80 655.39 856.16 642.27 857.00 632.00 C 857.84 621.73 856.63 610.60 857.00 600.00 C 857.37 589.40 856.83 577.74 857.00 567.00 C 857.17 556.26 856.93 545.82 857.00 535.00 C 857.07 524.18 856.97 512.88 857.00 502.00 C 857.03 491.12 856.99 479.86 857.00 469.00 C 857.01 458.14 857.01 447.84 857.00 437.00 C 856.99 426.16 857.03 414.83 857.00 404.00 C 856.97 393.17 857.07 382.82 857.00 372.00 C 856.93 361.18 857.16 349.78 857.00 339.00 C 856.84 328.22 857.35 316.61 857.00 306.00 C 856.65 295.39 857.79 284.25 857.00 274.00 C 856.21 263.75 858.71 250.55 857.00 241.00 C 855.29 231.45 861.38 217.27 856.00 210.00
C 855.85 210.84 855.33 211.24 855.00 212.00 Z"/>
</g>
<g fill="None" fill-opacity="0.0" stroke="#606369" stroke-opacity="1.00" stroke-width="0.3"><path d="
M 65.00 694.00 
C 65.00 533.44 68.22 372.52 65.00 212.00
C 60.16 264.27 64.91 319.75 64.00 373.00 C 63.09 426.25 62.99 480.82 64.00 534.00 C 65.01 587.18 59.95 641.81 65.00 694.00 Z"/>
</g>
<g fill="None" fill-opacity="0.0" stroke="#606369" stroke-opacity="1.00" stroke-width="0.3"><path d="
M 855.00 693.00 
C 859.80 613.95 854.40 531.92 856.00 452.00 C 857.60 372.08 855.54 291.15 855.00 212.00
C 851.17 220.82 856.75 234.52 855.00 245.00 C 853.25 255.48 855.77 267.94 855.00 279.00 C 854.23 290.06 855.36 302.70 855.00 314.00 C 854.64 325.30 855.16 336.58 855.00 348.00 C 854.84 359.42 855.07 371.54 855.00 383.00 C 854.93 394.46 855.03 405.51 855.00 417.00 C 854.97 428.49 855.01 440.50 855.00 452.00 C 854.99 463.50 855.00 474.50 855.00 486.00 C 855.00 497.50 854.99 509.50 855.00 521.00 C 855.01 532.50 854.98 543.50 855.00 555.00 C 855.02 566.50 854.94 578.50 855.00 590.00 C 855.06 601.50 854.87 612.51 855.00 624.00 C 855.13 635.49 854.72 647.54 855.00 659.00 C 855.28 670.46 854.36 681.59 855.00 693.00 Z"/>
</g>
<g fill="None" fill-opacity="0.0" stroke="#A159FE" stroke-opacity="1.00" stroke-width="0.3"><path d="
M 356.00 353.00 
C 334.87 354.21 316.79 362.51 300.00 375.00
C 296.55 378.01 291.89 382.55 289.00 386.00
C 268.65 414.49 258.58 454.84 274.03 486.98 C 289.47 519.11 312.98 540.00 348.00 545.00
C 351.10 545.44 353.89 545.70 357.00 546.00
C 390.18 549.24 426.04 543.57 460.00 546.00
C 460.00 517.33 460.00 488.67 460.00 460.00
C 460.00 453.33 460.00 446.67 460.00 440.00
C 460.00 410.67 460.00 381.33 460.00 352.00
C 424.89 353.56 390.42 351.03 356.00 353.00 Z"/>
</g>
<g fill="None" fill-opacity="0.0" stroke="#2D2F38" stroke-opacity="1.00" stroke-width="0.3"><path d="
M 460.00 440.00 
C 464.48 393.66 504.33 356.42 550.00 352.00
C 520.00 352.00 490.00 352.00 460.00 352.00
C 460.00 381.33 460.00 410.67 460.00 440.00 Z"/>
</g>
<g fill="None" fill-opacity="0.0" stroke="#1ABCFD" stroke-opacity="1.00" stroke-width="0.3"><path d="
M 460.00 440.00 
C 460.00 446.67 460.00 453.33 460.00 460.00
C 465.46 498.20 492.46 533.19 531.98 543.02 C 571.49 552.86 615.65 537.84 638.70 501.70 C 661.74 465.55 656.20 419.89 631.00 386.00
C 627.94 382.49 623.46 378.01 620.00 375.00
C 603.40 362.66 584.33 353.97 564.00 352.00
C 559.38 352.31 554.63 352.00 550.00 352.00
C 504.33 356.42 464.48 393.66 460.00 440.00 Z"/>
</g>
<g fill="None" fill-opacity="0.0" stroke="#606369" stroke-opacity="1.00" stroke-width="0.3"><path d="
M 289.00 386.00 
C 291.89 382.55 296.55 378.01 300.00 375.00
C 296.10 377.90 291.87 381.98 289.00 386.00 Z"/>
</g>
<g fill="None" fill-opacity="0.0" stroke="#606369" stroke-opacity="1.00" stroke-width="0.3"><path d="
M 631.00 386.00 
C 628.07 382.06 624.00 377.97 620.00 375.00
C 623.46 378.01 627.94 382.49 631.00 386.00 Z"/>
</g>
<g fill="None" fill-opacity="0.0" stroke="#606369" stroke-opacity="1.00" stroke-width="0.3"><path d="
M 353.00 547.00 
C 354.50 546.86 356.08 546.16 357.00 546.00
C 353.89 545.70 351.10 545.44 348.00 545.00
C 349.02 545.25 351.96 546.92 353.00 547.00 Z"/>
</g>
<g fill="None" fill-opacity="0.0" stroke="#0BCE83" stroke-opacity="1.00" stroke-width="0.3"><path d="
M 353.00 547.00 
C 309.85 551.14 273.21 586.16 267.00 629.00 C 260.78 671.83 285.17 717.55 326.78 733.22 C 368.38 748.89 419.96 737.08 444.23 696.23 C 468.50 655.38 460.00 594.48 460.00 546.00
C 426.04 543.57 390.18 549.24 357.00 546.00
C 356.08 546.16 354.50 546.86 353.00 547.00 Z"/>
</g>
<g fill="None" fill-opacity="0.0" stroke="#939393" stroke-opacity="1.00" stroke-width="0.3"><path d="
M 855.00 705.00 
C 855.84 703.22 856.83 699.59 856.00 698.00
C 855.14 699.97 853.80 703.18 855.00 705.00 Z"/>
</g>
<g fill="None" fill-opacity="0.0" stroke="#939393" stroke-opacity="1.00" stroke-width="0.3"><path d="
M 840.00 753.00 
C 839.87 753.47 840.02 754.50 840.00 755.00
C 846.82 739.75 855.00 723.64 855.00 706.00
C 851.94 713.02 850.67 722.94 848.78 730.78 C 846.89 738.62 842.10 745.35 840.00 753.00 Z"/>
</g>
<g fill="None" fill-opacity="0.0" stroke="#606369" stroke-opacity="1.00" stroke-width="0.3"><path d="
M 74.00 741.00 
C 74.00 741.00 73.96 741.50 74.00 742.00
C 74.24 742.49 75.76 742.66 76.00 743.00
C 75.09 740.28 74.02 737.70 73.00 735.00
C 73.17 735.67 73.73 739.32 74.00 741.00 Z"/>
</g>
<g fill="None" fill-opacity="0.0" stroke="#939393" stroke-opacity="1.00" stroke-width="0.3"><path d="
M 82.00 759.00 
C 81.06 756.32 80.03 753.62 79.00 751.00
C 77.93 748.28 76.91 745.73 76.00 743.00
C 75.76 742.66 74.24 742.49 74.00 742.00
C 74.45 748.04 79.22 754.09 82.00 759.00 Z"/>
</g>
<g fill="None" fill-opacity="0.0" stroke="#62656A" stroke-opacity="1.00" stroke-width="0.3"><path d="
M 82.00 759.00 
C 82.39 760.10 82.49 760.91 83.00 762.00
C 84.45 764.27 87.04 767.13 89.00 769.00
C 86.77 762.82 82.01 756.65 79.00 751.00
C 80.03 753.62 81.06 756.32 82.00 759.00 Z"/>
</g>
<g fill="None" fill-opacity="0.0" stroke="#6D6F74" stroke-opacity="1.00" stroke-width="0.3"><path d="
M 833.00 766.00 
C 833.97 764.60 835.97 763.33 837.00 762.00
C 838.43 759.51 839.90 758.06 840.00 755.00
C 840.02 754.50 839.87 753.47 840.00 753.00
C 837.63 757.08 835.26 761.58 833.00 766.00 Z"/>
</g>
<g fill="None" fill-opacity="0.0" stroke="#939393" stroke-opacity="1.00" stroke-width="0.3"><path d="
M 200.00 847.00 
C 195.50 843.35 187.29 843.50 181.67 841.33 C 176.05 839.15 169.72 837.24 164.00 835.00
C 153.88 831.03 144.59 825.39 136.00 819.00
C 127.92 814.20 122.04 808.02 115.00 802.00
C 109.65 797.43 105.26 792.39 101.00 787.00
C 99.78 785.45 98.96 783.48 98.00 782.00
C 94.59 777.85 91.05 775.22 89.00 770.00
C 89.00 770.00 89.16 769.44 89.00 769.00
C 87.04 767.13 84.45 764.27 83.00 762.00
C 89.71 776.38 100.71 789.37 112.25 800.75 C 123.78 812.13 135.78 823.37 150.30 829.70 C 164.83 836.02 183.41 848.11 200.00 847.00 Z"/>
</g>
<g fill="None" fill-opacity="0.0" stroke="#939393" stroke-opacity="1.00" stroke-width="0.3"><path d="
M 833.00 766.00 
C 827.75 776.28 820.61 785.09 813.00 794.00
C 810.22 797.26 807.16 800.22 804.00 803.00
C 792.10 815.25 775.83 826.71 760.00 833.00
C 756.62 834.83 752.77 836.23 750.00 837.00
C 739.96 841.48 726.19 846.05 715.00 848.00
C 741.01 847.28 767.86 831.80 788.75 817.75 C 809.65 803.71 824.75 783.30 837.00 762.00
C 835.97 763.33 833.97 764.60 833.00 766.00 Z"/>
</g>
<g fill="None" fill-opacity="0.0" stroke="#606369" stroke-opacity="1.00" stroke-width="0.3"><path d="
M 98.00 782.00 
C 95.39 777.95 92.38 773.24 89.00 770.00
C 91.05 775.22 94.59 777.85 98.00 782.00 Z"/>
</g>
<g fill="None" fill-opacity="0.0" stroke="#606369" stroke-opacity="1.00" stroke-width="0.3"><path d="
M 115.00 802.00 
C 110.23 797.23 105.53 791.90 101.00 787.00
C 105.26 792.39 109.65 797.43 115.00 802.00 Z"/>
</g>
<g fill="None" fill-opacity="0.0" stroke="#606369" stroke-opacity="1.00" stroke-width="0.3"><path d="
M 804.00 803.00 
C 807.16 800.22 810.22 797.26 813.00 794.00
C 810.11 796.89 806.90 800.01 804.00 803.00 Z"/>
</g>
<g fill="None" fill-opacity="0.0" stroke="#606369" stroke-opacity="1.00" stroke-width="0.3"><path d="
M 164.00 835.00 
C 154.72 830.05 145.24 824.49 136.00 819.00
C 144.59 825.39 153.88 831.03 164.00 835.00 Z"/>
</g>
<g fill="None" fill-opacity="0.0" stroke="#606369" stroke-opacity="1.00" stroke-width="0.3"><path d="
M 750.00 837.00 
C 752.77 836.23 756.62 834.83 760.00 833.00
C 756.64 834.33 753.35 835.50 750.00 837.00 Z"/>
</g>
<g fill="None" fill-opacity="0.0" stroke="#939393" stroke-opacity="1.00" stroke-width="0.3"><path d="
M 201.00 847.00 
C 205.52 848.97 210.51 849.00 216.00 849.00
C 213.40 847.86 203.15 845.62 201.00 847.00 Z"/>
</g>
<g fill="None" fill-opacity="0.0" stroke="#939393" stroke-opacity="1.00" stroke-width="0.3"><path d="
M 217.00 849.00 
C 232.38 854.43 251.52 848.18 268.00 850.00 C 284.48 851.82 302.14 849.19 319.00 850.00 C 335.86 850.81 353.98 849.63 371.00 850.00 C 388.02 850.37 404.91 849.84 422.00 850.00 C 439.09 850.16 456.89 849.94 474.00 850.00 C 491.11 850.06 507.92 850.00 525.00 850.00
C 524.77 849.84 525.14 848.04 525.00 848.00
C 517.41 848.44 511.92 848.80 503.00 849.00 C 494.08 849.20 488.75 847.72 481.25 848.80 C 473.74 849.88 462.67 848.05 456.25 848.20 C 449.83 848.35 438.13 849.72 431.25 848.80 C 424.37 847.88 414.63 849.58 406.08 848.93 C 397.54 848.29 394.98 848.29 386.00 849.00 C 377.02 849.71 369.93 847.52 362.75 848.40 C 355.58 849.27 344.20 848.43 337.75 848.60 C 331.30 848.78 319.48 848.78 312.25 848.20 C 305.02 847.62 297.83 849.36 289.00 849.00 C 280.18 848.64 276.93 847.41 269.00 849.00 C 261.07 850.59 250.20 846.21 244.25 848.20 C 238.30 850.19 221.68 845.32 217.00 849.00 Z"/>
</g>
<g fill="None" fill-opacity="0.0" stroke="#606369" stroke-opacity="1.00" stroke-width="0.3"><path d="
M 525.00 850.00 
C 525.00 850.00 525.50 850.00 526.00 850.00
C 528.34 848.27 537.30 848.18 540.00 848.00
C 535.11 847.72 529.89 847.72 525.00 848.00
C 525.14 848.04 524.77 849.84 525.00 850.00 Z"/>
</g>
<g fill="None" fill-opacity="0.0" stroke="#939393" stroke-opacity="1.00" stroke-width="0.3"><path d="
M 526.00 850.00 
C 555.55 850.03 587.71 851.53 617.00 850.00 C 646.29 848.47 677.28 854.62 705.00 849.00
C 649.80 849.33 593.61 851.07 540.00 848.00
C 537.30 848.18 528.34 848.27 526.00 850.00 Z"/>
</g>
<g fill="#F0F0F0" fill-opacity="1.00" stroke="None">
<path d="
M 0.00 920.00 
L 920.00 920.00
L 920.00 0.00
L 0.00 0.00
L 0.00 920.00
M 696.00 56.00 
C 699.15 56.00 702.57 56.71 705.00 57.00
C 711.23 57.75 716.37 58.08 722.00 59.00
C 726.92 59.80 732.86 60.74 737.00 63.00
C 737.50 62.97 738.00 63.00 738.00 63.00
C 752.62 63.56 768.73 75.74 781.23 82.77 C 793.73 89.80 805.33 100.54 815.25 111.75 C 825.16 122.97 834.10 135.78 840.31 149.69 C 846.51 163.61 855.61 182.97 855.00 199.00
C 854.98 199.50 854.82 200.58 855.00 201.00
C 856.02 203.40 856.00 206.00 856.00 209.00
C 856.00 209.50 856.00 210.00 856.00 210.00
C 861.38 217.27 855.29 231.45 857.00 241.00 C 858.71 250.55 856.21 263.75 857.00 274.00 C 857.79 284.25 856.65 295.39 857.00 306.00 C 857.35 316.61 856.84 328.22 857.00 339.00 C 857.16 349.78 856.93 361.18 857.00 372.00 C 857.07 382.82 856.97 393.17 857.00 404.00 C 857.03 414.83 856.99 426.16 857.00 437.00 C 857.01 447.84 857.01 458.14 857.00 469.00 C 856.99 479.86 857.03 491.12 857.00 502.00 C 856.97 512.88 857.07 524.18 857.00 535.00 C 856.93 545.82 857.17 556.26 857.00 567.00 C 856.83 577.74 857.37 589.40 857.00 600.00 C 856.63 610.60 857.84 621.73 857.00 632.00 C 856.16 642.27 858.80 655.39 857.00 665.00 C 855.20 674.61 861.43 689.66 856.00 697.00
C 856.18 697.42 856.00 698.00 856.00 698.00
C 856.83 699.59 855.84 703.22 855.00 705.00
C 855.23 705.35 855.00 706.00 855.00 706.00
C 855.00 723.64 846.82 739.75 840.00 755.00
C 839.90 758.06 838.43 759.51 837.00 762.00
C 824.75 783.30 809.65 803.71 788.75 817.75 C 767.86 831.80 741.01 847.28 715.00 848.00
C 711.75 848.09 708.97 848.20 705.00 849.00
C 677.28 854.62 646.29 848.47 617.00 850.00 C 587.71 851.53 555.55 850.03 526.00 850.00
C 525.50 850.00 525.00 850.00 525.00 850.00
C 507.92 850.00 491.11 850.06 474.00 850.00 C 456.89 849.94 439.09 850.16 422.00 850.00 C 404.91 849.84 388.02 850.37 371.00 850.00 C 353.98 849.63 335.86 850.81 319.00 850.00 C 302.14 849.19 284.48 851.82 268.00 850.00 C 251.52 848.18 232.38 854.43 217.00 849.00
C 216.56 848.84 216.00 849.00 216.00 849.00
C 210.51 849.00 205.52 848.97 201.00 847.00
C 200.65 847.23 200.00 847.00 200.00 847.00
C 183.41 848.11 164.83 836.02 150.30 829.70 C 135.78 823.37 123.78 812.13 112.25 800.75 C 100.71 789.37 89.71 776.38 83.00 762.00
C 82.49 760.91 82.39 760.10 82.00 759.00
C 79.22 754.09 74.45 748.04 74.00 742.00
C 73.96 741.50 74.00 741.00 74.00 741.00
C 63.76 729.07 66.55 711.77 64.00 696.00 C 61.45 680.23 63.50 659.32 63.00 642.00 C 62.50 624.68 63.22 604.91 63.00 587.00 C 62.78 569.09 63.10 550.21 63.00 532.00 C 62.90 513.79 63.04 494.30 63.00 476.00 C 62.96 457.70 63.02 439.26 63.00 421.00 C 62.98 402.74 63.00 384.17 63.00 366.00 C 63.00 347.83 62.98 328.97 63.00 311.00 C 63.02 293.03 62.95 273.52 63.00 256.00 C 63.05 238.48 62.49 218.72 64.00 203.00 C 65.50 187.28 70.19 173.02 75.32 159.32 C 80.45 145.63 87.60 135.83 95.25 124.25 C 102.91 112.68 111.25 104.85 121.75 95.75 C 132.24 86.65 142.62 80.48 154.70 73.70 C 166.77 66.91 182.46 62.46 195.00 60.00
C 217.99 50.13 244.34 57.95 271.00 56.00 C 297.66 54.05 328.42 56.88 356.00 56.00 C 383.58 55.12 413.01 56.39 441.00 56.00 C 468.99 55.61 497.83 56.17 526.00 56.00 C 554.17 55.83 582.75 56.06 611.00 56.00 C 639.25 55.94 667.73 56.00 696.00 56.00 Z"/>
</g>
<g fill="#6E7075" fill-opacity="1.00" stroke="None">
<path d="
M 195.00 60.00 
C 194.27 60.31 192.71 61.76 192.00 62.00
C 245.35 54.21 304.13 58.52 363.00 58.00 C 421.87 57.48 489.89 57.43 549.00 58.00 C 608.11 58.57 668.73 54.60 724.00 61.00
C 723.40 60.77 722.53 59.30 722.00 59.00
C 716.37 58.08 711.23 57.75 705.00 57.00
C 703.00 56.97 698.21 56.21 696.00 56.00
C 667.73 56.00 639.25 55.94 611.00 56.00 C 582.75 56.06 554.17 55.83 526.00 56.00 C 497.83 56.17 468.99 55.61 441.00 56.00 C 413.01 56.39 383.58 55.12 356.00 56.00 C 328.42 56.88 297.66 54.05 271.00 56.00 C 244.34 57.95 217.99 50.13 195.00 60.00 Z"/>
</g>
<g fill="#939393" fill-opacity="1.00" stroke="None">
<path d="
M 705.00 57.00 
C 702.57 56.71 699.15 56.00 696.00 56.00
C 698.21 56.21 703.00 56.97 705.00 57.00 Z"/>
</g>
<g fill="#2C2E37" fill-opacity="1.00" stroke="None">
<path d="
M 192.00 62.00 
C 172.66 64.82 154.36 74.45 138.00 85.00
C 134.73 87.66 131.44 90.37 128.00 93.00
C 127.68 93.24 127.00 93.00 127.00 93.00
C 121.84 100.38 112.67 106.83 106.00 113.00
C 102.61 116.67 99.61 120.70 97.00 125.00
C 90.53 135.67 84.14 146.44 78.00 157.00
C 70.65 174.03 64.63 193.48 65.00 212.00
C 68.22 372.52 65.00 533.44 65.00 694.00
C 65.00 708.22 68.10 722.06 73.00 735.00
C 74.02 737.70 75.09 740.28 76.00 743.00
C 76.91 745.73 77.93 748.28 79.00 751.00
C 82.01 756.65 86.77 762.82 89.00 769.00
C 89.16 769.44 89.00 770.00 89.00 770.00
C 92.38 773.24 95.39 777.95 98.00 782.00
C 98.96 783.48 99.78 785.45 101.00 787.00
C 105.53 791.90 110.23 797.23 115.00 802.00
C 122.04 808.02 127.92 814.20 136.00 819.00
C 145.24 824.49 154.72 830.05 164.00 835.00
C 169.72 837.24 176.05 839.15 181.67 841.33 C 187.29 843.50 195.50 843.35 200.00 847.00
C 200.00 847.00 200.65 847.23 201.00 847.00
C 203.15 845.62 213.40 847.86 216.00 849.00
C 216.00 849.00 216.56 848.84 217.00 849.00
C 221.68 845.32 238.30 850.19 244.25 848.20 C 250.20 846.21 261.07 850.59 269.00 849.00 C 276.93 847.41 280.18 848.64 289.00 849.00 C 297.83 849.36 305.02 847.62 312.25 848.20 C 319.48 848.78 331.30 848.78 337.75 848.60 C 344.20 848.43 355.58 849.27 362.75 848.40 C 369.93 847.52 377.02 849.71 386.00 849.00 C 394.98 848.29 397.54 848.29 406.08 848.93 C 414.63 849.58 424.37 847.88 431.25 848.80 C 438.13 849.72 449.83 848.35 456.25 848.20 C 462.67 848.05 473.74 849.88 481.25 848.80 C 488.75 847.72 494.08 849.20 503.00 849.00 C 511.92 848.80 517.41 848.44 525.00 848.00
C 529.89 847.72 535.11 847.72 540.00 848.00
C 593.61 851.07 649.80 849.33 705.00 849.00
C 708.97 848.20 711.75 848.09 715.00 848.00
C 726.19 846.05 739.96 841.48 750.00 837.00
C 753.35 835.50 756.64 834.33 760.00 833.00
C 775.83 826.71 792.10 815.25 804.00 803.00
C 806.90 800.01 810.11 796.89 813.00 794.00
C 820.61 785.09 827.75 776.28 833.00 766.00
C 835.26 761.58 837.63 757.08 840.00 753.00
C 842.10 745.35 846.89 738.62 848.78 730.78 C 850.67 722.94 851.94 713.02 855.00 706.00
C 855.00 706.00 855.23 705.35 855.00 705.00
C 853.80 703.18 855.14 699.97 856.00 698.00
C 856.00 698.00 856.18 697.42 856.00 697.00
C 855.52 695.88 855.09 694.56 855.00 693.00
C 854.36 681.59 855.28 670.46 855.00 659.00 C 854.72 647.54 855.13 635.49 855.00 624.00 C 854.87 612.51 855.06 601.50 855.00 590.00 C 854.94 578.50 855.02 566.50 855.00 555.00 C 854.98 543.50 855.01 532.50 855.00 521.00 C 854.99 509.50 855.00 497.50 855.00 486.00 C 855.00 474.50 854.99 463.50 855.00 452.00 C 855.01 440.50 854.97 428.49 855.00 417.00 C 855.03 405.51 854.93 394.46 855.00 383.00 C 855.07 371.54 854.84 359.42 855.00 348.00 C 855.16 336.58 854.64 325.30 855.00 314.00 C 855.36 302.70 854.23 290.06 855.00 279.00 C 855.77 267.94 853.25 255.48 855.00 245.00 C 856.75 234.52 851.17 220.82 855.00 212.00
C 855.33 211.24 855.85 210.84 856.00 210.00
C 856.00 210.00 856.00 209.50 856.00 209.00
C 854.57 207.06 854.65 202.64 855.00 201.00
C 854.82 200.58 854.98 199.50 855.00 199.00
C 852.25 191.13 851.22 182.01 848.00 174.00
C 846.54 170.37 845.19 166.71 844.00 163.00
C 840.89 153.28 836.04 144.95 831.00 136.00
C 827.54 131.15 823.25 126.25 820.00 121.00
C 819.78 120.64 820.00 120.00 820.00 120.00
C 815.09 116.57 810.75 110.79 806.75 106.25 C 802.75 101.70 795.14 97.78 793.00 93.00
C 792.56 92.84 792.00 93.00 792.00 93.00
C 787.04 89.21 781.89 85.35 777.00 82.00
C 770.74 78.55 764.12 75.32 757.98 72.02 C 751.83 68.73 742.99 67.28 738.00 63.00
C 738.00 63.00 737.50 62.97 737.00 63.00
C 732.57 63.30 728.42 61.51 724.00 61.00
C 668.73 54.60 608.11 58.57 549.00 58.00 C 489.89 57.43 421.87 57.48 363.00 58.00 C 304.13 58.52 245.35 54.21 192.00 62.00
M 564.00 352.00 
C 584.33 353.97 603.40 362.66 620.00 375.00
C 624.00 377.97 628.07 382.06 631.00 386.00
C 656.20 419.89 661.74 465.55 638.70 501.70 C 615.65 537.84 571.49 552.86 531.98 543.02 C 492.46 533.19 465.46 498.20 460.00 460.00
C 460.00 488.67 460.00 517.33 460.00 546.00
C 460.00 594.48 468.50 655.38 444.23 696.23 C 419.96 737.08 368.38 748.89 326.78 733.22 C 285.17 717.55 260.78 671.83 267.00 629.00 C 273.21 586.16 309.85 551.14 353.00 547.00
C 351.96 546.92 349.02 545.25 348.00 545.00
C 312.98 540.00 289.47 519.11 274.03 486.98 C 258.58 454.84 268.65 414.49 289.00 386.00
C 291.87 381.98 296.10 377.90 300.00 375.00
C 316.79 362.51 334.87 354.21 356.00 353.00
C 317.99 348.35 278.57 321.14 269.22 280.78 C 259.87 240.42 273.30 193.61 313.08 172.08 C 352.86 150.56 413.50 158.00 460.00 158.00
C 506.36 158.00 565.04 150.59 605.08 170.92 C 645.12 191.26 659.60 237.74 651.02 278.02 C 642.44 318.31 604.64 349.23 564.00 352.00 Z"/>
</g>
<g fill="#939393" fill-opacity="1.00" stroke="None">
<path d="
M 74.00 741.00 
C 73.73 739.32 73.17 735.67 73.00 735.00
C 68.10 722.06 65.00 708.22 65.00 694.00
C 59.95 641.81 65.01 587.18 64.00 534.00 C 62.99 480.82 63.09 426.25 64.00 373.00 C 64.91 319.75 60.16 264.27 65.00 212.00
C 64.63 193.48 70.65 174.03 78.00 157.00
C 83.09 145.21 89.25 135.11 97.00 125.00
C 99.61 120.70 102.61 116.67 106.00 113.00
C 112.00 106.51 119.08 96.87 127.00 93.00
C 127.00 93.00 127.68 93.24 128.00 93.00
C 130.70 89.14 134.24 87.42 138.00 85.00
C 154.36 74.45 172.66 64.82 192.00 62.00
C 192.71 61.76 194.27 60.31 195.00 60.00
C 182.46 62.46 166.77 66.91 154.70 73.70 C 142.62 80.48 132.24 86.65 121.75 95.75 C 111.25 104.85 102.91 112.68 95.25 124.25 C 87.60 135.83 80.45 145.63 75.32 159.32 C 70.19 173.02 65.50 187.28 64.00 203.00 C 62.49 218.72 63.05 238.48 63.00 256.00 C 62.95 273.52 63.02 293.03 63.00 311.00 C 62.98 328.97 63.00 347.83 63.00 366.00 C 63.00 384.17 62.98 402.74 63.00 421.00 C 63.02 439.26 62.96 457.70 63.00 476.00 C 63.04 494.30 62.90 513.79 63.00 532.00 C 63.10 550.21 62.78 569.09 63.00 587.00 C 63.22 604.91 62.50 624.68 63.00 642.00 C 63.50 659.32 61.45 680.23 64.00 696.00 C 66.55 711.77 63.76 729.07 74.00 741.00 Z"/>
</g>
<g fill="#939393" fill-opacity="1.00" stroke="None">
<path d="
M 724.00 61.00 
C 728.42 61.51 732.57 63.30 737.00 63.00
C 732.86 60.74 726.92 59.80 722.00 59.00
C 722.53 59.30 723.40 60.77 724.00 61.00 Z"/>
</g>
<g fill="#939393" fill-opacity="1.00" stroke="None">
<path d="
M 777.00 82.00 
C 782.41 84.98 788.31 87.72 792.00 93.00
C 792.00 93.00 792.56 92.84 793.00 93.00
C 802.72 96.50 813.99 112.12 820.00 120.00
C 820.00 120.00 819.78 120.64 820.00 121.00
C 825.18 124.62 828.10 130.86 831.00 136.00
C 836.04 144.95 840.89 153.28 844.00 163.00
C 845.60 166.58 847.19 171.06 848.00 174.00
C 851.22 182.01 852.25 191.13 855.00 199.00
C 855.61 182.97 846.51 163.61 840.31 149.69 C 834.10 135.78 825.16 122.97 815.25 111.75 C 805.33 100.54 793.73 89.80 781.23 82.77 C 768.73 75.74 752.62 63.56 738.00 63.00
C 742.99 67.28 751.83 68.73 757.98 72.02 C 764.12 75.32 770.74 78.55 777.00 82.00 Z"/>
</g>
<g fill="#606369" fill-opacity="1.00" stroke="None">
<path d="
M 792.00 93.00 
C 788.31 87.72 782.41 84.98 777.00 82.00
C 781.89 85.35 787.04 89.21 792.00 93.00 Z"/>
</g>
<g fill="#606369" fill-opacity="1.00" stroke="None">
<path d="
M 128.00 93.00 
C 131.44 90.37 134.73 87.66 138.00 85.00
C 134.24 87.42 130.70 89.14 128.00 93.00 Z"/>
</g>
<g fill="#606369" fill-opacity="1.00" stroke="None">
<path d="
M 106.00 113.00 
C 112.67 106.83 121.84 100.38 127.00 93.00
C 119.08 96.87 112.00 106.51 106.00 113.00 Z"/>
</g>
<g fill="#606369" fill-opacity="1.00" stroke="None">
<path d="
M 820.00 120.00 
C 813.99 112.12 802.72 96.50 793.00 93.00
C 795.14 97.78 802.75 101.70 806.75 106.25 C 810.75 110.79 815.09 116.57 820.00 120.00 Z"/>
</g>
<g fill="#606369" fill-opacity="1.00" stroke="None">
<path d="
M 831.00 136.00 
C 828.10 130.86 825.18 124.62 820.00 121.00
C 823.25 126.25 827.54 131.15 831.00 136.00 Z"/>
</g>
<g fill="#606369" fill-opacity="1.00" stroke="None">
<path d="
M 78.00 157.00 
C 84.14 146.44 90.53 135.67 97.00 125.00
C 89.25 135.11 83.09 145.21 78.00 157.00 Z"/>
</g>
<g fill="#F14E1E" fill-opacity="1.00" stroke="None">
<path d="
M 356.00 353.00 
C 390.42 351.03 424.89 353.56 460.00 352.00
C 460.00 287.33 460.00 222.67 460.00 158.00
C 413.50 158.00 352.86 150.56 313.08 172.08 C 273.30 193.61 259.87 240.42 269.22 280.78 C 278.57 321.14 317.99 348.35 356.00 353.00 Z"/>
</g>
<g fill="#FE7161" fill-opacity="1.00" stroke="None">
<path d="
M 460.00 352.00 
C 490.00 352.00 520.00 352.00 550.00 352.00
C 554.63 352.00 559.38 352.31 564.00 352.00
C 604.64 349.23 642.44 318.31 651.02 278.02 C 659.60 237.74 645.12 191.26 605.08 170.92 C 565.04 150.59 506.36 158.00 460.00 158.00
C 460.00 222.67 460.00 287.33 460.00 352.00 Z"/>
</g>
<g fill="#606369" fill-opacity="1.00" stroke="None">
<path d="
M 848.00 174.00 
C 847.19 171.06 845.60 166.58 844.00 163.00
C 845.19 166.71 846.54 170.37 848.00 174.00 Z"/>
</g>
<g fill="#939393" fill-opacity="1.00" stroke="None">
<path d="
M 856.00 209.00 
C 856.00 206.00 856.02 203.40 855.00 201.00
C 854.65 202.64 854.57 207.06 856.00 209.00 Z"/>
</g>
<g fill="#939393" fill-opacity="1.00" stroke="None">
<path d="
M 855.00 212.00 
C 855.54 291.15 857.60 372.08 856.00 452.00 C 854.40 531.92 859.80 613.95 855.00 693.00
C 855.09 694.56 855.52 695.88 856.00 697.00
C 861.43 689.66 855.20 674.61 857.00 665.00 C 858.80 655.39 856.16 642.27 857.00 632.00 C 857.84 621.73 856.63 610.60 857.00 600.00 C 857.37 589.40 856.83 577.74 857.00 567.00 C 857.17 556.26 856.93 545.82 857.00 535.00 C 857.07 524.18 856.97 512.88 857.00 502.00 C 857.03 491.12 856.99 479.86 857.00 469.00 C 857.01 458.14 857.01 447.84 857.00 437.00 C 856.99 426.16 857.03 414.83 857.00 404.00 C 856.97 393.17 857.07 382.82 857.00 372.00 C 856.93 361.18 857.16 349.78 857.00 339.00 C 856.84 328.22 857.35 316.61 857.00 306.00 C 856.65 295.39 857.79 284.25 857.00 274.00 C 856.21 263.75 858.71 250.55 857.00 241.00 C 855.29 231.45 861.38 217.27 856.00 210.00
C 855.85 210.84 855.33 211.24 855.00 212.00 Z"/>
</g>
<g fill="#606369" fill-opacity="1.00" stroke="None">
<path d="
M 65.00 694.00 
C 65.00 533.44 68.22 372.52 65.00 212.00
C 60.16 264.27 64.91 319.75 64.00 373.00 C 63.09 426.25 62.99 480.82 64.00 534.00 C 65.01 587.18 59.95 641.81 65.00 694.00 Z"/>
</g>
<g fill="#606369" fill-opacity="1.00" stroke="None">
<path d="
M 855.00 693.00 
C 859.80 613.95 854.40 531.92 856.00 452.00 C 857.60 372.08 855.54 291.15 855.00 212.00
C 851.17 220.82 856.75 234.52 855.00 245.00 C 853.25 255.48 855.77 267.94 855.00 279.00 C 854.23 290.06 855.36 302.70 855.00 314.00 C 854.64 325.30 855.16 336.58 855.00 348.00 C 854.84 359.42 855.07 371.54 855.00 383.00 C 854.93 394.46 855.03 405.51 855.00 417.00 C 854.97 428.49 855.01 440.50 855.00 452.00 C 854.99 463.50 855.00 474.50 855.00 486.00 C 855.00 497.50 854.99 509.50 855.00 521.00 C 855.01 532.50 854.98 543.50 855.00 555.00 C 855.02 566.50 854.94 578.50 855.00 590.00 C 855.06 601.50 854.87 612.51 855.00 624.00 C 855.13 635.49 854.72 647.54 855.00 659.00 C 855.28 670.46 854.36 681.59 855.00 693.00 Z"/>
</g>
<g fill="#A159FE" fill-opacity="1.00" stroke="None">
<path d="
M 356.00 353.00 
C 334.87 354.21 316.79 362.51 300.00 375.00
C 296.55 378.01 291.89 382.55 289.00 386.00
C 268.65 414.49 258.58 454.84 274.03 486.98 C 289.47 519.11 312.98 540.00 348.00 545.00
C 351.10 545.44 353.89 545.70 357.00 546.00
C 390.18 549.24 426.04 543.57 460.00 546.00
C 460.00 517.33 460.00 488.67 460.00 460.00
C 460.00 453.33 460.00 446.67 460.00 440.00
C 460.00 410.67 460.00 381.33 460.00 352.00
C 424.89 353.56 390.42 351.03 356.00 353.00 Z"/>
</g>
<g fill="#2D2F38" fill-opacity="1.00" stroke="None">
<path d="
M 460.00 440.00 
C 464.48 393.66 504.33 356.42 550.00 352.00
C 520.00 352.00 490.00 352.00 460.00 352.00
C 460.00 381.33 460.00 410.67 460.00 440.00 Z"/>
</g>
<g fill="#1ABCFD" fill-opacity="1.00" stroke="None">
<path d="
M 460.00 440.00 
C 460.00 446.67 460.00 453.33 460.00 460.00
C 465.46 498.20 492.46 533.19 531.98 543.02 C 571.49 552.86 615.65 537.84 638.70 501.70 C 661.74 465.55 656.20 419.89 631.00 386.00
C 627.94 382.49 623.46 378.01 620.00 375.00
C 603.40 362.66 584.33 353.97 564.00 352.00
C 559.38 352.31 554.63 352.00 550.00 352.00
C 504.33 356.42 464.48 393.66 460.00 440.00 Z"/>
</g>
<g fill="#606369" fill-opacity="1.00" stroke="None">
<path d="
M 289.00 386.00 
C 291.89 382.55 296.55 378.01 300.00 375.00
C 296.10 377.90 291.87 381.98 289.00 386.00 Z"/>
</g>
<g fill="#606369" fill-opacity="1.00" stroke="None">
<path d="
M 631.00 386.00 
C 628.07 382.06 624.00 377.97 620.00 375.00
C 623.46 378.01 627.94 382.49 631.00 386.00 Z"/>
</g>
<g fill="#606369" fill-opacity="1.00" stroke="None">
<path d="
M 353.00 547.00 
C 354.50 546.86 356.08 546.16 357.00 546.00
C 353.89 545.70 351.10 545.44 348.00 545.00
C 349.02 545.25 351.96 546.92 353.00 547.00 Z"/>
</g>
<g fill="#0BCE83" fill-opacity="1.00" stroke="None">
<path d="
M 353.00 547.00 
C 309.85 551.14 273.21 586.16 267.00 629.00 C 260.78 671.83 285.17 717.55 326.78 733.22 C 368.38 748.89 419.96 737.08 444.23 696.23 C 468.50 655.38 460.00 594.48 460.00 546.00
C 426.04 543.57 390.18 549.24 357.00 546.00
C 356.08 546.16 354.50 546.86 353.00 547.00 Z"/>
</g>
<g fill="#939393" fill-opacity="1.00" stroke="None">
<path d="
M 855.00 705.00 
C 855.84 703.22 856.83 699.59 856.00 698.00
C 855.14 699.97 853.80 703.18 855.00 705.00 Z"/>
</g>
<g fill="#939393" fill-opacity="1.00" stroke="None">
<path d="
M 840.00 753.00 
C 839.87 753.47 840.02 754.50 840.00 755.00
C 846.82 739.75 855.00 723.64 855.00 706.00
C 851.94 713.02 850.67 722.94 848.78 730.78 C 846.89 738.62 842.10 745.35 840.00 753.00 Z"/>
</g>
<g fill="#606369" fill-opacity="1.00" stroke="None">
<path d="
M 74.00 741.00 
C 74.00 741.00 73.96 741.50 74.00 742.00
C 74.24 742.49 75.76 742.66 76.00 743.00
C 75.09 740.28 74.02 737.70 73.00 735.00
C 73.17 735.67 73.73 739.32 74.00 741.00 Z"/>
</g>
<g fill="#939393" fill-opacity="1.00" stroke="None">
<path d="
M 82.00 759.00 
C 81.06 756.32 80.03 753.62 79.00 751.00
C 77.93 748.28 76.91 745.73 76.00 743.00
C 75.76 742.66 74.24 742.49 74.00 742.00
C 74.45 748.04 79.22 754.09 82.00 759.00 Z"/>
</g>
<g fill="#62656A" fill-opacity="1.00" stroke="None">
<path d="
M 82.00 759.00 
C 82.39 760.10 82.49 760.91 83.00 762.00
C 84.45 764.27 87.04 767.13 89.00 769.00
C 86.77 762.82 82.01 756.65 79.00 751.00
C 80.03 753.62 81.06 756.32 82.00 759.00 Z"/>
</g>
<g fill="#6D6F74" fill-opacity="1.00" stroke="None">
<path d="
M 833.00 766.00 
C 833.97 764.60 835.97 763.33 837.00 762.00
C 838.43 759.51 839.90 758.06 840.00 755.00
C 840.02 754.50 839.87 753.47 840.00 753.00
C 837.63 757.08 835.26 761.58 833.00 766.00 Z"/>
</g>
<g fill="#939393" fill-opacity="1.00" stroke="None">
<path d="
M 200.00 847.00 
C 195.50 843.35 187.29 843.50 181.67 841.33 C 176.05 839.15 169.72 837.24 164.00 835.00
C 153.88 831.03 144.59 825.39 136.00 819.00
C 127.92 814.20 122.04 808.02 115.00 802.00
C 109.65 797.43 105.26 792.39 101.00 787.00
C 99.78 785.45 98.96 783.48 98.00 782.00
C 94.59 777.85 91.05 775.22 89.00 770.00
C 89.00 770.00 89.16 769.44 89.00 769.00
C 87.04 767.13 84.45 764.27 83.00 762.00
C 89.71 776.38 100.71 789.37 112.25 800.75 C 123.78 812.13 135.78 823.37 150.30 829.70 C 164.83 836.02 183.41 848.11 200.00 847.00 Z"/>
</g>
<g fill="#939393" fill-opacity="1.00" stroke="None">
<path d="
M 833.00 766.00 
C 827.75 776.28 820.61 785.09 813.00 794.00
C 810.22 797.26 807.16 800.22 804.00 803.00
C 792.10 815.25 775.83 826.71 760.00 833.00
C 756.62 834.83 752.77 836.23 750.00 837.00
C 739.96 841.48 726.19 846.05 715.00 848.00
C 741.01 847.28 767.86 831.80 788.75 817.75 C 809.65 803.71 824.75 783.30 837.00 762.00
C 835.97 763.33 833.97 764.60 833.00 766.00 Z"/>
</g>
<g fill="#606369" fill-opacity="1.00" stroke="None">
<path d="
M 98.00 782.00 
C 95.39 777.95 92.38 773.24 89.00 770.00
C 91.05 775.22 94.59 777.85 98.00 782.00 Z"/>
</g>
<g fill="#606369" fill-opacity="1.00" stroke="None">
<path d="
M 115.00 802.00 
C 110.23 797.23 105.53 791.90 101.00 787.00
C 105.26 792.39 109.65 797.43 115.00 802.00 Z"/>
</g>
<g fill="#606369" fill-opacity="1.00" stroke="None">
<path d="
M 804.00 803.00 
C 807.16 800.22 810.22 797.26 813.00 794.00
C 810.11 796.89 806.90 800.01 804.00 803.00 Z"/>
</g>
<g fill="#606369" fill-opacity="1.00" stroke="None">
<path d="
M 164.00 835.00 
C 154.72 830.05 145.24 824.49 136.00 819.00
C 144.59 825.39 153.88 831.03 164.00 835.00 Z"/>
</g>
<g fill="#606369" fill-opacity="1.00" stroke="None">
<path d="
M 750.00 837.00 
C 752.77 836.23 756.62 834.83 760.00 833.00
C 756.64 834.33 753.35 835.50 750.00 837.00 Z"/>
</g>
<g fill="#939393" fill-opacity="1.00" stroke="None">
<path d="
M 201.00 847.00 
C 205.52 848.97 210.51 849.00 216.00 849.00
C 213.40 847.86 203.15 845.62 201.00 847.00 Z"/>
</g>
<g fill="#939393" fill-opacity="1.00" stroke="None">
<path d="
M 217.00 849.00 
C 232.38 854.43 251.52 848.18 268.00 850.00 C 284.48 851.82 302.14 849.19 319.00 850.00 C 335.86 850.81 353.98 849.63 371.00 850.00 C 388.02 850.37 404.91 849.84 422.00 850.00 C 439.09 850.16 456.89 849.94 474.00 850.00 C 491.11 850.06 507.92 850.00 525.00 850.00
C 524.77 849.84 525.14 848.04 525.00 848.00
C 517.41 848.44 511.92 848.80 503.00 849.00 C 494.08 849.20 488.75 847.72 481.25 848.80 C 473.74 849.88 462.67 848.05 456.25 848.20 C 449.83 848.35 438.13 849.72 431.25 848.80 C 424.37 847.88 414.63 849.58 406.08 848.93 C 397.54 848.29 394.98 848.29 386.00 849.00 C 377.02 849.71 369.93 847.52 362.75 848.40 C 355.58 849.27 344.20 848.43 337.75 848.60 C 331.30 848.78 319.48 848.78 312.25 848.20 C 305.02 847.62 297.83 849.36 289.00 849.00 C 280.18 848.64 276.93 847.41 269.00 849.00 C 261.07 850.59 250.20 846.21 244.25 848.20 C 238.30 850.19 221.68 845.32 217.00 849.00 Z"/>
</g>
<g fill="#606369" fill-opacity="1.00" stroke="None">
<path d="
M 525.00 850.00 
C 525.00 850.00 525.50 850.00 526.00 850.00
C 528.34 848.27 537.30 848.18 540.00 848.00
C 535.11 847.72 529.89 847.72 525.00 848.00
C 525.14 848.04 524.77 849.84 525.00 850.00 Z"/>
</g>
<g fill="#939393" fill-opacity="1.00" stroke="None">
<path d="
M 526.00 850.00 
C 555.55 850.03 587.71 851.53 617.00 850.00 C 646.29 848.47 677.28 854.62 705.00 849.00
C 649.80 849.33 593.61 851.07 540.00 848.00
C 537.30 848.18 528.34 848.27 526.00 850.00 Z"/>
</g>
</svg>