<svg xmlns="http://www.w3.org/2000/svg" xmlns:v="https://svgstorm.com"
viewBox = "0 0 348 350"
width="348"
height="350">
<g fill="None" fill-opacity="0.0" stroke="#F6F6F5" stroke-opacity="1.00" stroke-width="0.3"><path d="
M 0.00 350.00 
L 348.00 350.00
L 348.00 0.00
L 0.00 0.00
L 0.00 350.00
M 294.00 109.00 
C 296.07 113.98 293.22 121.53 294.00 127.00 C 294.78 132.47 294.00 139.40 294.00 145.00
C 294.00 179.67 294.00 214.33 294.00 249.00
C 287.30 251.63 281.63 256.34 275.00 259.00
C 272.63 260.94 270.62 261.68 268.00 263.00
C 265.53 264.25 266.54 264.17 264.00 264.00
C 261.03 263.80 260.63 263.03 258.00 261.00
C 252.44 257.58 250.12 256.50 242.25 252.75 C 234.39 248.99 234.00 243.47 234.00 234.00
C 234.00 232.67 234.00 231.33 234.00 230.00
C 234.00 221.40 234.68 211.81 235.00 204.00
C 234.30 194.34 234.26 182.19 235.00 173.00
C 234.78 166.74 234.18 153.43 234.00 147.00 C 233.82 140.57 223.43 137.77 219.00 135.00
C 209.16 128.85 199.04 123.42 189.00 118.00
C 182.79 114.65 176.80 110.60 171.00 107.00
C 169.13 106.25 166.50 104.29 164.00 103.00
C 157.52 99.65 144.91 96.18 144.00 88.00
C 143.08 79.77 142.62 68.16 144.00 60.00
C 144.98 54.23 154.69 49.79 158.77 47.76 C 162.85 45.74 172.77 38.06 177.22 40.78 C 181.67 43.50 188.30 47.14 193.25 50.19 C 198.21 53.23 205.59 57.65 211.23 60.77 C 216.87 63.89 223.81 68.56 228.30 71.70 C 232.80 74.84 240.33 76.25 244.75 80.25 C 249.17 84.25 257.85 86.34 262.22 89.78 C 266.60 93.22 271.85 94.47 276.25 98.75 C 280.65 103.03 291.49 102.98 294.00 109.00
M 113.00 109.00 
C 113.24 109.33 113.00 110.00 113.00 110.00
C 113.00 110.50 113.00 111.00 113.00 111.00
C 114.52 113.05 114.00 116.27 114.00 119.00
C 114.00 120.67 114.00 122.33 114.00 124.00
C 114.00 128.33 114.00 132.67 114.00 137.00
C 114.00 139.00 114.00 141.00 114.00 143.00
C 114.00 146.95 114.35 151.07 114.00 155.00
C 113.43 161.47 113.57 166.09 114.00 172.00
C 114.36 176.92 114.10 182.07 114.00 187.00
C 113.96 189.25 113.05 192.52 113.00 194.00
C 113.44 199.69 112.88 207.15 113.00 214.00
C 121.20 212.38 125.33 221.56 132.75 224.25 C 140.17 226.94 149.55 234.07 156.10 237.90 C 162.65 241.73 175.42 246.15 181.25 251.75 C 187.07 257.36 201.67 259.26 204.00 266.00
C 205.48 270.30 204.09 277.33 204.00 282.00 C 203.91 286.67 205.47 294.54 204.00 299.00
C 202.65 303.10 196.17 304.40 193.00 306.00
C 189.25 308.76 184.62 310.89 180.00 313.00
C 169.90 319.65 163.46 310.44 154.00 305.00
C 148.13 302.38 142.91 298.76 137.00 296.00
C 133.64 294.43 127.96 292.13 126.00 289.00
C 125.53 288.89 125.00 289.00 125.00 289.00
C 120.50 287.96 115.37 283.78 112.00 281.00
C 111.10 280.25 110.11 279.65 109.00 279.00
C 103.95 277.13 94.32 272.68 89.26 268.74 C 84.20 264.80 72.29 261.53 70.00 256.00
C 69.64 255.78 69.00 256.00 69.00 256.00
C 66.64 257.64 59.07 250.90 57.00 249.00
C 54.62 246.81 55.66 248.92 55.00 246.00
C 53.91 241.15 51.77 227.37 55.00 223.00
C 55.00 222.50 55.00 222.00 55.00 222.00
C 52.15 218.15 54.12 208.02 55.00 204.00
C 55.00 203.00 55.00 202.00 55.00 201.00
C 54.26 197.63 53.42 193.05 54.00 189.00
C 53.82 187.10 53.98 185.65 53.00 183.00 C 52.02 180.35 55.22 178.27 55.00 179.00
C 54.95 177.51 54.91 176.80 55.00 175.00
C 54.64 169.67 52.74 162.32 55.00 157.00
C 55.00 156.50 55.00 155.50 55.00 155.00
C 53.60 151.70 54.38 147.88 54.00 144.00
C 50.93 141.03 53.69 132.17 54.00 129.00
C 53.29 124.10 55.14 118.01 55.00 114.00
C 54.80 112.61 53.87 111.47 54.00 110.00
C 54.53 103.87 66.85 103.88 69.92 99.87 C 72.98 95.86 82.32 92.84 86.00 92.00
C 93.35 98.78 104.82 102.50 113.00 109.00 Z"/>
</g>
<g fill="None" fill-opacity="0.0" stroke="#FACA75" stroke-opacity="1.00" stroke-width="0.3"><path d="
M 144.00 60.00 
C 146.09 55.56 159.01 65.71 164.03 67.97 C 169.04 70.24 178.06 76.57 184.23 79.77 C 190.40 82.97 197.79 88.15 204.25 91.75 C 210.71 95.35 218.72 99.11 225.03 102.97 C 231.33 106.83 238.43 111.78 244.75 114.59 C 251.06 117.41 257.37 122.96 264.00 126.00
C 264.41 126.19 265.00 126.00 265.00 126.00
C 269.79 124.90 273.71 120.16 278.23 118.23 C 282.74 116.30 288.28 113.91 292.00 111.00
C 292.65 110.49 292.78 108.88 294.00 109.00
C 291.49 102.98 280.65 103.03 276.25 98.75 C 271.85 94.47 266.60 93.22 262.22 89.78 C 257.85 86.34 249.17 84.25 244.75 80.25 C 240.33 76.25 232.80 74.84 228.30 71.70 C 223.81 68.56 216.87 63.89 211.23 60.77 C 205.59 57.65 198.21 53.23 193.25 50.19 C 188.30 47.14 181.67 43.50 177.22 40.78 C 172.77 38.06 162.85 45.74 158.77 47.76 C 154.69 49.79 144.98 54.23 144.00 60.00 Z"/>
</g>
<g fill="None" fill-opacity="0.0" stroke="#F46A17" stroke-opacity="1.00" stroke-width="0.3"><path d="
M 144.00 60.00 
C 142.62 68.16 143.08 79.77 144.00 88.00
C 144.18 88.84 145.84 90.51 145.00 92.00
C 151.65 94.66 158.59 98.45 164.00 103.00
C 166.50 104.29 169.13 106.25 171.00 107.00
C 177.65 109.67 183.86 114.26 189.00 118.00
C 199.04 123.42 209.16 128.85 219.00 135.00
C 224.34 137.49 229.85 140.21 235.00 143.00
C 235.00 153.00 235.00 163.00 235.00 173.00
C 234.26 182.19 234.30 194.34 235.00 204.00
C 235.62 212.52 235.05 222.27 234.00 230.00
C 234.00 231.33 234.00 232.67 234.00 234.00
C 234.54 237.98 235.67 243.32 235.00 248.00
C 242.92 251.46 250.85 256.32 258.00 261.00
C 260.63 263.03 261.03 263.80 264.00 264.00
C 261.00 259.54 265.27 250.67 264.00 245.00 C 262.73 239.33 264.57 231.18 264.00 225.00 C 263.43 218.82 264.25 211.37 264.00 205.00 C 263.75 198.63 264.06 192.49 264.00 186.00 C 263.94 179.51 263.93 172.57 264.00 166.00 C 264.07 159.43 263.75 152.60 264.00 146.00 C 264.25 139.40 263.41 132.58 264.00 126.00
C 257.37 122.96 251.06 117.41 244.75 114.59 C 238.43 111.78 231.33 106.83 225.03 102.97 C 218.72 99.11 210.71 95.35 204.25 91.75 C 197.79 88.15 190.40 82.97 184.23 79.77 C 178.06 76.57 169.04 70.24 164.03 67.97 C 159.01 65.71 146.09 55.56 144.00 60.00 Z"/>
</g>
<g fill="None" fill-opacity="0.0" stroke="#EFB389" stroke-opacity="1.00" stroke-width="0.3"><path d="
M 164.00 103.00 
C 158.59 98.45 151.65 94.66 145.00 92.00
C 145.84 90.51 144.18 88.84 144.00 88.00
C 144.91 96.18 157.52 99.65 164.00 103.00 Z"/>
</g>
<g fill="None" fill-opacity="0.0" stroke="#FACA77" stroke-opacity="1.00" stroke-width="0.3"><path d="
M 54.00 110.00 
C 54.11 109.60 62.07 112.89 64.01 113.99 C 65.94 115.09 70.81 118.42 73.70 120.30 C 76.59 122.19 80.00 124.41 83.00 126.00
C 83.39 126.21 84.00 126.00 84.00 126.00
C 91.45 124.28 99.27 117.71 106.00 114.00
C 108.25 112.44 110.05 109.82 113.00 109.00
C 104.82 102.50 93.35 98.78 86.00 92.00
C 82.32 92.84 72.98 95.86 69.92 99.87 C 66.85 103.88 54.53 103.87 54.00 110.00 Z"/>
</g>
<g fill="None" fill-opacity="0.0" stroke="#EFB188" stroke-opacity="1.00" stroke-width="0.3"><path d="
M 189.00 118.00 
C 183.86 114.26 177.65 109.67 171.00 107.00
C 176.80 110.60 182.79 114.65 189.00 118.00 Z"/>
</g>
<g fill="None" fill-opacity="0.0" stroke="#F46914" stroke-opacity="1.00" stroke-width="0.3"><path d="
M 54.00 110.00 
C 53.87 111.47 54.80 112.61 55.00 114.00
C 55.72 119.10 55.00 124.84 55.00 130.00
C 55.00 134.67 55.00 139.33 55.00 144.00
C 55.00 147.67 55.00 151.33 55.00 155.00
C 55.00 155.50 55.00 156.50 55.00 157.00
C 55.00 162.98 55.28 169.03 55.00 175.00
C 54.91 176.80 54.95 177.51 55.00 179.00
C 55.10 181.99 55.00 185.01 55.00 188.00
C 55.00 192.33 55.00 196.67 55.00 201.00
C 55.00 202.00 55.00 203.00 55.00 204.00
C 55.00 210.00 55.00 216.00 55.00 222.00
C 55.00 222.00 55.00 222.50 55.00 223.00
C 55.00 230.58 54.38 238.45 55.00 246.00
C 55.66 248.92 54.62 246.81 57.00 249.00
C 60.98 251.53 65.67 252.74 69.00 256.00
C 69.00 256.00 69.64 255.78 70.00 256.00
C 82.83 263.98 95.96 271.39 109.00 279.00
C 110.11 279.65 111.10 280.25 112.00 281.00
C 116.19 283.38 122.15 284.63 125.00 289.00
C 125.00 289.00 125.53 288.89 126.00 289.00
C 130.63 290.07 133.42 293.59 137.00 296.00
C 142.91 298.76 148.13 302.38 154.00 305.00
C 159.20 307.32 168.34 315.85 174.00 316.00
C 173.12 310.77 175.18 304.09 174.00 299.00 C 172.82 293.91 176.25 286.55 174.00 282.00
C 169.94 281.79 162.56 276.52 162.00 273.00
C 148.73 269.63 135.26 259.74 122.30 252.70 C 109.35 245.65 95.01 237.21 84.00 229.00
C 79.10 220.38 84.27 206.49 83.00 196.00 C 81.73 185.51 83.10 172.00 83.00 161.00 C 82.90 150.00 82.00 137.07 83.00 126.00
C 80.00 124.41 76.59 122.19 73.70 120.30 C 70.81 118.42 65.94 115.09 64.01 113.99 C 62.07 112.89 54.11 109.60 54.00 110.00 Z"/>
</g>
<g fill="None" fill-opacity="0.0" stroke="#F09355" stroke-opacity="1.00" stroke-width="0.3"><path d="
M 106.00 114.00 
C 108.40 112.68 110.60 111.28 113.00 110.00
C 113.00 110.00 113.24 109.33 113.00 109.00
C 110.05 109.82 108.25 112.44 106.00 114.00 Z"/>
</g>
<g fill="None" fill-opacity="0.0" stroke="#B89A86" stroke-opacity="1.00" stroke-width="0.3"><path d="
M 292.00 111.00 
C 291.19 115.13 293.76 121.68 293.00 127.00 C 292.24 132.32 293.00 139.51 293.00 145.00
C 293.00 144.96 294.00 145.00 294.00 145.00
C 294.00 139.40 294.78 132.47 294.00 127.00 C 293.22 121.53 296.07 113.98 294.00 109.00
C 292.78 108.88 292.65 110.49 292.00 111.00 Z"/>
</g>
<g fill="None" fill-opacity="0.0" stroke="#CB4D02" stroke-opacity="1.00" stroke-width="0.3"><path d="
M 106.00 114.00 
C 99.27 117.71 91.45 124.28 84.00 126.00
C 87.08 160.06 81.69 194.88 84.00 229.00
C 94.49 227.04 102.52 216.06 113.00 214.00
C 112.88 207.15 113.44 199.69 113.00 194.00
C 112.82 191.70 113.00 189.31 113.00 187.00
C 113.00 182.05 113.83 176.16 114.00 172.00
C 113.57 166.09 113.43 161.47 114.00 155.00
C 113.97 151.61 113.67 146.45 114.00 143.00
C 114.00 141.00 114.00 139.00 114.00 137.00
C 113.60 132.89 113.57 128.05 114.00 124.00
C 114.00 122.33 114.00 120.67 114.00 119.00
C 113.77 116.88 113.00 113.79 113.00 111.00
C 113.00 111.00 113.00 110.50 113.00 110.00
C 110.60 111.28 108.40 112.68 106.00 114.00 Z"/>
</g>
<g fill="None" fill-opacity="0.0" stroke="#B79A87" stroke-opacity="1.00" stroke-width="0.3"><path d="
M 114.00 119.00 
C 114.00 116.27 114.52 113.05 113.00 111.00
C 113.00 113.79 113.77 116.88 114.00 119.00 Z"/>
</g>
<g fill="None" fill-opacity="0.0" stroke="#CB4C01" stroke-opacity="1.00" stroke-width="0.3"><path d="
M 265.00 126.00 
C 269.14 171.63 261.90 218.28 265.00 264.00
C 266.28 264.53 266.86 263.03 268.00 263.00
C 270.62 261.68 272.63 260.94 275.00 259.00
C 281.21 253.90 291.84 252.93 293.00 244.00 C 294.16 235.06 292.50 221.04 293.00 211.00 C 293.50 200.96 292.81 188.50 293.00 178.00 C 293.19 167.50 293.00 155.62 293.00 145.00
C 293.00 139.51 292.24 132.32 293.00 127.00 C 293.76 121.68 291.19 115.13 292.00 111.00
C 288.28 113.91 282.74 116.30 278.23 118.23 C 273.71 120.16 269.79 124.90 265.00 126.00 Z"/>
</g>
<g fill="None" fill-opacity="0.0" stroke="#EBA77C" stroke-opacity="1.00" stroke-width="0.3"><path d="
M 54.00 129.00 
C 54.05 129.35 54.95 129.77 55.00 130.00
C 55.00 124.84 55.72 119.10 55.00 114.00
C 55.14 118.01 53.29 124.10 54.00 129.00 Z"/>
</g>
<g fill="None" fill-opacity="0.0" stroke="#B79A87" stroke-opacity="1.00" stroke-width="0.3"><path d="
M 114.00 137.00 
C 114.00 132.67 114.00 128.33 114.00 124.00
C 113.57 128.05 113.60 132.89 114.00 137.00 Z"/>
</g>
<g fill="None" fill-opacity="0.0" stroke="#F3985A" stroke-opacity="1.00" stroke-width="0.3"><path d="
M 84.00 229.00 
C 81.69 194.88 87.08 160.06 84.00 126.00
C 84.00 126.00 83.39 126.21 83.00 126.00
C 82.00 137.07 82.90 150.00 83.00 161.00 C 83.10 172.00 81.73 185.51 83.00 196.00 C 84.27 206.49 79.10 220.38 84.00 229.00 Z"/>
</g>
<g fill="None" fill-opacity="0.0" stroke="#ECA77B" stroke-opacity="1.00" stroke-width="0.3"><path d="
M 264.00 264.00 
C 266.54 264.17 265.53 264.25 268.00 263.00
C 266.86 263.03 266.28 264.53 265.00 264.00
C 261.90 218.28 269.14 171.63 265.00 126.00
C 265.00 126.00 264.41 126.19 264.00 126.00
C 263.41 132.58 264.25 139.40 264.00 146.00 C 263.75 152.60 264.07 159.43 264.00 166.00 C 263.93 172.57 263.94 179.51 264.00 186.00 C 264.06 192.49 263.75 198.63 264.00 205.00 C 264.25 211.37 263.43 218.82 264.00 225.00 C 264.57 231.18 262.73 239.33 264.00 245.00 C 265.27 250.67 261.00 259.54 264.00 264.00 Z"/>
</g>
<g fill="None" fill-opacity="0.0" stroke="#F6E2CC" stroke-opacity="1.00" stroke-width="0.3"><path d="
M 54.00 144.00 
C 54.26 144.25 55.00 144.00 55.00 144.00
C 55.00 139.33 55.00 134.67 55.00 130.00
C 54.95 129.77 54.05 129.35 54.00 129.00
C 53.69 132.17 50.93 141.03 54.00 144.00 Z"/>
</g>
<g fill="None" fill-opacity="0.0" stroke="#EEAF85" stroke-opacity="1.00" stroke-width="0.3"><path d="
M 235.00 173.00 
C 235.00 163.00 235.00 153.00 235.00 143.00
C 229.85 140.21 224.34 137.49 219.00 135.00
C 223.43 137.77 233.82 140.57 234.00 147.00 C 234.18 153.43 234.78 166.74 235.00 173.00 Z"/>
</g>
<g fill="None" fill-opacity="0.0" stroke="#B79A87" stroke-opacity="1.00" stroke-width="0.3"><path d="
M 114.00 155.00 
C 114.35 151.07 114.00 146.95 114.00 143.00
C 113.67 146.45 113.97 151.61 114.00 155.00 Z"/>
</g>
<g fill="None" fill-opacity="0.0" stroke="#EBA77C" stroke-opacity="1.00" stroke-width="0.3"><path d="
M 55.00 155.00 
C 55.00 151.33 55.00 147.67 55.00 144.00
C 55.00 144.00 54.26 144.25 54.00 144.00
C 54.38 147.88 53.60 151.70 55.00 155.00 Z"/>
</g>
<g fill="None" fill-opacity="0.0" stroke="#ECA579" stroke-opacity="1.00" stroke-width="0.3"><path d="
M 275.00 259.00 
C 281.63 256.34 287.30 251.63 294.00 249.00
C 294.00 214.33 294.00 179.67 294.00 145.00
C 294.00 145.00 293.00 144.96 293.00 145.00
C 293.00 155.62 293.19 167.50 293.00 178.00 C 292.81 188.50 293.50 200.96 293.00 211.00 C 292.50 221.04 294.16 235.06 293.00 244.00 C 291.84 252.93 281.21 253.90 275.00 259.00 Z"/>
</g>
<g fill="None" fill-opacity="0.0" stroke="#EBA77C" stroke-opacity="1.00" stroke-width="0.3"><path d="
M 55.00 175.00 
C 55.28 169.03 55.00 162.98 55.00 157.00
C 52.74 162.32 54.64 169.67 55.00 175.00 Z"/>
</g>
<g fill="None" fill-opacity="0.0" stroke="#B79A87" stroke-opacity="1.00" stroke-width="0.3"><path d="
M 113.00 187.00 
C 113.01 186.93 114.00 187.00 114.00 187.00
C 114.10 182.07 114.36 176.92 114.00 172.00
C 113.83 176.16 113.00 182.05 113.00 187.00 Z"/>
</g>
<g fill="None" fill-opacity="0.0" stroke="#F6E1C6" stroke-opacity="1.00" stroke-width="0.3"><path d="
M 54.00 189.00 
C 54.05 188.65 54.95 188.23 55.00 188.00
C 55.00 185.01 55.10 181.99 55.00 179.00
C 55.22 178.27 52.02 180.35 53.00 183.00 C 53.98 185.65 53.82 187.10 54.00 189.00 Z"/>
</g>
<g fill="None" fill-opacity="0.0" stroke="#E68443" stroke-opacity="1.00" stroke-width="0.3"><path d="
M 113.00 194.00 
C 113.05 192.52 113.96 189.25 114.00 187.00
C 114.00 187.00 113.01 186.93 113.00 187.00
C 113.00 189.31 112.82 191.70 113.00 194.00 Z"/>
</g>
<g fill="None" fill-opacity="0.0" stroke="#EBA77C" stroke-opacity="1.00" stroke-width="0.3"><path d="
M 54.00 189.00 
C 53.42 193.05 54.26 197.63 55.00 201.00
C 55.00 196.67 55.00 192.33 55.00 188.00
C 54.95 188.23 54.05 188.65 54.00 189.00 Z"/>
</g>
<g fill="None" fill-opacity="0.0" stroke="#EBA77C" stroke-opacity="1.00" stroke-width="0.3"><path d="
M 55.00 222.00 
C 55.00 216.00 55.00 210.00 55.00 204.00
C 54.12 208.02 52.15 218.15 55.00 222.00 Z"/>
</g>
<g fill="None" fill-opacity="0.0" stroke="#EDAD81" stroke-opacity="1.00" stroke-width="0.3"><path d="
M 234.00 230.00 
C 235.05 222.27 235.62 212.52 235.00 204.00
C 234.68 211.81 234.00 221.40 234.00 230.00 Z"/>
</g>
<g fill="None" fill-opacity="0.0" stroke="#FACA75" stroke-opacity="1.00" stroke-width="0.3"><path d="
M 113.00 214.00 
C 102.52 216.06 94.49 227.04 84.00 229.00
C 95.01 237.21 109.35 245.65 122.30 252.70 C 135.26 259.74 148.73 269.63 162.00 273.00
C 162.56 276.52 169.94 281.79 174.00 282.00
C 184.58 282.56 193.73 267.25 204.00 266.00
C 201.67 259.26 187.07 257.36 181.25 251.75 C 175.42 246.15 162.65 241.73 156.10 237.90 C 149.55 234.07 140.17 226.94 132.75 224.25 C 125.33 221.56 121.20 212.38 113.00 214.00 Z"/>
</g>
<g fill="None" fill-opacity="0.0" stroke="#EBA77C" stroke-opacity="1.00" stroke-width="0.3"><path d="
M 55.00 246.00 
C 54.38 238.45 55.00 230.58 55.00 223.00
C 51.77 227.37 53.91 241.15 55.00 246.00 Z"/>
</g>
<g fill="None" fill-opacity="0.0" stroke="#F0B287" stroke-opacity="1.00" stroke-width="0.3"><path d="
M 258.00 261.00 
C 250.85 256.32 242.92 251.46 235.00 248.00
C 235.67 243.32 234.54 237.98 234.00 234.00
C 234.00 243.47 234.39 248.99 242.25 252.75 C 250.12 256.50 252.44 257.58 258.00 261.00 Z"/>
</g>
<g fill="None" fill-opacity="0.0" stroke="#F0B48B" stroke-opacity="1.00" stroke-width="0.3"><path d="
M 69.00 256.00 
C 65.67 252.74 60.98 251.53 57.00 249.00
C 59.07 250.90 66.64 257.64 69.00 256.00 Z"/>
</g>
<g fill="None" fill-opacity="0.0" stroke="#EFAD82" stroke-opacity="1.00" stroke-width="0.3"><path d="
M 109.00 279.00 
C 95.96 271.39 82.83 263.98 70.00 256.00
C 72.29 261.53 84.20 264.80 89.26 268.74 C 94.32 272.68 103.95 277.13 109.00 279.00 Z"/>
</g>
<g fill="None" fill-opacity="0.0" stroke="#CB4D03" stroke-opacity="1.00" stroke-width="0.3"><path d="
M 174.00 282.00 
C 176.25 286.55 172.82 293.91 174.00 299.00 C 175.18 304.09 173.12 310.77 174.00 316.00
C 175.59 316.04 178.51 313.68 180.00 313.00
C 184.62 310.89 189.25 308.76 193.00 306.00
C 195.05 304.49 203.01 301.28 204.00 299.00
C 205.47 294.54 203.91 286.67 204.00 282.00 C 204.09 277.33 205.48 270.30 204.00 266.00
C 193.73 267.25 184.58 282.56 174.00 282.00 Z"/>
</g>
<g fill="None" fill-opacity="0.0" stroke="#EFB18A" stroke-opacity="1.00" stroke-width="0.3"><path d="
M 125.00 289.00 
C 122.15 284.63 116.19 283.38 112.00 281.00
C 115.37 283.78 120.50 287.96 125.00 289.00 Z"/>
</g>
<g fill="None" fill-opacity="0.0" stroke="#EEAF87" stroke-opacity="1.00" stroke-width="0.3"><path d="
M 137.00 296.00 
C 133.42 293.59 130.63 290.07 126.00 289.00
C 127.96 292.13 133.64 294.43 137.00 296.00 Z"/>
</g>
<g fill="None" fill-opacity="0.0" stroke="#E59E71" stroke-opacity="1.00" stroke-width="0.3"><path d="
M 193.00 306.00 
C 196.17 304.40 202.65 303.10 204.00 299.00
C 203.01 301.28 195.05 304.49 193.00 306.00 Z"/>
</g>
<g fill="None" fill-opacity="0.0" stroke="#EDAC82" stroke-opacity="1.00" stroke-width="0.3"><path d="
M 180.00 313.00 
C 178.51 313.68 175.59 316.04 174.00 316.00
C 168.34 315.85 159.20 307.32 154.00 305.00
C 163.46 310.44 169.90 319.65 180.00 313.00 Z"/>
</g>
<g fill="#F6F6F5" fill-opacity="1.00" stroke="None">
<path d="
M 0.00 350.00 
L 348.00 350.00
L 348.00 0.00
L 0.00 0.00
L 0.00 350.00
M 294.00 109.00 
C 296.07 113.98 293.22 121.53 294.00 127.00 C 294.78 132.47 294.00 139.40 294.00 145.00
C 294.00 179.67 294.00 214.33 294.00 249.00
C 287.30 251.63 281.63 256.34 275.00 259.00
C 272.63 260.94 270.62 261.68 268.00 263.00
C 265.53 264.25 266.54 264.17 264.00 264.00
C 261.03 263.80 260.63 263.03 258.00 261.00
C 252.44 257.58 250.12 256.50 242.25 252.75 C 234.39 248.99 234.00 243.47 234.00 234.00
C 234.00 232.67 234.00 231.33 234.00 230.00
C 234.00 221.40 234.68 211.81 235.00 204.00
C 234.30 194.34 234.26 182.19 235.00 173.00
C 234.78 166.74 234.18 153.43 234.00 147.00 C 233.82 140.57 223.43 137.77 219.00 135.00
C 209.16 128.85 199.04 123.42 189.00 118.00
C 182.79 114.65 176.80 110.60 171.00 107.00
C 169.13 106.25 166.50 104.29 164.00 103.00
C 157.52 99.65 144.91 96.18 144.00 88.00
C 143.08 79.77 142.62 68.16 144.00 60.00
C 144.98 54.23 154.69 49.79 158.77 47.76 C 162.85 45.74 172.77 38.06 177.22 40.78 C 181.67 43.50 188.30 47.14 193.25 50.19 C 198.21 53.23 205.59 57.65 211.23 60.77 C 216.87 63.89 223.81 68.56 228.30 71.70 C 232.80 74.84 240.33 76.25 244.75 80.25 C 249.17 84.25 257.85 86.34 262.22 89.78 C 266.60 93.22 271.85 94.47 276.25 98.75 C 280.65 103.03 291.49 102.98 294.00 109.00
M 113.00 109.00 
C 113.24 109.33 113.00 110.00 113.00 110.00
C 113.00 110.50 113.00 111.00 113.00 111.00
C 114.52 113.05 114.00 116.27 114.00 119.00
C 114.00 120.67 114.00 122.33 114.00 124.00
C 114.00 128.33 114.00 132.67 114.00 137.00
C 114.00 139.00 114.00 141.00 114.00 143.00
C 114.00 146.95 114.35 151.07 114.00 155.00
C 113.43 161.47 113.57 166.09 114.00 172.00
C 114.36 176.92 114.10 182.07 114.00 187.00
C 113.96 189.25 113.05 192.52 113.00 194.00
C 113.44 199.69 112.88 207.15 113.00 214.00
C 121.20 212.38 125.33 221.56 132.75 224.25 C 140.17 226.94 149.55 234.07 156.10 237.90 C 162.65 241.73 175.42 246.15 181.25 251.75 C 187.07 257.36 201.67 259.26 204.00 266.00
C 205.48 270.30 204.09 277.33 204.00 282.00 C 203.91 286.67 205.47 294.54 204.00 299.00
C 202.65 303.10 196.17 304.40 193.00 306.00
C 189.25 308.76 184.62 310.89 180.00 313.00
C 169.90 319.65 163.46 310.44 154.00 305.00
C 148.13 302.38 142.91 298.76 137.00 296.00
C 133.64 294.43 127.96 292.13 126.00 289.00
C 125.53 288.89 125.00 289.00 125.00 289.00
C 120.50 287.96 115.37 283.78 112.00 281.00
C 111.10 280.25 110.11 279.65 109.00 279.00
C 103.95 277.13 94.32 272.68 89.26 268.74 C 84.20 264.80 72.29 261.53 70.00 256.00
C 69.64 255.78 69.00 256.00 69.00 256.00
C 66.64 257.64 59.07 250.90 57.00 249.00
C 54.62 246.81 55.66 248.92 55.00 246.00
C 53.91 241.15 51.77 227.37 55.00 223.00
C 55.00 222.50 55.00 222.00 55.00 222.00
C 52.15 218.15 54.12 208.02 55.00 204.00
C 55.00 203.00 55.00 202.00 55.00 201.00
C 54.26 197.63 53.42 193.05 54.00 189.00
C 53.82 187.10 53.98 185.65 53.00 183.00 C 52.02 180.35 55.22 178.27 55.00 179.00
C 54.95 177.51 54.91 176.80 55.00 175.00
C 54.64 169.67 52.74 162.32 55.00 157.00
C 55.00 156.50 55.00 155.50 55.00 155.00
C 53.60 151.70 54.38 147.88 54.00 144.00
C 50.93 141.03 53.69 132.17 54.00 129.00
C 53.29 124.10 55.14 118.01 55.00 114.00
C 54.80 112.61 53.87 111.47 54.00 110.00
C 54.53 103.87 66.85 103.88 69.92 99.87 C 72.98 95.86 82.32 92.84 86.00 92.00
C 93.35 98.78 104.82 102.50 113.00 109.00 Z"/>
</g>
<g fill="#FACA75" fill-opacity="1.00" stroke="None">
<path d="
M 144.00 60.00 
C 146.09 55.56 159.01 65.71 164.03 67.97 C 169.04 70.24 178.06 76.57 184.23 79.77 C 190.40 82.97 197.79 88.15 204.25 91.75 C 210.71 95.35 218.72 99.11 225.03 102.97 C 231.33 106.83 238.43 111.78 244.75 114.59 C 251.06 117.41 257.37 122.96 264.00 126.00
C 264.41 126.19 265.00 126.00 265.00 126.00
C 269.79 124.90 273.71 120.16 278.23 118.23 C 282.74 116.30 288.28 113.91 292.00 111.00
C 292.65 110.49 292.78 108.88 294.00 109.00
C 291.49 102.98 280.65 103.03 276.25 98.75 C 271.85 94.47 266.60 93.22 262.22 89.78 C 257.85 86.34 249.17 84.25 244.75 80.25 C 240.33 76.25 232.80 74.84 228.30 71.70 C 223.81 68.56 216.87 63.89 211.23 60.77 C 205.59 57.65 198.21 53.23 193.25 50.19 C 188.30 47.14 181.67 43.50 177.22 40.78 C 172.77 38.06 162.85 45.74 158.77 47.76 C 154.69 49.79 144.98 54.23 144.00 60.00 Z"/>
</g>
<g fill="#F46A17" fill-opacity="1.00" stroke="None">
<path d="
M 144.00 60.00 
C 142.62 68.16 143.08 79.77 144.00 88.00
C 144.18 88.84 145.84 90.51 145.00 92.00
C 151.65 94.66 158.59 98.45 164.00 103.00
C 166.50 104.29 169.13 106.25 171.00 107.00
C 177.65 109.67 183.86 114.26 189.00 118.00
C 199.04 123.42 209.16 128.85 219.00 135.00
C 224.34 137.49 229.85 140.21 235.00 143.00
C 235.00 153.00 235.00 163.00 235.00 173.00
C 234.26 182.19 234.30 194.34 235.00 204.00
C 235.62 212.52 235.05 222.27 234.00 230.00
C 234.00 231.33 234.00 232.67 234.00 234.00
C 234.54 237.98 235.67 243.32 235.00 248.00
C 242.92 251.46 250.85 256.32 258.00 261.00
C 260.63 263.03 261.03 263.80 264.00 264.00
C 261.00 259.54 265.27 250.67 264.00 245.00 C 262.73 239.33 264.57 231.18 264.00 225.00 C 263.43 218.82 264.25 211.37 264.00 205.00 C 263.75 198.63 264.06 192.49 264.00 186.00 C 263.94 179.51 263.93 172.57 264.00 166.00 C 264.07 159.43 263.75 152.60 264.00 146.00 C 264.25 139.40 263.41 132.58 264.00 126.00
C 257.37 122.96 251.06 117.41 244.75 114.59 C 238.43 111.78 231.33 106.83 225.03 102.97 C 218.72 99.11 210.71 95.35 204.25 91.75 C 197.79 88.15 190.40 82.97 184.23 79.77 C 178.06 76.57 169.04 70.24 164.03 67.97 C 159.01 65.71 146.09 55.56 144.00 60.00 Z"/>
</g>
<g fill="#EFB389" fill-opacity="1.00" stroke="None">
<path d="
M 164.00 103.00 
C 158.59 98.45 151.65 94.66 145.00 92.00
C 145.84 90.51 144.18 88.84 144.00 88.00
C 144.91 96.18 157.52 99.65 164.00 103.00 Z"/>
</g>
<g fill="#FACA77" fill-opacity="1.00" stroke="None">
<path d="
M 54.00 110.00 
C 54.11 109.60 62.07 112.89 64.01 113.99 C 65.94 115.09 70.81 118.42 73.70 120.30 C 76.59 122.19 80.00 124.41 83.00 126.00
C 83.39 126.21 84.00 126.00 84.00 126.00
C 91.45 124.28 99.27 117.71 106.00 114.00
C 108.25 112.44 110.05 109.82 113.00 109.00
C 104.82 102.50 93.35 98.78 86.00 92.00
C 82.32 92.84 72.98 95.86 69.92 99.87 C 66.85 103.88 54.53 103.87 54.00 110.00 Z"/>
</g>
<g fill="#EFB188" fill-opacity="1.00" stroke="None">
<path d="
M 189.00 118.00 
C 183.86 114.26 177.65 109.67 171.00 107.00
C 176.80 110.60 182.79 114.65 189.00 118.00 Z"/>
</g>
<g fill="#F46914" fill-opacity="1.00" stroke="None">
<path d="
M 54.00 110.00 
C 53.87 111.47 54.80 112.61 55.00 114.00
C 55.72 119.10 55.00 124.84 55.00 130.00
C 55.00 134.67 55.00 139.33 55.00 144.00
C 55.00 147.67 55.00 151.33 55.00 155.00
C 55.00 155.50 55.00 156.50 55.00 157.00
C 55.00 162.98 55.28 169.03 55.00 175.00
C 54.91 176.80 54.95 177.51 55.00 179.00
C 55.10 181.99 55.00 185.01 55.00 188.00
C 55.00 192.33 55.00 196.67 55.00 201.00
C 55.00 202.00 55.00 203.00 55.00 204.00
C 55.00 210.00 55.00 216.00 55.00 222.00
C 55.00 222.00 55.00 222.50 55.00 223.00
C 55.00 230.58 54.38 238.45 55.00 246.00
C 55.66 248.92 54.62 246.81 57.00 249.00
C 60.98 251.53 65.67 252.74 69.00 256.00
C 69.00 256.00 69.64 255.78 70.00 256.00
C 82.83 263.98 95.96 271.39 109.00 279.00
C 110.11 279.65 111.10 280.25 112.00 281.00
C 116.19 283.38 122.15 284.63 125.00 289.00
C 125.00 289.00 125.53 288.89 126.00 289.00
C 130.63 290.07 133.42 293.59 137.00 296.00
C 142.91 298.76 148.13 302.38 154.00 305.00
C 159.20 307.32 168.34 315.85 174.00 316.00
C 173.12 310.77 175.18 304.09 174.00 299.00 C 172.82 293.91 176.25 286.55 174.00 282.00
C 169.94 281.79 162.56 276.52 162.00 273.00
C 148.73 269.63 135.26 259.74 122.30 252.70 C 109.35 245.65 95.01 237.21 84.00 229.00
C 79.10 220.38 84.27 206.49 83.00 196.00 C 81.73 185.51 83.10 172.00 83.00 161.00 C 82.90 150.00 82.00 137.07 83.00 126.00
C 80.00 124.41 76.59 122.19 73.70 120.30 C 70.81 118.42 65.94 115.09 64.01 113.99 C 62.07 112.89 54.11 109.60 54.00 110.00 Z"/>
</g>
<g fill="#F09355" fill-opacity="1.00" stroke="None">
<path d="
M 106.00 114.00 
C 108.40 112.68 110.60 111.28 113.00 110.00
C 113.00 110.00 113.24 109.33 113.00 109.00
C 110.05 109.82 108.25 112.44 106.00 114.00 Z"/>
</g>
<g fill="#B89A86" fill-opacity="1.00" stroke="None">
<path d="
M 292.00 111.00 
C 291.19 115.13 293.76 121.68 293.00 127.00 C 292.24 132.32 293.00 139.51 293.00 145.00
C 293.00 144.96 294.00 145.00 294.00 145.00
C 294.00 139.40 294.78 132.47 294.00 127.00 C 293.22 121.53 296.07 113.98 294.00 109.00
C 292.78 108.88 292.65 110.49 292.00 111.00 Z"/>
</g>
<g fill="#CB4D02" fill-opacity="1.00" stroke="None">
<path d="
M 106.00 114.00 
C 99.27 117.71 91.45 124.28 84.00 126.00
C 87.08 160.06 81.69 194.88 84.00 229.00
C 94.49 227.04 102.52 216.06 113.00 214.00
C 112.88 207.15 113.44 199.69 113.00 194.00
C 112.82 191.70 113.00 189.31 113.00 187.00
C 113.00 182.05 113.83 176.16 114.00 172.00
C 113.57 166.09 113.43 161.47 114.00 155.00
C 113.97 151.61 113.67 146.45 114.00 143.00
C 114.00 141.00 114.00 139.00 114.00 137.00
C 113.60 132.89 113.57 128.05 114.00 124.00
C 114.00 122.33 114.00 120.67 114.00 119.00
C 113.77 116.88 113.00 113.79 113.00 111.00
C 113.00 111.00 113.00 110.50 113.00 110.00
C 110.60 111.28 108.40 112.68 106.00 114.00 Z"/>
</g>
<g fill="#B79A87" fill-opacity="1.00" stroke="None">
<path d="
M 114.00 119.00 
C 114.00 116.27 114.52 113.05 113.00 111.00
C 113.00 113.79 113.77 116.88 114.00 119.00 Z"/>
</g>
<g fill="#CB4C01" fill-opacity="1.00" stroke="None">
<path d="
M 265.00 126.00 
C 269.14 171.63 261.90 218.28 265.00 264.00
C 266.28 264.53 266.86 263.03 268.00 263.00
C 270.62 261.68 272.63 260.94 275.00 259.00
C 281.21 253.90 291.84 252.93 293.00 244.00 C 294.16 235.06 292.50 221.04 293.00 211.00 C 293.50 200.96 292.81 188.50 293.00 178.00 C 293.19 167.50 293.00 155.62 293.00 145.00
C 293.00 139.51 292.24 132.32 293.00 127.00 C 293.76 121.68 291.19 115.13 292.00 111.00
C 288.28 113.91 282.74 116.30 278.23 118.23 C 273.71 120.16 269.79 124.90 265.00 126.00 Z"/>
</g>
<g fill="#EBA77C" fill-opacity="1.00" stroke="None">
<path d="
M 54.00 129.00 
C 54.05 129.35 54.95 129.77 55.00 130.00
C 55.00 124.84 55.72 119.10 55.00 114.00
C 55.14 118.01 53.29 124.10 54.00 129.00 Z"/>
</g>
<g fill="#B79A87" fill-opacity="1.00" stroke="None">
<path d="
M 114.00 137.00 
C 114.00 132.67 114.00 128.33 114.00 124.00
C 113.57 128.05 113.60 132.89 114.00 137.00 Z"/>
</g>
<g fill="#F3985A" fill-opacity="1.00" stroke="None">
<path d="
M 84.00 229.00 
C 81.69 194.88 87.08 160.06 84.00 126.00
C 84.00 126.00 83.39 126.21 83.00 126.00
C 82.00 137.07 82.90 150.00 83.00 161.00 C 83.10 172.00 81.73 185.51 83.00 196.00 C 84.27 206.49 79.10 220.38 84.00 229.00 Z"/>
</g>
<g fill="#ECA77B" fill-opacity="1.00" stroke="None">
<path d="
M 264.00 264.00 
C 266.54 264.17 265.53 264.25 268.00 263.00
C 266.86 263.03 266.28 264.53 265.00 264.00
C 261.90 218.28 269.14 171.63 265.00 126.00
C 265.00 126.00 264.41 126.19 264.00 126.00
C 263.41 132.58 264.25 139.40 264.00 146.00 C 263.75 152.60 264.07 159.43 264.00 166.00 C 263.93 172.57 263.94 179.51 264.00 186.00 C 264.06 192.49 263.75 198.63 264.00 205.00 C 264.25 211.37 263.43 218.82 264.00 225.00 C 264.57 231.18 262.73 239.33 264.00 245.00 C 265.27 250.67 261.00 259.54 264.00 264.00 Z"/>
</g>
<g fill="#F6E2CC" fill-opacity="1.00" stroke="None">
<path d="
M 54.00 144.00 
C 54.26 144.25 55.00 144.00 55.00 144.00
C 55.00 139.33 55.00 134.67 55.00 130.00
C 54.95 129.77 54.05 129.35 54.00 129.00
C 53.69 132.17 50.93 141.03 54.00 144.00 Z"/>
</g>
<g fill="#EEAF85" fill-opacity="1.00" stroke="None">
<path d="
M 235.00 173.00 
C 235.00 163.00 235.00 153.00 235.00 143.00
C 229.85 140.21 224.34 137.49 219.00 135.00
C 223.43 137.77 233.82 140.57 234.00 147.00 C 234.18 153.43 234.78 166.74 235.00 173.00 Z"/>
</g>
<g fill="#B79A87" fill-opacity="1.00" stroke="None">
<path d="
M 114.00 155.00 
C 114.35 151.07 114.00 146.95 114.00 143.00
C 113.67 146.45 113.97 151.61 114.00 155.00 Z"/>
</g>
<g fill="#EBA77C" fill-opacity="1.00" stroke="None">
<path d="
M 55.00 155.00 
C 55.00 151.33 55.00 147.67 55.00 144.00
C 55.00 144.00 54.26 144.25 54.00 144.00
C 54.38 147.88 53.60 151.70 55.00 155.00 Z"/>
</g>
<g fill="#ECA579" fill-opacity="1.00" stroke="None">
<path d="
M 275.00 259.00 
C 281.63 256.34 287.30 251.63 294.00 249.00
C 294.00 214.33 294.00 179.67 294.00 145.00
C 294.00 145.00 293.00 144.96 293.00 145.00
C 293.00 155.62 293.19 167.50 293.00 178.00 C 292.81 188.50 293.50 200.96 293.00 211.00 C 292.50 221.04 294.16 235.06 293.00 244.00 C 291.84 252.93 281.21 253.90 275.00 259.00 Z"/>
</g>
<g fill="#EBA77C" fill-opacity="1.00" stroke="None">
<path d="
M 55.00 175.00 
C 55.28 169.03 55.00 162.98 55.00 157.00
C 52.74 162.32 54.64 169.67 55.00 175.00 Z"/>
</g>
<g fill="#B79A87" fill-opacity="1.00" stroke="None">
<path d="
M 113.00 187.00 
C 113.01 186.93 114.00 187.00 114.00 187.00
C 114.10 182.07 114.36 176.92 114.00 172.00
C 113.83 176.16 113.00 182.05 113.00 187.00 Z"/>
</g>
<g fill="#F6E1C6" fill-opacity="1.00" stroke="None">
<path d="
M 54.00 189.00 
C 54.05 188.65 54.95 188.23 55.00 188.00
C 55.00 185.01 55.10 181.99 55.00 179.00
C 55.22 178.27 52.02 180.35 53.00 183.00 C 53.98 185.65 53.82 187.10 54.00 189.00 Z"/>
</g>
<g fill="#E68443" fill-opacity="1.00" stroke="None">
<path d="
M 113.00 194.00 
C 113.05 192.52 113.96 189.25 114.00 187.00
C 114.00 187.00 113.01 186.93 113.00 187.00
C 113.00 189.31 112.82 191.70 113.00 194.00 Z"/>
</g>
<g fill="#EBA77C" fill-opacity="1.00" stroke="None">
<path d="
M 54.00 189.00 
C 53.42 193.05 54.26 197.63 55.00 201.00
C 55.00 196.67 55.00 192.33 55.00 188.00
C 54.95 188.23 54.05 188.65 54.00 189.00 Z"/>
</g>
<g fill="#EBA77C" fill-opacity="1.00" stroke="None">
<path d="
M 55.00 222.00 
C 55.00 216.00 55.00 210.00 55.00 204.00
C 54.12 208.02 52.15 218.15 55.00 222.00 Z"/>
</g>
<g fill="#EDAD81" fill-opacity="1.00" stroke="None">
<path d="
M 234.00 230.00 
C 235.05 222.27 235.62 212.52 235.00 204.00
C 234.68 211.81 234.00 221.40 234.00 230.00 Z"/>
</g>
<g fill="#FACA75" fill-opacity="1.00" stroke="None">
<path d="
M 113.00 214.00 
C 102.52 216.06 94.49 227.04 84.00 229.00
C 95.01 237.21 109.35 245.65 122.30 252.70 C 135.26 259.74 148.73 269.63 162.00 273.00
C 162.56 276.52 169.94 281.79 174.00 282.00
C 184.58 282.56 193.73 267.25 204.00 266.00
C 201.67 259.26 187.07 257.36 181.25 251.75 C 175.42 246.15 162.65 241.73 156.10 237.90 C 149.55 234.07 140.17 226.94 132.75 224.25 C 125.33 221.56 121.20 212.38 113.00 214.00 Z"/>
</g>
<g fill="#EBA77C" fill-opacity="1.00" stroke="None">
<path d="
M 55.00 246.00 
C 54.38 238.45 55.00 230.58 55.00 223.00
C 51.77 227.37 53.91 241.15 55.00 246.00 Z"/>
</g>
<g fill="#F0B287" fill-opacity="1.00" stroke="None">
<path d="
M 258.00 261.00 
C 250.85 256.32 242.92 251.46 235.00 248.00
C 235.67 243.32 234.54 237.98 234.00 234.00
C 234.00 243.47 234.39 248.99 242.25 252.75 C 250.12 256.50 252.44 257.58 258.00 261.00 Z"/>
</g>
<g fill="#F0B48B" fill-opacity="1.00" stroke="None">
<path d="
M 69.00 256.00 
C 65.67 252.74 60.98 251.53 57.00 249.00
C 59.07 250.90 66.64 257.64 69.00 256.00 Z"/>
</g>
<g fill="#EFAD82" fill-opacity="1.00" stroke="None">
<path d="
M 109.00 279.00 
C 95.96 271.39 82.83 263.98 70.00 256.00
C 72.29 261.53 84.20 264.80 89.26 268.74 C 94.32 272.68 103.95 277.13 109.00 279.00 Z"/>
</g>
<g fill="#CB4D03" fill-opacity="1.00" stroke="None">
<path d="
M 174.00 282.00 
C 176.25 286.55 172.82 293.91 174.00 299.00 C 175.18 304.09 173.12 310.77 174.00 316.00
C 175.59 316.04 178.51 313.68 180.00 313.00
C 184.62 310.89 189.25 308.76 193.00 306.00
C 195.05 304.49 203.01 301.28 204.00 299.00
C 205.47 294.54 203.91 286.67 204.00 282.00 C 204.09 277.33 205.48 270.30 204.00 266.00
C 193.73 267.25 184.58 282.56 174.00 282.00 Z"/>
</g>
<g fill="#EFB18A" fill-opacity="1.00" stroke="None">
<path d="
M 125.00 289.00 
C 122.15 284.63 116.19 283.38 112.00 281.00
C 115.37 283.78 120.50 287.96 125.00 289.00 Z"/>
</g>
<g fill="#EEAF87" fill-opacity="1.00" stroke="None">
<path d="
M 137.00 296.00 
C 133.42 293.59 130.63 290.07 126.00 289.00
C 127.96 292.13 133.64 294.43 137.00 296.00 Z"/>
</g>
<g fill="#E59E71" fill-opacity="1.00" stroke="None">
<path d="
M 193.00 306.00 
C 196.17 304.40 202.65 303.10 204.00 299.00
C 203.01 301.28 195.05 304.49 193.00 306.00 Z"/>
</g>
<g fill="#EDAC82" fill-opacity="1.00" stroke="None">
<path d="
M 180.00 313.00 
C 178.51 313.68 175.59 316.04 174.00 316.00
C 168.34 315.85 159.20 307.32 154.00 305.00
C 163.46 310.44 169.90 319.65 180.00 313.00 Z"/>
</g>
</svg>