<svg xmlns="http://www.w3.org/2000/svg" xmlns:v="https://svgstorm.com"
viewBox = "0 0 225 225"
width="225"
height="225">
<g fill="None" fill-opacity="0.0" stroke="#FEFEFE" stroke-opacity="1.00" stroke-width="0.3"><path d="
M 0.00 225.00 
L 225.00 225.00
L 225.00 0.00
L 0.00 0.00
L 0.00 225.00
M 116.00 93.00 
C 115.50 93.01 114.41 93.19 114.00 93.00
C 112.69 93.41 112.85 95.88 113.00 97.00
C 121.53 96.23 131.50 96.67 140.00 97.00 C 148.50 97.33 159.62 95.00 167.00 98.00
C 169.67 99.09 169.91 99.32 171.00 102.00
C 174.08 109.57 172.90 126.32 171.00 134.00
C 169.52 139.98 167.73 141.52 163.25 146.25 C 158.77 150.98 150.82 146.85 146.00 148.00
C 142.77 157.62 130.81 165.95 119.98 167.98 C 109.14 170.00 95.29 162.05 90.00 152.00
C 89.09 150.26 88.55 148.84 88.00 147.00
C 87.52 145.40 86.90 143.80 87.00 142.00
C 81.53 142.00 74.29 142.33 69.00 142.00 C 63.71 141.67 56.83 144.14 54.00 139.00
C 50.70 133.02 52.91 120.28 53.00 113.00 C 53.09 105.72 50.66 92.05 54.00 86.00
C 57.44 79.76 68.27 83.66 75.00 83.00 C 81.73 82.34 92.87 83.00 100.00 83.00
C 93.33 67.67 112.03 51.17 125.74 61.26 C 139.46 71.34 132.64 92.57 116.00 93.00
M 157.00 68.00 
C 173.26 70.00 169.70 96.79 153.00 94.00 C 136.30 91.21 140.57 65.98 157.00 68.00 Z"/>
</g>
<g fill="None" fill-opacity="0.0" stroke="#7A83E8" stroke-opacity="1.00" stroke-width="0.3"><path d="
M 100.00 83.00 
C 106.28 83.00 121.14 81.42 116.00 93.00
C 132.64 92.57 139.46 71.34 125.74 61.26 C 112.03 51.17 93.33 67.67 100.00 83.00 Z"/>
</g>
<g fill="None" fill-opacity="0.0" stroke="#505ACA" stroke-opacity="1.00" stroke-width="0.3"><path d="
M 157.00 68.00 
C 140.57 65.98 136.30 91.21 153.00 94.00 C 169.70 96.79 173.26 70.00 157.00 68.00 Z"/>
</g>
<g fill="None" fill-opacity="0.0" stroke="#4850BB" stroke-opacity="1.00" stroke-width="0.3"><path d="
M 54.00 86.00 
C 51.55 92.72 53.88 104.70 54.00 112.00 C 54.12 119.30 51.50 132.15 54.00 139.00
C 56.83 144.14 63.71 141.67 69.00 142.00 C 74.29 142.33 81.53 142.00 87.00 142.00
C 96.10 142.00 114.00 145.84 113.00 133.00 C 112.00 120.16 113.96 110.53 113.00 98.00
C 112.87 96.32 110.12 91.20 114.00 93.00
C 114.41 93.19 115.50 93.01 116.00 93.00
C 121.14 81.42 106.28 83.00 100.00 83.00
C 92.87 83.00 81.73 82.34 75.00 83.00 C 68.27 83.66 57.44 79.76 54.00 86.00
M 98.00 101.00 
C 96.10 103.75 89.86 101.00 87.00 102.00
C 84.74 105.22 88.10 111.92 87.00 116.00 C 85.90 120.08 87.83 126.69 87.00 131.00
C 78.60 133.50 78.50 127.41 79.00 121.00 C 79.50 114.59 78.63 108.39 79.00 102.00
C 76.06 100.99 69.92 103.79 68.00 101.00
C 66.91 99.42 68.82 95.77 68.00 94.00
C 78.00 94.00 88.00 94.00 98.00 94.00
C 98.00 96.33 98.00 98.67 98.00 101.00 Z"/>
</g>
<g fill="None" fill-opacity="0.0" stroke="#9598D5" stroke-opacity="1.00" stroke-width="0.3"><path d="
M 54.00 139.00 
C 51.50 132.15 54.12 119.30 54.00 112.00 C 53.88 104.70 51.55 92.72 54.00 86.00
C 50.66 92.05 53.09 105.72 53.00 113.00 C 52.91 120.28 50.70 133.02 54.00 139.00 Z"/>
</g>
<g fill="None" fill-opacity="0.0" stroke="#A4A7D4" stroke-opacity="1.00" stroke-width="0.3"><path d="
M 113.00 98.00 
C 112.75 97.73 113.00 97.00 113.00 97.00
C 112.85 95.88 112.69 93.41 114.00 93.00
C 110.12 91.20 112.87 96.32 113.00 98.00 Z"/>
</g>
<g fill="None" fill-opacity="0.0" stroke="#F6F7FB" stroke-opacity="1.00" stroke-width="0.3"><path d="
M 68.00 101.00 
C 70.95 102.00 77.05 99.22 79.00 102.00
C 78.63 108.39 79.50 114.59 79.00 121.00 C 78.50 127.41 78.60 133.50 87.00 131.00
C 87.83 126.69 85.90 120.08 87.00 116.00 C 88.10 111.92 84.74 105.22 87.00 102.00
C 88.92 99.25 95.12 101.99 98.00 101.00
C 98.00 98.67 98.00 96.33 98.00 94.00
C 88.00 94.00 78.00 94.00 68.00 94.00
C 68.82 95.77 66.91 99.42 68.00 101.00 Z"/>
</g>
<g fill="None" fill-opacity="0.0" stroke="#DEE0F4" stroke-opacity="1.00" stroke-width="0.3"><path d="
M 113.00 98.00 
C 113.24 98.26 115.61 98.00 116.00 98.00
C 125.00 98.00 134.00 98.00 143.00 98.00
C 150.24 98.00 160.01 96.24 167.00 98.00
C 159.62 95.00 148.50 97.33 140.00 97.00 C 131.50 96.67 121.53 96.23 113.00 97.00
C 113.00 97.00 112.75 97.73 113.00 98.00 Z"/>
</g>
<g fill="None" fill-opacity="0.0" stroke="#3D427C" stroke-opacity="1.00" stroke-width="0.3"><path d="
M 87.00 142.00 
C 86.90 143.80 87.52 145.40 88.00 147.00
C 89.79 143.68 98.90 147.22 102.00 146.00 C 105.10 144.78 113.82 148.04 116.00 144.00
C 116.31 128.67 115.77 113.33 116.00 98.00
C 115.61 98.00 113.24 98.26 113.00 98.00
C 113.96 110.53 112.00 120.16 113.00 133.00 C 114.00 145.84 96.10 142.00 87.00 142.00 Z"/>
</g>
<g fill="None" fill-opacity="0.0" stroke="#7A82E9" stroke-opacity="1.00" stroke-width="0.3"><path d="
M 116.00 144.00 
C 115.88 150.13 113.83 155.02 107.00 153.00 C 100.17 150.98 95.34 156.19 90.00 152.00
C 95.29 162.05 109.14 170.00 119.98 167.98 C 130.81 165.95 142.77 157.62 146.00 148.00
C 147.66 143.07 146.01 128.69 146.00 123.00 C 145.99 117.31 148.98 100.43 143.00 98.00
C 134.00 98.00 125.00 98.00 116.00 98.00
C 115.77 113.33 116.31 128.67 116.00 144.00 Z"/>
</g>
<g fill="None" fill-opacity="0.0" stroke="#4E57C9" stroke-opacity="1.00" stroke-width="0.3"><path d="
M 146.00 148.00 
C 150.82 146.85 158.77 150.98 163.25 146.25 C 167.73 141.52 169.52 139.98 171.00 134.00
C 172.07 125.35 173.12 110.42 171.00 102.00
C 169.91 99.32 169.67 99.09 167.00 98.00
C 160.01 96.24 150.24 98.00 143.00 98.00
C 148.98 100.43 145.99 117.31 146.00 123.00 C 146.01 128.69 147.66 143.07 146.00 148.00 Z"/>
</g>
<g fill="None" fill-opacity="0.0" stroke="#9396D6" stroke-opacity="1.00" stroke-width="0.3"><path d="
M 79.00 102.00 
C 77.05 99.22 70.95 102.00 68.00 101.00
C 69.92 103.79 76.06 100.99 79.00 102.00 Z"/>
</g>
<g fill="None" fill-opacity="0.0" stroke="#9194D4" stroke-opacity="1.00" stroke-width="0.3"><path d="
M 87.00 102.00 
C 89.86 101.00 96.10 103.75 98.00 101.00
C 95.12 101.99 88.92 99.25 87.00 102.00 Z"/>
</g>
<g fill="None" fill-opacity="0.0" stroke="#979CDD" stroke-opacity="1.00" stroke-width="0.3"><path d="
M 171.00 134.00 
C 172.90 126.32 174.08 109.57 171.00 102.00
C 173.12 110.42 172.07 125.35 171.00 134.00 Z"/>
</g>
<g fill="None" fill-opacity="0.0" stroke="#5C63B3" stroke-opacity="1.00" stroke-width="0.3"><path d="
M 88.00 147.00 
C 88.55 148.84 89.09 150.26 90.00 152.00
C 95.34 156.19 100.17 150.98 107.00 153.00 C 113.83 155.02 115.88 150.13 116.00 144.00
C 113.82 148.04 105.10 144.78 102.00 146.00 C 98.90 147.22 89.79 143.68 88.00 147.00 Z"/>
</g>
<g fill="#FEFEFE" fill-opacity="1.00" stroke="None">
<path d="
M 0.00 225.00 
L 225.00 225.00
L 225.00 0.00
L 0.00 0.00
L 0.00 225.00
M 116.00 93.00 
C 115.50 93.01 114.41 93.19 114.00 93.00
C 112.69 93.41 112.85 95.88 113.00 97.00
C 121.53 96.23 131.50 96.67 140.00 97.00 C 148.50 97.33 159.62 95.00 167.00 98.00
C 169.67 99.09 169.91 99.32 171.00 102.00
C 174.08 109.57 172.90 126.32 171.00 134.00
C 169.52 139.98 167.73 141.52 163.25 146.25 C 158.77 150.98 150.82 146.85 146.00 148.00
C 142.77 157.62 130.81 165.95 119.98 167.98 C 109.14 170.00 95.29 162.05 90.00 152.00
C 89.09 150.26 88.55 148.84 88.00 147.00
C 87.52 145.40 86.90 143.80 87.00 142.00
C 81.53 142.00 74.29 142.33 69.00 142.00 C 63.71 141.67 56.83 144.14 54.00 139.00
C 50.70 133.02 52.91 120.28 53.00 113.00 C 53.09 105.72 50.66 92.05 54.00 86.00
C 57.44 79.76 68.27 83.66 75.00 83.00 C 81.73 82.34 92.87 83.00 100.00 83.00
C 93.33 67.67 112.03 51.17 125.74 61.26 C 139.46 71.34 132.64 92.57 116.00 93.00
M 157.00 68.00 
C 173.26 70.00 169.70 96.79 153.00 94.00 C 136.30 91.21 140.57 65.98 157.00 68.00 Z"/>
</g>
<g fill="#7A83E8" fill-opacity="1.00" stroke="None">
<path d="
M 100.00 83.00 
C 106.28 83.00 121.14 81.42 116.00 93.00
C 132.64 92.57 139.46 71.34 125.74 61.26 C 112.03 51.17 93.33 67.67 100.00 83.00 Z"/>
</g>
<g fill="#505ACA" fill-opacity="1.00" stroke="None">
<path d="
M 157.00 68.00 
C 140.57 65.98 136.30 91.21 153.00 94.00 C 169.70 96.79 173.26 70.00 157.00 68.00 Z"/>
</g>
<g fill="#4850BB" fill-opacity="1.00" stroke="None">
<path d="
M 54.00 86.00 
C 51.55 92.72 53.88 104.70 54.00 112.00 C 54.12 119.30 51.50 132.15 54.00 139.00
C 56.83 144.14 63.71 141.67 69.00 142.00 C 74.29 142.33 81.53 142.00 87.00 142.00
C 96.10 142.00 114.00 145.84 113.00 133.00 C 112.00 120.16 113.96 110.53 113.00 98.00
C 112.87 96.32 110.12 91.20 114.00 93.00
C 114.41 93.19 115.50 93.01 116.00 93.00
C 121.14 81.42 106.28 83.00 100.00 83.00
C 92.87 83.00 81.73 82.34 75.00 83.00 C 68.27 83.66 57.44 79.76 54.00 86.00
M 98.00 101.00 
C 96.10 103.75 89.86 101.00 87.00 102.00
C 84.74 105.22 88.10 111.92 87.00 116.00 C 85.90 120.08 87.83 126.69 87.00 131.00
C 78.60 133.50 78.50 127.41 79.00 121.00 C 79.50 114.59 78.63 108.39 79.00 102.00
C 76.06 100.99 69.92 103.79 68.00 101.00
C 66.91 99.42 68.82 95.77 68.00 94.00
C 78.00 94.00 88.00 94.00 98.00 94.00
C 98.00 96.33 98.00 98.67 98.00 101.00 Z"/>
</g>
<g fill="#9598D5" fill-opacity="1.00" stroke="None">
<path d="
M 54.00 139.00 
C 51.50 132.15 54.12 119.30 54.00 112.00 C 53.88 104.70 51.55 92.72 54.00 86.00
C 50.66 92.05 53.09 105.72 53.00 113.00 C 52.91 120.28 50.70 133.02 54.00 139.00 Z"/>
</g>
<g fill="#A4A7D4" fill-opacity="1.00" stroke="None">
<path d="
M 113.00 98.00 
C 112.75 97.73 113.00 97.00 113.00 97.00
C 112.85 95.88 112.69 93.41 114.00 93.00
C 110.12 91.20 112.87 96.32 113.00 98.00 Z"/>
</g>
<g fill="#F6F7FB" fill-opacity="1.00" stroke="None">
<path d="
M 68.00 101.00 
C 70.95 102.00 77.05 99.22 79.00 102.00
C 78.63 108.39 79.50 114.59 79.00 121.00 C 78.50 127.41 78.60 133.50 87.00 131.00
C 87.83 126.69 85.90 120.08 87.00 116.00 C 88.10 111.92 84.74 105.22 87.00 102.00
C 88.92 99.25 95.12 101.99 98.00 101.00
C 98.00 98.67 98.00 96.33 98.00 94.00
C 88.00 94.00 78.00 94.00 68.00 94.00
C 68.82 95.77 66.91 99.42 68.00 101.00 Z"/>
</g>
<g fill="#DEE0F4" fill-opacity="1.00" stroke="None">
<path d="
M 113.00 98.00 
C 113.24 98.26 115.61 98.00 116.00 98.00
C 125.00 98.00 134.00 98.00 143.00 98.00
C 150.24 98.00 160.01 96.24 167.00 98.00
C 159.62 95.00 148.50 97.33 140.00 97.00 C 131.50 96.67 121.53 96.23 113.00 97.00
C 113.00 97.00 112.75 97.73 113.00 98.00 Z"/>
</g>
<g fill="#3D427C" fill-opacity="1.00" stroke="None">
<path d="
M 87.00 142.00 
C 86.90 143.80 87.52 145.40 88.00 147.00
C 89.79 143.68 98.90 147.22 102.00 146.00 C 105.10 144.78 113.82 148.04 116.00 144.00
C 116.31 128.67 115.77 113.33 116.00 98.00
C 115.61 98.00 113.24 98.26 113.00 98.00
C 113.96 110.53 112.00 120.16 113.00 133.00 C 114.00 145.84 96.10 142.00 87.00 142.00 Z"/>
</g>
<g fill="#7A82E9" fill-opacity="1.00" stroke="None">
<path d="
M 116.00 144.00 
C 115.88 150.13 113.83 155.02 107.00 153.00 C 100.17 150.98 95.34 156.19 90.00 152.00
C 95.29 162.05 109.14 170.00 119.98 167.98 C 130.81 165.95 142.77 157.62 146.00 148.00
C 147.66 143.07 146.01 128.69 146.00 123.00 C 145.99 117.31 148.98 100.43 143.00 98.00
C 134.00 98.00 125.00 98.00 116.00 98.00
C 115.77 113.33 116.31 128.67 116.00 144.00 Z"/>
</g>
<g fill="#4E57C9" fill-opacity="1.00" stroke="None">
<path d="
M 146.00 148.00 
C 150.82 146.85 158.77 150.98 163.25 146.25 C 167.73 141.52 169.52 139.98 171.00 134.00
C 172.07 125.35 173.12 110.42 171.00 102.00
C 169.91 99.32 169.67 99.09 167.00 98.00
C 160.01 96.24 150.24 98.00 143.00 98.00
C 148.98 100.43 145.99 117.31 146.00 123.00 C 146.01 128.69 147.66 143.07 146.00 148.00 Z"/>
</g>
<g fill="#9396D6" fill-opacity="1.00" stroke="None">
<path d="
M 79.00 102.00 
C 77.05 99.22 70.95 102.00 68.00 101.00
C 69.92 103.79 76.06 100.99 79.00 102.00 Z"/>
</g>
<g fill="#9194D4" fill-opacity="1.00" stroke="None">
<path d="
M 87.00 102.00 
C 89.86 101.00 96.10 103.75 98.00 101.00
C 95.12 101.99 88.92 99.25 87.00 102.00 Z"/>
</g>
<g fill="#979CDD" fill-opacity="1.00" stroke="None">
<path d="
M 171.00 134.00 
C 172.90 126.32 174.08 109.57 171.00 102.00
C 173.12 110.42 172.07 125.35 171.00 134.00 Z"/>
</g>
<g fill="#5C63B3" fill-opacity="1.00" stroke="None">
<path d="
M 88.00 147.00 
C 88.55 148.84 89.09 150.26 90.00 152.00
C 95.34 156.19 100.17 150.98 107.00 153.00 C 113.83 155.02 115.88 150.13 116.00 144.00
C 113.82 148.04 105.10 144.78 102.00 146.00 C 98.90 147.22 89.79 143.68 88.00 147.00 Z"/>
</g>
</svg>