<svg xmlns="http://www.w3.org/2000/svg" xmlns:v="https://svgstorm.com"
viewBox = "0 0 998 1002"
width="998"
height="1002">
<g fill="None" fill-opacity="0.0" stroke="#000000" stroke-opacity="0.00" stroke-width="0.3"><path d="
M 0.00 249.00 
C 13.13 242.26 25.92 236.76 39.07 230.07 C 52.23 223.39 63.49 216.15 77.22 210.22 C 90.96 204.30 102.83 191.50 116.00 202.00
C 119.11 204.48 122.83 207.34 126.00 210.00
C 144.33 225.36 164.87 239.80 184.08 254.92 C 203.29 270.04 222.38 286.41 242.00 301.00
C 244.30 302.71 246.91 304.20 249.00 306.00
C 254.13 310.43 259.69 315.17 265.00 319.00
C 267.17 320.57 269.01 322.36 271.00 324.00
C 286.91 337.07 306.79 347.48 321.00 363.00
C 323.95 365.30 327.21 367.70 330.00 370.00
C 336.69 375.49 345.93 379.90 351.00 387.00
C 357.25 389.93 364.73 373.64 370.92 369.92 C 377.11 366.19 384.30 354.92 390.75 349.75 C 397.21 344.58 404.04 336.10 410.30 330.30 C 416.55 324.50 423.58 316.96 430.25 310.25 C 436.92 303.53 443.06 297.35 449.75 290.75 C 456.45 284.16 462.94 277.03 470.00 271.00
C 476.92 264.08 484.13 256.87 491.00 250.00
C 510.10 227.65 532.92 207.58 553.75 186.75 C 574.58 165.92 594.70 143.05 617.00 124.00
C 620.59 120.41 624.46 116.54 628.00 113.00
C 662.33 72.83 705.14 39.62 740.00 0.00
L 0.00 0.00
L 0.00 249.00 Z"/>
</g>
<g fill="None" fill-opacity="0.0" stroke="#007ACD" stroke-opacity="0.20" stroke-width="0.3"><path d="
M 628.00 113.00 
C 624.63 116.94 620.89 120.67 617.00 124.00
C 594.70 143.05 574.58 165.92 553.75 186.75 C 532.92 207.58 510.10 227.65 491.00 250.00
C 484.69 257.39 477.34 264.73 470.00 271.00
C 462.94 277.03 456.45 284.16 449.75 290.75 C 443.06 297.35 436.92 303.53 430.25 310.25 C 423.58 316.96 416.55 324.50 410.30 330.30 C 404.04 336.10 397.21 344.58 390.75 349.75 C 384.30 354.92 377.11 366.19 370.92 369.92 C 364.73 373.64 357.25 389.93 351.00 387.00
C 357.40 389.15 363.58 377.98 369.75 372.75 C 375.93 367.53 382.07 360.00 388.25 354.25 C 394.43 348.50 400.56 341.75 406.75 335.75 C 412.94 329.75 419.03 323.38 425.25 317.25 C 431.47 311.12 438.03 304.43 444.25 298.25 C 450.47 292.07 456.55 285.93 462.75 279.75 C 468.95 273.57 475.05 267.44 481.25 261.25 C 487.45 255.06 493.53 248.97 499.75 242.75 C 505.97 236.53 512.53 229.97 518.75 223.75 C 524.98 217.53 531.05 211.45 537.25 205.25 C 543.45 199.05 549.55 192.95 555.75 186.75 C 561.95 180.55 568.02 174.47 574.25 168.25 C 580.47 162.03 587.03 155.47 593.25 149.25 C 599.47 143.02 605.55 136.95 611.75 130.75 C 617.95 124.55 624.05 118.45 630.25 112.25 C 636.45 106.05 642.53 99.98 648.75 93.75 C 654.97 87.52 661.53 80.98 667.75 74.75 C 673.97 68.52 680.06 62.46 686.25 56.25 C 692.44 50.03 698.58 43.99 704.75 37.75 C 710.93 31.52 717.08 25.55 723.25 19.25 C 729.41 12.95 736.36 6.66 742.00 0.00
L 740.00 0.00
C 705.14 39.62 662.33 72.83 628.00 113.00 Z"/>
</g>
<g fill="None" fill-opacity="0.0" stroke="#0179CA" stroke-opacity="0.89" stroke-width="0.3"><path d="
M 351.00 387.00 
C 350.86 386.80 351.39 391.35 354.00 390.00
C 365.27 377.72 377.48 366.14 389.25 354.25 C 401.01 342.35 412.95 330.61 424.75 318.75 C 436.55 306.89 448.43 295.09 460.25 283.25 C 472.07 271.40 483.92 259.59 495.75 247.75 C 507.58 235.92 519.41 224.07 531.25 212.25 C 543.09 200.42 554.91 188.57 566.75 176.75 C 578.60 164.94 590.38 153.04 602.25 141.25 C 614.11 129.46 625.85 117.48 637.75 105.75 C 649.66 94.02 661.26 81.85 673.25 70.25 C 685.24 58.64 696.57 46.08 708.75 34.75 C 720.94 23.42 731.90 8.16 746.00 1.00
C 745.94 0.99 746.00 0.00 746.00 0.00
L 742.00 0.00
C 736.36 6.66 729.41 12.95 723.25 19.25 C 717.08 25.55 710.93 31.52 704.75 37.75 C 698.58 43.99 692.44 50.03 686.25 56.25 C 680.06 62.46 673.97 68.52 667.75 74.75 C 661.53 80.98 654.97 87.52 648.75 93.75 C 642.53 99.98 636.45 106.05 630.25 112.25 C 624.05 118.45 617.95 124.55 611.75 130.75 C 605.55 136.95 599.47 143.02 593.25 149.25 C 587.03 155.47 580.47 162.03 574.25 168.25 C 568.02 174.47 561.95 180.55 555.75 186.75 C 549.55 192.95 543.45 199.05 537.25 205.25 C 531.05 211.45 524.98 217.53 518.75 223.75 C 512.53 229.97 505.97 236.53 499.75 242.75 C 493.53 248.97 487.45 255.06 481.25 261.25 C 475.05 267.44 468.95 273.57 462.75 279.75 C 456.55 285.93 450.47 292.07 444.25 298.25 C 438.03 304.43 431.47 311.12 425.25 317.25 C 419.03 323.38 412.94 329.75 406.75 335.75 C 400.56 341.75 394.43 348.50 388.25 354.25 C 382.07 360.00 375.93 367.53 369.75 372.75 C 363.58 377.98 357.40 389.15 351.00 387.00 Z"/>
</g>
<g fill="None" fill-opacity="0.0" stroke="#000000" stroke-opacity="0.00" stroke-width="0.3"><path d="
M 746.00 1.00 
C 762.32 2.87 776.85 14.69 792.68 19.32 C 808.50 23.95 824.27 32.31 840.07 37.93 C 855.88 43.54 871.43 50.77 887.22 56.78 C 903.02 62.78 918.71 69.22 934.25 75.75 C 949.78 82.29 966.37 87.52 982.00 94.00
C 983.20 94.50 984.09 95.50 985.00 96.00
C 989.00 98.21 994.18 98.06 998.00 101.00
L 998.00 0.00
L 746.00 0.00
C 746.00 0.00 745.94 0.99 746.00 1.00 Z"/>
</g>
<g fill="None" fill-opacity="0.0" stroke="#0078CA" stroke-opacity="1.00" stroke-width="0.3"><path d="
M 351.00 387.00 
C 345.93 379.90 336.69 375.49 330.00 370.00
C 327.12 368.56 324.10 366.39 321.00 363.00
C 306.79 347.48 286.91 337.07 271.00 324.00
C 268.61 322.91 266.31 320.69 265.00 319.00
C 259.69 315.17 254.13 310.43 249.00 306.00
C 251.24 306.83 247.48 307.37 245.75 305.25 C 244.03 303.12 242.57 301.69 242.00 301.00
C 222.38 286.41 203.29 270.04 184.08 254.92 C 164.87 239.80 144.33 225.36 126.00 210.00
C 122.62 208.42 117.94 204.62 116.00 202.00
C 102.83 191.50 90.96 204.30 77.22 210.22 C 63.49 216.15 52.23 223.39 39.07 230.07 C 25.92 236.76 13.13 242.26 0.00 249.00
L 0.00 754.00
C 9.40 756.93 18.18 763.11 27.22 766.78 C 36.26 770.44 44.66 777.09 53.70 780.31 C 62.73 783.52 71.39 791.25 80.25 793.75 C 89.11 796.26 99.78 807.51 109.00 806.00
C 108.96 801.97 114.66 801.87 116.00 801.00
C 125.51 792.87 135.93 785.16 145.00 778.00
C 146.39 776.10 148.76 774.08 151.00 773.00
C 153.64 770.89 157.19 768.20 160.00 766.00
C 161.05 764.58 161.18 764.46 164.00 763.00
C 195.89 736.78 228.33 713.56 260.00 688.00
C 260.77 687.00 262.59 685.64 264.00 685.00
C 266.39 683.16 269.54 680.92 272.00 679.00
C 273.39 677.02 275.70 675.08 278.00 674.00
C 303.21 652.88 331.05 635.40 356.00 614.00
C 412.36 672.92 475.92 735.96 532.00 791.00
C 551.39 802.63 566.32 826.33 584.75 842.25 C 603.19 858.17 619.73 878.35 637.75 895.25 C 655.77 912.15 672.90 930.88 690.75 948.25 C 708.60 965.61 726.72 984.17 744.00 1002.00
L 748.00 1002.00
C 830.35 966.17 914.99 934.30 998.00 899.00
L 998.00 101.00
C 994.18 98.06 989.00 98.21 985.00 96.00
C 983.73 95.57 983.86 95.16 982.00 94.00
C 966.37 87.52 949.78 82.29 934.25 75.75 C 918.71 69.22 903.02 62.78 887.22 56.78 C 871.43 50.77 855.88 43.54 840.07 37.93 C 824.27 32.31 808.50 23.95 792.68 19.32 C 776.85 14.69 762.32 2.87 746.00 1.00
C 731.90 8.16 720.94 23.42 708.75 34.75 C 696.57 46.08 685.24 58.64 673.25 70.25 C 661.26 81.85 649.66 94.02 637.75 105.75 C 625.85 117.48 614.11 129.46 602.25 141.25 C 590.38 153.04 578.60 164.94 566.75 176.75 C 554.91 188.57 543.09 200.42 531.25 212.25 C 519.41 224.07 507.58 235.92 495.75 247.75 C 483.92 259.59 472.07 271.40 460.25 283.25 C 448.43 295.09 436.55 306.89 424.75 318.75 C 412.95 330.61 401.01 342.35 389.25 354.25 C 377.48 366.14 365.27 377.72 354.00 390.00
C 351.39 391.35 350.86 386.80 351.00 387.00
M 706.00 658.00 
C 703.00 656.67 700.64 655.29 699.00 653.00
C 694.79 649.54 690.31 646.37 686.00 643.00
C 684.14 642.13 681.98 640.18 681.00 639.00
C 667.84 629.22 654.91 618.89 642.00 609.00
C 636.70 606.59 629.48 599.78 626.00 596.00
C 622.47 593.35 618.73 590.89 615.00 588.00
C 612.41 586.81 611.45 585.75 609.00 583.00
C 591.50 570.24 574.85 557.17 558.00 544.00
C 555.68 542.99 554.25 541.70 553.00 540.00
C 552.01 539.25 550.96 538.66 550.00 538.00
C 547.38 537.04 545.34 534.62 544.00 533.00
C 535.97 527.26 527.02 520.53 519.00 514.00
C 516.07 512.65 513.70 510.19 512.00 508.00
C 509.50 506.01 506.90 503.61 504.00 502.00
C 578.83 441.08 656.79 382.82 734.00 323.00
C 734.00 441.67 734.00 560.33 734.00 679.00
C 724.07 672.63 715.33 664.42 706.00 658.00
M 122.00 388.00 
C 122.29 388.22 122.80 388.68 123.00 389.00
C 127.07 392.17 130.69 396.16 134.00 400.00
C 141.05 406.98 147.51 414.54 155.00 421.00
C 165.68 430.22 180.50 443.43 187.00 454.00
C 198.84 473.24 224.88 486.15 237.00 506.00
C 216.87 523.05 195.87 542.69 176.00 561.00
C 175.02 562.46 172.40 567.78 169.00 569.00
C 168.45 567.18 170.75 566.53 171.00 565.00
C 164.60 570.86 158.46 577.32 152.00 583.00
C 150.75 584.78 147.69 590.46 144.00 592.00
C 143.47 590.72 144.97 590.14 145.00 589.00
C 143.90 589.96 142.96 591.02 142.00 592.00
C 139.99 595.19 136.03 598.21 133.00 600.00
C 127.50 604.89 122.09 609.73 117.00 614.00
C 117.67 538.16 115.67 461.01 118.00 386.00
C 117.27 385.09 116.49 384.03 116.00 383.00
C 118.64 383.16 120.62 386.02 122.00 388.00 Z"/>
</g>
<g fill="None" fill-opacity="0.0" stroke="#0095C7" stroke-opacity="0.29" stroke-width="0.3"><path d="
M 985.00 96.00 
C 984.09 95.50 983.20 94.50 982.00 94.00
C 983.86 95.16 983.73 95.57 985.00 96.00 Z"/>
</g>
<g fill="None" fill-opacity="0.0" stroke="#008DCF" stroke-opacity="0.02" stroke-width="0.3"><path d="
M 617.00 124.00 
C 620.89 120.67 624.63 116.94 628.00 113.00
C 624.46 116.54 620.59 120.41 617.00 124.00 Z"/>
</g>
<g fill="None" fill-opacity="0.0" stroke="#0075D6" stroke-opacity="0.34" stroke-width="0.3"><path d="
M 126.00 210.00 
C 122.83 207.34 119.11 204.48 116.00 202.00
C 117.94 204.62 122.62 208.42 126.00 210.00 Z"/>
</g>
<g fill="None" fill-opacity="0.0" stroke="#007CE3" stroke-opacity="0.01" stroke-width="0.3"><path d="
M 470.00 271.00 
C 477.34 264.73 484.69 257.39 491.00 250.00
C 484.13 256.87 476.92 264.08 470.00 271.00 Z"/>
</g>
<g fill="None" fill-opacity="0.0" stroke="#0082D2" stroke-opacity="0.36" stroke-width="0.3"><path d="
M 249.00 306.00 
C 246.91 304.20 244.30 302.71 242.00 301.00
C 242.57 301.69 244.03 303.12 245.75 305.25 C 247.48 307.37 251.24 306.83 249.00 306.00 Z"/>
</g>
<g fill="None" fill-opacity="0.0" stroke="#0075CF" stroke-opacity="0.37" stroke-width="0.3"><path d="
M 271.00 324.00 
C 269.01 322.36 267.17 320.57 265.00 319.00
C 266.31 320.69 268.61 322.91 271.00 324.00 Z"/>
</g>
<g fill="None" fill-opacity="0.0" stroke="#000000" stroke-opacity="0.00" stroke-width="0.3"><path d="
M 512.00 508.00 
C 514.44 509.95 516.72 512.14 519.00 514.00
C 527.02 520.53 535.97 527.26 544.00 533.00
C 546.09 534.49 548.08 536.67 550.00 538.00
C 550.96 538.66 552.01 539.25 553.00 540.00
C 554.69 541.27 556.42 542.77 558.00 544.00
C 574.85 557.17 591.50 570.24 609.00 583.00
C 611.16 584.57 613.07 586.51 615.00 588.00
C 618.73 590.89 622.47 593.35 626.00 596.00
C 631.52 600.14 636.70 604.94 642.00 609.00
C 654.91 618.89 667.84 629.22 681.00 639.00
C 682.71 640.27 684.41 641.76 686.00 643.00
C 690.31 646.37 694.79 649.54 699.00 653.00
C 700.83 654.50 704.03 656.52 706.00 658.00
C 715.33 664.42 724.07 672.63 734.00 679.00
C 734.00 560.33 734.00 441.67 734.00 323.00
C 656.79 382.82 578.83 441.08 504.00 502.00
C 506.90 503.61 509.50 506.01 512.00 508.00 Z"/>
</g>
<g fill="None" fill-opacity="0.0" stroke="#0089CE" stroke-opacity="0.26" stroke-width="0.3"><path d="
M 330.00 370.00 
C 327.21 367.70 323.95 365.30 321.00 363.00
C 324.10 366.39 327.12 368.56 330.00 370.00 Z"/>
</g>
<g fill="None" fill-opacity="0.0" stroke="#0088D1" stroke-opacity="0.65" stroke-width="0.3"><path d="
M 118.00 386.00 
C 118.23 386.29 118.79 386.73 119.00 387.00
C 119.89 387.03 120.53 386.86 122.00 388.00
C 120.62 386.02 118.64 383.16 116.00 383.00
C 116.49 384.03 117.27 385.09 118.00 386.00 Z"/>
</g>
<g fill="None" fill-opacity="0.0" stroke="#000000" stroke-opacity="0.00" stroke-width="0.3"><path d="
M 133.00 600.00 
C 135.77 597.54 139.31 594.74 142.00 592.00
C 142.96 591.02 143.90 589.96 145.00 589.00
C 147.45 586.85 149.58 585.13 152.00 583.00
C 158.46 577.32 164.60 570.86 171.00 565.00
C 172.51 563.62 174.59 562.37 176.00 561.00
C 195.87 542.69 216.87 523.05 237.00 506.00
C 224.88 486.15 198.84 473.24 187.00 454.00
C 177.35 444.54 166.27 435.32 158.00 425.00
C 145.09 412.82 130.34 401.56 119.00 387.00
C 118.79 386.73 118.23 386.29 118.00 386.00
C 115.67 461.01 117.67 538.16 117.00 614.00
C 122.09 609.73 127.50 604.89 133.00 600.00 Z"/>
</g>
<g fill="None" fill-opacity="0.0" stroke="#007AD1" stroke-opacity="0.26" stroke-width="0.3"><path d="
M 119.00 387.00 
C 130.34 401.56 145.09 412.82 158.00 425.00
C 157.01 423.77 156.04 422.09 155.00 421.00
C 147.51 414.54 141.05 406.98 134.00 400.00
C 130.44 396.47 125.66 393.30 123.00 389.00
C 122.80 388.68 122.29 388.22 122.00 388.00
C 120.53 386.86 119.89 387.03 119.00 387.00 Z"/>
</g>
<g fill="None" fill-opacity="0.0" stroke="#0179CA" stroke-opacity="0.86" stroke-width="0.3"><path d="
M 134.00 400.00 
C 130.69 396.16 127.07 392.17 123.00 389.00
C 125.66 393.30 130.44 396.47 134.00 400.00 Z"/>
</g>
<g fill="None" fill-opacity="0.0" stroke="#007DC8" stroke-opacity="0.47" stroke-width="0.3"><path d="
M 158.00 425.00 
C 166.27 435.32 177.35 444.54 187.00 454.00
C 180.50 443.43 165.68 430.22 155.00 421.00
C 156.04 422.09 157.01 423.77 158.00 425.00 Z"/>
</g>
<g fill="None" fill-opacity="0.0" stroke="#0077CB" stroke-opacity="0.35" stroke-width="0.3"><path d="
M 519.00 514.00 
C 516.72 512.14 514.44 509.95 512.00 508.00
C 513.70 510.19 516.07 512.65 519.00 514.00 Z"/>
</g>
<g fill="None" fill-opacity="0.0" stroke="#0084D0" stroke-opacity="0.36" stroke-width="0.3"><path d="
M 550.00 538.00 
C 548.08 536.67 546.09 534.49 544.00 533.00
C 545.34 534.62 547.38 537.04 550.00 538.00 Z"/>
</g>
<g fill="None" fill-opacity="0.0" stroke="#0078C8" stroke-opacity="0.35" stroke-width="0.3"><path d="
M 558.00 544.00 
C 556.42 542.77 554.69 541.27 553.00 540.00
C 554.25 541.70 555.68 542.99 558.00 544.00 Z"/>
</g>
<g fill="None" fill-opacity="0.0" stroke="#007AC6" stroke-opacity="0.35" stroke-width="0.3"><path d="
M 171.00 565.00 
C 170.75 566.53 168.45 567.18 169.00 569.00
C 172.40 567.78 175.02 562.46 176.00 561.00
C 174.59 562.37 172.51 563.62 171.00 565.00 Z"/>
</g>
<g fill="None" fill-opacity="0.0" stroke="#0076CE" stroke-opacity="0.43" stroke-width="0.3"><path d="
M 145.00 589.00 
C 144.97 590.14 143.47 590.72 144.00 592.00
C 147.69 590.46 150.75 584.78 152.00 583.00
C 149.58 585.13 147.45 586.85 145.00 589.00 Z"/>
</g>
<g fill="None" fill-opacity="0.0" stroke="#0083CF" stroke-opacity="0.35" stroke-width="0.3"><path d="
M 615.00 588.00 
C 613.07 586.51 611.16 584.57 609.00 583.00
C 611.45 585.75 612.41 586.81 615.00 588.00 Z"/>
</g>
<g fill="None" fill-opacity="0.0" stroke="#007DD1" stroke-opacity="0.31" stroke-width="0.3"><path d="
M 133.00 600.00 
C 136.03 598.21 139.99 595.19 142.00 592.00
C 139.31 594.74 135.77 597.54 133.00 600.00 Z"/>
</g>
<g fill="None" fill-opacity="0.0" stroke="#007BCF" stroke-opacity="0.29" stroke-width="0.3"><path d="
M 642.00 609.00 
C 636.70 604.94 631.52 600.14 626.00 596.00
C 629.48 599.78 636.70 606.59 642.00 609.00 Z"/>
</g>
<g fill="None" fill-opacity="0.0" stroke="#000000" stroke-opacity="0.00" stroke-width="0.3"><path d="
M 278.00 674.00 
C 275.98 675.69 274.05 677.40 272.00 679.00
C 269.54 680.92 266.39 683.16 264.00 685.00
C 262.83 685.90 260.99 687.20 260.00 688.00
C 228.33 713.56 195.89 736.78 164.00 763.00
C 162.72 764.05 161.14 765.11 160.00 766.00
C 157.19 768.20 153.64 770.89 151.00 773.00
C 149.02 774.58 147.04 776.39 145.00 778.00
C 135.93 785.16 125.51 792.87 116.00 801.00
C 114.10 802.62 111.50 805.59 109.00 806.00
C 99.78 807.51 89.11 796.26 80.25 793.75 C 71.39 791.25 62.73 783.52 53.70 780.31 C 44.66 777.09 36.26 770.44 27.22 766.78 C 18.18 763.11 9.40 756.93 0.00 754.00
L 0.00 1002.00
L 741.00 1002.00
C 671.12 930.56 601.83 860.82 532.00 791.00
C 475.92 735.96 412.36 672.92 356.00 614.00
C 331.05 635.40 303.21 652.88 278.00 674.00 Z"/>
</g>
<g fill="None" fill-opacity="0.0" stroke="#007ACA" stroke-opacity="0.38" stroke-width="0.3"><path d="
M 686.00 643.00 
C 684.41 641.76 682.71 640.27 681.00 639.00
C 681.98 640.18 684.14 642.13 686.00 643.00 Z"/>
</g>
<g fill="None" fill-opacity="0.0" stroke="#008BD2" stroke-opacity="0.38" stroke-width="0.3"><path d="
M 706.00 658.00 
C 704.03 656.52 700.83 654.50 699.00 653.00
C 700.64 655.29 703.00 656.67 706.00 658.00 Z"/>
</g>
<g fill="None" fill-opacity="0.0" stroke="#007CD0" stroke-opacity="0.39" stroke-width="0.3"><path d="
M 272.00 679.00 
C 274.05 677.40 275.98 675.69 278.00 674.00
C 275.70 675.08 273.39 677.02 272.00 679.00 Z"/>
</g>
<g fill="None" fill-opacity="0.0" stroke="#0088D1" stroke-opacity="0.39" stroke-width="0.3"><path d="
M 260.00 688.00 
C 260.99 687.20 262.83 685.90 264.00 685.00
C 262.59 685.64 260.77 687.00 260.00 688.00 Z"/>
</g>
<g fill="None" fill-opacity="0.0" stroke="#0079CB" stroke-opacity="0.36" stroke-width="0.3"><path d="
M 160.00 766.00 
C 161.14 765.11 162.72 764.05 164.00 763.00
C 161.18 764.46 161.05 764.58 160.00 766.00 Z"/>
</g>
<g fill="None" fill-opacity="0.0" stroke="#0076C7" stroke-opacity="0.37" stroke-width="0.3"><path d="
M 145.00 778.00 
C 147.04 776.39 149.02 774.58 151.00 773.00
C 148.76 774.08 146.39 776.10 145.00 778.00 Z"/>
</g>
<g fill="None" fill-opacity="0.0" stroke="#007ECB" stroke-opacity="0.41" stroke-width="0.3"><path d="
M 532.00 791.00 
C 601.83 860.82 671.12 930.56 741.00 1002.00
L 744.00 1002.00
C 726.72 984.17 708.60 965.61 690.75 948.25 C 672.90 930.88 655.77 912.15 637.75 895.25 C 619.73 878.35 603.19 858.17 584.75 842.25 C 566.32 826.33 551.39 802.63 532.00 791.00 Z"/>
</g>
<g fill="None" fill-opacity="0.0" stroke="#008AD4" stroke-opacity="0.26" stroke-width="0.3"><path d="
M 109.00 806.00 
C 111.50 805.59 114.10 802.62 116.00 801.00
C 114.66 801.87 108.96 801.97 109.00 806.00 Z"/>
</g>
<g fill="None" fill-opacity="0.0" stroke="#000000" stroke-opacity="0.00" stroke-width="0.3"><path d="
M 748.00 1002.00 
L 998.00 1002.00
L 998.00 899.00
C 914.99 934.30 830.35 966.17 748.00 1002.00 Z"/>
</g>
<g fill="#000000" fill-opacity="0.00" stroke="None">
<path d="
M 0.00 249.00 
C 13.13 242.26 25.92 236.76 39.07 230.07 C 52.23 223.39 63.49 216.15 77.22 210.22 C 90.96 204.30 102.83 191.50 116.00 202.00
C 119.11 204.48 122.83 207.34 126.00 210.00
C 144.33 225.36 164.87 239.80 184.08 254.92 C 203.29 270.04 222.38 286.41 242.00 301.00
C 244.30 302.71 246.91 304.20 249.00 306.00
C 254.13 310.43 259.69 315.17 265.00 319.00
C 267.17 320.57 269.01 322.36 271.00 324.00
C 286.91 337.07 306.79 347.48 321.00 363.00
C 323.95 365.30 327.21 367.70 330.00 370.00
C 336.69 375.49 345.93 379.90 351.00 387.00
C 357.25 389.93 364.73 373.64 370.92 369.92 C 377.11 366.19 384.30 354.92 390.75 349.75 C 397.21 344.58 404.04 336.10 410.30 330.30 C 416.55 324.50 423.58 316.96 430.25 310.25 C 436.92 303.53 443.06 297.35 449.75 290.75 C 456.45 284.16 462.94 277.03 470.00 271.00
C 476.92 264.08 484.13 256.87 491.00 250.00
C 510.10 227.65 532.92 207.58 553.75 186.75 C 574.58 165.92 594.70 143.05 617.00 124.00
C 620.59 120.41 624.46 116.54 628.00 113.00
C 662.33 72.83 705.14 39.62 740.00 0.00
L 0.00 0.00
L 0.00 249.00 Z"/>
</g>
<g fill="#007ACD" fill-opacity="0.20" stroke="None">
<path d="
M 628.00 113.00 
C 624.63 116.94 620.89 120.67 617.00 124.00
C 594.70 143.05 574.58 165.92 553.75 186.75 C 532.92 207.58 510.10 227.65 491.00 250.00
C 484.69 257.39 477.34 264.73 470.00 271.00
C 462.94 277.03 456.45 284.16 449.75 290.75 C 443.06 297.35 436.92 303.53 430.25 310.25 C 423.58 316.96 416.55 324.50 410.30 330.30 C 404.04 336.10 397.21 344.58 390.75 349.75 C 384.30 354.92 377.11 366.19 370.92 369.92 C 364.73 373.64 357.25 389.93 351.00 387.00
C 357.40 389.15 363.58 377.98 369.75 372.75 C 375.93 367.53 382.07 360.00 388.25 354.25 C 394.43 348.50 400.56 341.75 406.75 335.75 C 412.94 329.75 419.03 323.38 425.25 317.25 C 431.47 311.12 438.03 304.43 444.25 298.25 C 450.47 292.07 456.55 285.93 462.75 279.75 C 468.95 273.57 475.05 267.44 481.25 261.25 C 487.45 255.06 493.53 248.97 499.75 242.75 C 505.97 236.53 512.53 229.97 518.75 223.75 C 524.98 217.53 531.05 211.45 537.25 205.25 C 543.45 199.05 549.55 192.95 555.75 186.75 C 561.95 180.55 568.02 174.47 574.25 168.25 C 580.47 162.03 587.03 155.47 593.25 149.25 C 599.47 143.02 605.55 136.95 611.75 130.75 C 617.95 124.55 624.05 118.45 630.25 112.25 C 636.45 106.05 642.53 99.98 648.75 93.75 C 654.97 87.52 661.53 80.98 667.75 74.75 C 673.97 68.52 680.06 62.46 686.25 56.25 C 692.44 50.03 698.58 43.99 704.75 37.75 C 710.93 31.52 717.08 25.55 723.25 19.25 C 729.41 12.95 736.36 6.66 742.00 0.00
L 740.00 0.00
C 705.14 39.62 662.33 72.83 628.00 113.00 Z"/>
</g>
<g fill="#0179CA" fill-opacity="0.89" stroke="None">
<path d="
M 351.00 387.00 
C 350.86 386.80 351.39 391.35 354.00 390.00
C 365.27 377.72 377.48 366.14 389.25 354.25 C 401.01 342.35 412.95 330.61 424.75 318.75 C 436.55 306.89 448.43 295.09 460.25 283.25 C 472.07 271.40 483.92 259.59 495.75 247.75 C 507.58 235.92 519.41 224.07 531.25 212.25 C 543.09 200.42 554.91 188.57 566.75 176.75 C 578.60 164.94 590.38 153.04 602.25 141.25 C 614.11 129.46 625.85 117.48 637.75 105.75 C 649.66 94.02 661.26 81.85 673.25 70.25 C 685.24 58.64 696.57 46.08 708.75 34.75 C 720.94 23.42 731.90 8.16 746.00 1.00
C 745.94 0.99 746.00 0.00 746.00 0.00
L 742.00 0.00
C 736.36 6.66 729.41 12.95 723.25 19.25 C 717.08 25.55 710.93 31.52 704.75 37.75 C 698.58 43.99 692.44 50.03 686.25 56.25 C 680.06 62.46 673.97 68.52 667.75 74.75 C 661.53 80.98 654.97 87.52 648.75 93.75 C 642.53 99.98 636.45 106.05 630.25 112.25 C 624.05 118.45 617.95 124.55 611.75 130.75 C 605.55 136.95 599.47 143.02 593.25 149.25 C 587.03 155.47 580.47 162.03 574.25 168.25 C 568.02 174.47 561.95 180.55 555.75 186.75 C 549.55 192.95 543.45 199.05 537.25 205.25 C 531.05 211.45 524.98 217.53 518.75 223.75 C 512.53 229.97 505.97 236.53 499.75 242.75 C 493.53 248.97 487.45 255.06 481.25 261.25 C 475.05 267.44 468.95 273.57 462.75 279.75 C 456.55 285.93 450.47 292.07 444.25 298.25 C 438.03 304.43 431.47 311.12 425.25 317.25 C 419.03 323.38 412.94 329.75 406.75 335.75 C 400.56 341.75 394.43 348.50 388.25 354.25 C 382.07 360.00 375.93 367.53 369.75 372.75 C 363.58 377.98 357.40 389.15 351.00 387.00 Z"/>
</g>
<g fill="#000000" fill-opacity="0.00" stroke="None">
<path d="
M 746.00 1.00 
C 762.32 2.87 776.85 14.69 792.68 19.32 C 808.50 23.95 824.27 32.31 840.07 37.93 C 855.88 43.54 871.43 50.77 887.22 56.78 C 903.02 62.78 918.71 69.22 934.25 75.75 C 949.78 82.29 966.37 87.52 982.00 94.00
C 983.20 94.50 984.09 95.50 985.00 96.00
C 989.00 98.21 994.18 98.06 998.00 101.00
L 998.00 0.00
L 746.00 0.00
C 746.00 0.00 745.94 0.99 746.00 1.00 Z"/>
</g>
<g fill="#0078CA" fill-opacity="1.00" stroke="None">
<path d="
M 351.00 387.00 
C 345.93 379.90 336.69 375.49 330.00 370.00
C 327.12 368.56 324.10 366.39 321.00 363.00
C 306.79 347.48 286.91 337.07 271.00 324.00
C 268.61 322.91 266.31 320.69 265.00 319.00
C 259.69 315.17 254.13 310.43 249.00 306.00
C 251.24 306.83 247.48 307.37 245.75 305.25 C 244.03 303.12 242.57 301.69 242.00 301.00
C 222.38 286.41 203.29 270.04 184.08 254.92 C 164.87 239.80 144.33 225.36 126.00 210.00
C 122.62 208.42 117.94 204.62 116.00 202.00
C 102.83 191.50 90.96 204.30 77.22 210.22 C 63.49 216.15 52.23 223.39 39.07 230.07 C 25.92 236.76 13.13 242.26 0.00 249.00
L 0.00 754.00
C 9.40 756.93 18.18 763.11 27.22 766.78 C 36.26 770.44 44.66 777.09 53.70 780.31 C 62.73 783.52 71.39 791.25 80.25 793.75 C 89.11 796.26 99.78 807.51 109.00 806.00
C 108.96 801.97 114.66 801.87 116.00 801.00
C 125.51 792.87 135.93 785.16 145.00 778.00
C 146.39 776.10 148.76 774.08 151.00 773.00
C 153.64 770.89 157.19 768.20 160.00 766.00
C 161.05 764.58 161.18 764.46 164.00 763.00
C 195.89 736.78 228.33 713.56 260.00 688.00
C 260.77 687.00 262.59 685.64 264.00 685.00
C 266.39 683.16 269.54 680.92 272.00 679.00
C 273.39 677.02 275.70 675.08 278.00 674.00
C 303.21 652.88 331.05 635.40 356.00 614.00
C 412.36 672.92 475.92 735.96 532.00 791.00
C 551.39 802.63 566.32 826.33 584.75 842.25 C 603.19 858.17 619.73 878.35 637.75 895.25 C 655.77 912.15 672.90 930.88 690.75 948.25 C 708.60 965.61 726.72 984.17 744.00 1002.00
L 748.00 1002.00
C 830.35 966.17 914.99 934.30 998.00 899.00
L 998.00 101.00
C 994.18 98.06 989.00 98.21 985.00 96.00
C 983.73 95.57 983.86 95.16 982.00 94.00
C 966.37 87.52 949.78 82.29 934.25 75.75 C 918.71 69.22 903.02 62.78 887.22 56.78 C 871.43 50.77 855.88 43.54 840.07 37.93 C 824.27 32.31 808.50 23.95 792.68 19.32 C 776.85 14.69 762.32 2.87 746.00 1.00
C 731.90 8.16 720.94 23.42 708.75 34.75 C 696.57 46.08 685.24 58.64 673.25 70.25 C 661.26 81.85 649.66 94.02 637.75 105.75 C 625.85 117.48 614.11 129.46 602.25 141.25 C 590.38 153.04 578.60 164.94 566.75 176.75 C 554.91 188.57 543.09 200.42 531.25 212.25 C 519.41 224.07 507.58 235.92 495.75 247.75 C 483.92 259.59 472.07 271.40 460.25 283.25 C 448.43 295.09 436.55 306.89 424.75 318.75 C 412.95 330.61 401.01 342.35 389.25 354.25 C 377.48 366.14 365.27 377.72 354.00 390.00
C 351.39 391.35 350.86 386.80 351.00 387.00
M 706.00 658.00 
C 703.00 656.67 700.64 655.29 699.00 653.00
C 694.79 649.54 690.31 646.37 686.00 643.00
C 684.14 642.13 681.98 640.18 681.00 639.00
C 667.84 629.22 654.91 618.89 642.00 609.00
C 636.70 606.59 629.48 599.78 626.00 596.00
C 622.47 593.35 618.73 590.89 615.00 588.00
C 612.41 586.81 611.45 585.75 609.00 583.00
C 591.50 570.24 574.85 557.17 558.00 544.00
C 555.68 542.99 554.25 541.70 553.00 540.00
C 552.01 539.25 550.96 538.66 550.00 538.00
C 547.38 537.04 545.34 534.62 544.00 533.00
C 535.97 527.26 527.02 520.53 519.00 514.00
C 516.07 512.65 513.70 510.19 512.00 508.00
C 509.50 506.01 506.90 503.61 504.00 502.00
C 578.83 441.08 656.79 382.82 734.00 323.00
C 734.00 441.67 734.00 560.33 734.00 679.00
C 724.07 672.63 715.33 664.42 706.00 658.00
M 122.00 388.00 
C 122.29 388.22 122.80 388.68 123.00 389.00
C 127.07 392.17 130.69 396.16 134.00 400.00
C 141.05 406.98 147.51 414.54 155.00 421.00
C 165.68 430.22 180.50 443.43 187.00 454.00
C 198.84 473.24 224.88 486.15 237.00 506.00
C 216.87 523.05 195.87 542.69 176.00 561.00
C 175.02 562.46 172.40 567.78 169.00 569.00
C 168.45 567.18 170.75 566.53 171.00 565.00
C 164.60 570.86 158.46 577.32 152.00 583.00
C 150.75 584.78 147.69 590.46 144.00 592.00
C 143.47 590.72 144.97 590.14 145.00 589.00
C 143.90 589.96 142.96 591.02 142.00 592.00
C 139.99 595.19 136.03 598.21 133.00 600.00
C 127.50 604.89 122.09 609.73 117.00 614.00
C 117.67 538.16 115.67 461.01 118.00 386.00
C 117.27 385.09 116.49 384.03 116.00 383.00
C 118.64 383.16 120.62 386.02 122.00 388.00 Z"/>
</g>
<g fill="#0095C7" fill-opacity="0.29" stroke="None">
<path d="
M 985.00 96.00 
C 984.09 95.50 983.20 94.50 982.00 94.00
C 983.86 95.16 983.73 95.57 985.00 96.00 Z"/>
</g>
<g fill="#008DCF" fill-opacity="0.02" stroke="None">
<path d="
M 617.00 124.00 
C 620.89 120.67 624.63 116.94 628.00 113.00
C 624.46 116.54 620.59 120.41 617.00 124.00 Z"/>
</g>
<g fill="#0075D6" fill-opacity="0.34" stroke="None">
<path d="
M 126.00 210.00 
C 122.83 207.34 119.11 204.48 116.00 202.00
C 117.94 204.62 122.62 208.42 126.00 210.00 Z"/>
</g>
<g fill="#007CE3" fill-opacity="0.01" stroke="None">
<path d="
M 470.00 271.00 
C 477.34 264.73 484.69 257.39 491.00 250.00
C 484.13 256.87 476.92 264.08 470.00 271.00 Z"/>
</g>
<g fill="#0082D2" fill-opacity="0.36" stroke="None">
<path d="
M 249.00 306.00 
C 246.91 304.20 244.30 302.71 242.00 301.00
C 242.57 301.69 244.03 303.12 245.75 305.25 C 247.48 307.37 251.24 306.83 249.00 306.00 Z"/>
</g>
<g fill="#0075CF" fill-opacity="0.37" stroke="None">
<path d="
M 271.00 324.00 
C 269.01 322.36 267.17 320.57 265.00 319.00
C 266.31 320.69 268.61 322.91 271.00 324.00 Z"/>
</g>
<g fill="#000000" fill-opacity="0.00" stroke="None">
<path d="
M 512.00 508.00 
C 514.44 509.95 516.72 512.14 519.00 514.00
C 527.02 520.53 535.97 527.26 544.00 533.00
C 546.09 534.49 548.08 536.67 550.00 538.00
C 550.96 538.66 552.01 539.25 553.00 540.00
C 554.69 541.27 556.42 542.77 558.00 544.00
C 574.85 557.17 591.50 570.24 609.00 583.00
C 611.16 584.57 613.07 586.51 615.00 588.00
C 618.73 590.89 622.47 593.35 626.00 596.00
C 631.52 600.14 636.70 604.94 642.00 609.00
C 654.91 618.89 667.84 629.22 681.00 639.00
C 682.71 640.27 684.41 641.76 686.00 643.00
C 690.31 646.37 694.79 649.54 699.00 653.00
C 700.83 654.50 704.03 656.52 706.00 658.00
C 715.33 664.42 724.07 672.63 734.00 679.00
C 734.00 560.33 734.00 441.67 734.00 323.00
C 656.79 382.82 578.83 441.08 504.00 502.00
C 506.90 503.61 509.50 506.01 512.00 508.00 Z"/>
</g>
<g fill="#0089CE" fill-opacity="0.26" stroke="None">
<path d="
M 330.00 370.00 
C 327.21 367.70 323.95 365.30 321.00 363.00
C 324.10 366.39 327.12 368.56 330.00 370.00 Z"/>
</g>
<g fill="#0088D1" fill-opacity="0.65" stroke="None">
<path d="
M 118.00 386.00 
C 118.23 386.29 118.79 386.73 119.00 387.00
C 119.89 387.03 120.53 386.86 122.00 388.00
C 120.62 386.02 118.64 383.16 116.00 383.00
C 116.49 384.03 117.27 385.09 118.00 386.00 Z"/>
</g>
<g fill="#000000" fill-opacity="0.00" stroke="None">
<path d="
M 133.00 600.00 
C 135.77 597.54 139.31 594.74 142.00 592.00
C 142.96 591.02 143.90 589.96 145.00 589.00
C 147.45 586.85 149.58 585.13 152.00 583.00
C 158.46 577.32 164.60 570.86 171.00 565.00
C 172.51 563.62 174.59 562.37 176.00 561.00
C 195.87 542.69 216.87 523.05 237.00 506.00
C 224.88 486.15 198.84 473.24 187.00 454.00
C 177.35 444.54 166.27 435.32 158.00 425.00
C 145.09 412.82 130.34 401.56 119.00 387.00
C 118.79 386.73 118.23 386.29 118.00 386.00
C 115.67 461.01 117.67 538.16 117.00 614.00
C 122.09 609.73 127.50 604.89 133.00 600.00 Z"/>
</g>
<g fill="#007AD1" fill-opacity="0.26" stroke="None">
<path d="
M 119.00 387.00 
C 130.34 401.56 145.09 412.82 158.00 425.00
C 157.01 423.77 156.04 422.09 155.00 421.00
C 147.51 414.54 141.05 406.98 134.00 400.00
C 130.44 396.47 125.66 393.30 123.00 389.00
C 122.80 388.68 122.29 388.22 122.00 388.00
C 120.53 386.86 119.89 387.03 119.00 387.00 Z"/>
</g>
<g fill="#0179CA" fill-opacity="0.86" stroke="None">
<path d="
M 134.00 400.00 
C 130.69 396.16 127.07 392.17 123.00 389.00
C 125.66 393.30 130.44 396.47 134.00 400.00 Z"/>
</g>
<g fill="#007DC8" fill-opacity="0.47" stroke="None">
<path d="
M 158.00 425.00 
C 166.27 435.32 177.35 444.54 187.00 454.00
C 180.50 443.43 165.68 430.22 155.00 421.00
C 156.04 422.09 157.01 423.77 158.00 425.00 Z"/>
</g>
<g fill="#0077CB" fill-opacity="0.35" stroke="None">
<path d="
M 519.00 514.00 
C 516.72 512.14 514.44 509.95 512.00 508.00
C 513.70 510.19 516.07 512.65 519.00 514.00 Z"/>
</g>
<g fill="#0084D0" fill-opacity="0.36" stroke="None">
<path d="
M 550.00 538.00 
C 548.08 536.67 546.09 534.49 544.00 533.00
C 545.34 534.62 547.38 537.04 550.00 538.00 Z"/>
</g>
<g fill="#0078C8" fill-opacity="0.35" stroke="None">
<path d="
M 558.00 544.00 
C 556.42 542.77 554.69 541.27 553.00 540.00
C 554.25 541.70 555.68 542.99 558.00 544.00 Z"/>
</g>
<g fill="#007AC6" fill-opacity="0.35" stroke="None">
<path d="
M 171.00 565.00 
C 170.75 566.53 168.45 567.18 169.00 569.00
C 172.40 567.78 175.02 562.46 176.00 561.00
C 174.59 562.37 172.51 563.62 171.00 565.00 Z"/>
</g>
<g fill="#0076CE" fill-opacity="0.43" stroke="None">
<path d="
M 145.00 589.00 
C 144.97 590.14 143.47 590.72 144.00 592.00
C 147.69 590.46 150.75 584.78 152.00 583.00
C 149.58 585.13 147.45 586.85 145.00 589.00 Z"/>
</g>
<g fill="#0083CF" fill-opacity="0.35" stroke="None">
<path d="
M 615.00 588.00 
C 613.07 586.51 611.16 584.57 609.00 583.00
C 611.45 585.75 612.41 586.81 615.00 588.00 Z"/>
</g>
<g fill="#007DD1" fill-opacity="0.31" stroke="None">
<path d="
M 133.00 600.00 
C 136.03 598.21 139.99 595.19 142.00 592.00
C 139.31 594.74 135.77 597.54 133.00 600.00 Z"/>
</g>
<g fill="#007BCF" fill-opacity="0.29" stroke="None">
<path d="
M 642.00 609.00 
C 636.70 604.94 631.52 600.14 626.00 596.00
C 629.48 599.78 636.70 606.59 642.00 609.00 Z"/>
</g>
<g fill="#000000" fill-opacity="0.00" stroke="None">
<path d="
M 278.00 674.00 
C 275.98 675.69 274.05 677.40 272.00 679.00
C 269.54 680.92 266.39 683.16 264.00 685.00
C 262.83 685.90 260.99 687.20 260.00 688.00
C 228.33 713.56 195.89 736.78 164.00 763.00
C 162.72 764.05 161.14 765.11 160.00 766.00
C 157.19 768.20 153.64 770.89 151.00 773.00
C 149.02 774.58 147.04 776.39 145.00 778.00
C 135.93 785.16 125.51 792.87 116.00 801.00
C 114.10 802.62 111.50 805.59 109.00 806.00
C 99.78 807.51 89.11 796.26 80.25 793.75 C 71.39 791.25 62.73 783.52 53.70 780.31 C 44.66 777.09 36.26 770.44 27.22 766.78 C 18.18 763.11 9.40 756.93 0.00 754.00
L 0.00 1002.00
L 741.00 1002.00
C 671.12 930.56 601.83 860.82 532.00 791.00
C 475.92 735.96 412.36 672.92 356.00 614.00
C 331.05 635.40 303.21 652.88 278.00 674.00 Z"/>
</g>
<g fill="#007ACA" fill-opacity="0.38" stroke="None">
<path d="
M 686.00 643.00 
C 684.41 641.76 682.71 640.27 681.00 639.00
C 681.98 640.18 684.14 642.13 686.00 643.00 Z"/>
</g>
<g fill="#008BD2" fill-opacity="0.38" stroke="None">
<path d="
M 706.00 658.00 
C 704.03 656.52 700.83 654.50 699.00 653.00
C 700.64 655.29 703.00 656.67 706.00 658.00 Z"/>
</g>
<g fill="#007CD0" fill-opacity="0.39" stroke="None">
<path d="
M 272.00 679.00 
C 274.05 677.40 275.98 675.69 278.00 674.00
C 275.70 675.08 273.39 677.02 272.00 679.00 Z"/>
</g>
<g fill="#0088D1" fill-opacity="0.39" stroke="None">
<path d="
M 260.00 688.00 
C 260.99 687.20 262.83 685.90 264.00 685.00
C 262.59 685.64 260.77 687.00 260.00 688.00 Z"/>
</g>
<g fill="#0079CB" fill-opacity="0.36" stroke="None">
<path d="
M 160.00 766.00 
C 161.14 765.11 162.72 764.05 164.00 763.00
C 161.18 764.46 161.05 764.58 160.00 766.00 Z"/>
</g>
<g fill="#0076C7" fill-opacity="0.37" stroke="None">
<path d="
M 145.00 778.00 
C 147.04 776.39 149.02 774.58 151.00 773.00
C 148.76 774.08 146.39 776.10 145.00 778.00 Z"/>
</g>
<g fill="#007ECB" fill-opacity="0.41" stroke="None">
<path d="
M 532.00 791.00 
C 601.83 860.82 671.12 930.56 741.00 1002.00
L 744.00 1002.00
C 726.72 984.17 708.60 965.61 690.75 948.25 C 672.90 930.88 655.77 912.15 637.75 895.25 C 619.73 878.35 603.19 858.17 584.75 842.25 C 566.32 826.33 551.39 802.63 532.00 791.00 Z"/>
</g>
<g fill="#008AD4" fill-opacity="0.26" stroke="None">
<path d="
M 109.00 806.00 
C 111.50 805.59 114.10 802.62 116.00 801.00
C 114.66 801.87 108.96 801.97 109.00 806.00 Z"/>
</g>
<g fill="#000000" fill-opacity="0.00" stroke="None">
<path d="
M 748.00 1002.00 
L 998.00 1002.00
L 998.00 899.00
C 914.99 934.30 830.35 966.17 748.00 1002.00 Z"/>
</g>
</svg>