<svg xmlns="http://www.w3.org/2000/svg" xmlns:v="https://svgstorm.com"
viewBox = "0 0 360 360"
width="360"
height="360">
<g fill="None" fill-opacity="0.0" stroke="#F5F6F6" stroke-opacity="1.00" stroke-width="0.3"><path d="
M 0.00 360.00 
L 360.00 360.00
L 360.00 0.00
L 0.00 0.00
L 0.00 360.00
M 202.00 26.00 
C 202.00 36.33 202.00 46.67 202.00 57.00
C 222.44 55.97 239.19 58.37 260.00 57.00 C 280.81 55.63 296.99 59.58 319.00 57.00 C 341.01 54.42 345.02 72.41 343.00 92.00 C 340.98 111.59 343.59 130.47 343.00 150.00 C 342.41 169.53 342.60 189.52 343.00 209.00 C 343.40 228.48 341.35 248.70 343.00 268.00 C 344.65 287.30 341.72 304.98 320.00 303.00 C 298.28 301.02 281.74 304.03 261.00 303.00 C 240.26 301.97 222.47 303.78 202.00 303.00
C 202.00 313.33 202.00 323.67 202.00 334.00
C 140.95 322.90 80.22 310.53 19.00 300.00
C 19.00 220.00 19.00 140.00 19.00 60.00
C 80.16 49.33 140.86 36.85 202.00 26.00 Z"/>
</g>
<g fill="None" fill-opacity="0.0" stroke="#285396" stroke-opacity="1.00" stroke-width="0.3"><path d="
M 202.00 26.00 
C 140.86 36.85 80.16 49.33 19.00 60.00
C 19.00 140.00 19.00 220.00 19.00 300.00
C 80.22 310.53 140.95 322.90 202.00 334.00
C 202.00 323.67 202.00 313.33 202.00 303.00
C 222.47 303.78 240.26 301.97 261.00 303.00 C 281.74 304.03 298.28 301.02 320.00 303.00 C 341.72 304.98 344.65 287.30 343.00 268.00 C 341.35 248.70 343.40 228.48 343.00 209.00 C 342.60 189.52 342.41 169.53 343.00 150.00 C 343.59 130.47 340.98 111.59 343.00 92.00 C 345.02 72.41 341.01 54.42 319.00 57.00 C 296.99 59.58 280.81 55.63 260.00 57.00 C 239.19 58.37 222.44 55.97 202.00 57.00
C 202.00 46.67 202.00 36.33 202.00 26.00
M 203.00 291.00 
C 202.75 290.74 203.00 290.00 203.00 290.00
C 201.34 287.75 199.51 273.64 202.33 270.33 C 205.15 267.02 217.63 269.76 223.00 269.00 C 228.37 268.24 237.78 269.59 244.00 269.00 C 250.22 268.41 259.64 269.80 266.00 269.00 C 272.36 268.20 281.06 270.62 287.00 269.00 C 292.94 267.38 304.21 272.35 309.00 269.00
C 307.47 265.74 311.04 258.91 309.00 256.00
C 304.00 251.00 290.46 256.60 283.00 255.00 C 275.54 253.40 264.28 255.75 256.00 255.00 C 247.72 254.25 237.63 255.39 229.00 255.00 C 220.37 254.61 210.72 255.29 202.00 255.00
C 202.00 248.67 202.00 242.33 202.00 236.00
C 237.67 236.00 273.33 236.00 309.00 236.00
C 309.00 231.33 309.00 226.67 309.00 222.00
C 304.27 218.69 294.03 223.48 288.00 222.00 C 281.97 220.52 273.69 222.64 267.00 222.00 C 260.31 221.36 251.95 222.31 245.00 222.00 C 238.05 221.69 231.09 222.16 224.00 222.00 C 216.91 221.84 209.15 222.12 202.00 222.00
C 202.00 215.67 202.00 209.33 202.00 203.00
C 237.67 203.00 273.33 203.00 309.00 203.00
C 309.00 198.33 309.00 193.67 309.00 189.00
C 304.30 185.71 293.93 190.55 288.00 189.00 C 282.07 187.45 273.44 189.83 267.00 189.00 C 260.56 188.17 252.58 189.67 246.00 189.00 C 239.42 188.33 231.43 189.95 225.00 189.00 C 218.57 188.05 209.91 190.87 204.00 189.00 C 198.09 187.13 204.28 174.06 202.00 170.00
C 237.67 170.00 273.33 170.00 309.00 170.00
C 309.00 165.33 309.00 160.67 309.00 156.00
C 304.27 152.69 294.03 157.48 288.00 156.00 C 281.97 154.52 273.69 156.64 267.00 156.00 C 260.31 155.36 251.95 156.31 245.00 156.00 C 238.05 155.69 231.09 156.16 224.00 156.00 C 216.91 155.84 209.15 156.12 202.00 156.00
C 202.00 149.33 202.00 142.67 202.00 136.00
C 237.67 136.00 273.33 136.00 309.00 136.00
C 309.00 131.33 309.00 126.67 309.00 122.00
C 304.27 118.69 294.03 123.48 288.00 122.00 C 281.97 120.52 273.69 122.64 267.00 122.00 C 260.31 121.36 251.95 122.31 245.00 122.00 C 238.05 121.69 231.09 122.16 224.00 122.00 C 216.91 121.84 209.15 122.12 202.00 122.00
C 199.08 109.27 202.77 101.19 215.00 103.00 C 227.23 104.81 235.67 102.25 247.00 103.00 C 258.33 103.75 268.14 102.81 279.00 103.00 C 289.86 103.19 300.14 103.69 310.00 102.00
C 307.79 98.58 309.58 93.18 309.00 89.00
C 304.27 85.69 293.95 90.60 288.00 89.00 C 282.05 87.40 273.47 89.95 267.00 89.00 C 260.53 88.05 251.48 89.97 245.00 89.00 C 238.52 88.03 230.00 90.70 224.00 89.00 C 218.00 87.30 206.85 92.40 202.00 89.00
C 200.47 87.93 198.66 72.08 201.33 69.33 C 204.00 66.58 215.63 68.37 221.00 68.00 C 226.37 67.63 235.72 68.17 242.00 68.00 C 248.28 67.83 256.28 68.08 263.00 68.00 C 269.72 67.92 277.04 68.05 284.00 68.00 C 290.96 67.95 297.81 68.05 305.00 68.00 C 312.19 67.95 318.46 68.08 326.00 68.00 C 333.54 67.92 330.74 77.72 331.00 84.00 C 331.26 90.28 330.89 98.33 331.00 105.00 C 331.11 111.67 330.95 119.15 331.00 126.00 C 331.05 132.85 330.99 140.08 331.00 147.00 C 331.01 153.92 331.01 161.06 331.00 168.00 C 330.99 174.94 331.04 182.07 331.00 189.00 C 330.96 195.93 331.10 203.14 331.00 210.00 C 330.90 216.86 331.22 224.29 331.00 231.00 C 330.78 237.71 331.50 245.63 331.00 252.00 C 330.50 258.37 332.11 267.40 331.00 273.00 C 329.89 278.60 334.42 289.55 328.92 291.92 C 323.41 294.28 314.29 291.03 308.00 292.00 C 301.71 292.97 293.60 291.65 287.00 292.00 C 280.40 292.35 272.64 292.05 266.00 292.00 C 259.36 291.95 251.45 292.47 245.00 292.00 C 238.55 291.53 229.89 293.20 224.00 292.00 C 218.11 290.80 206.93 295.06 203.00 291.00
M 78.00 199.00 
C 78.17 198.59 79.88 198.26 80.00 198.00
C 84.54 175.59 89.64 153.48 94.00 131.00
C 100.53 129.83 107.45 130.17 114.00 129.00
C 119.38 152.89 125.46 176.61 129.00 201.00
C 129.15 200.61 130.91 200.23 131.00 200.00
C 132.66 188.89 134.62 180.32 136.00 169.00 C 137.38 157.67 141.58 151.33 141.93 138.93 C 142.28 126.53 152.67 124.79 165.00 125.00
C 158.28 159.64 148.06 193.40 141.00 228.00
C 133.39 228.75 126.56 226.48 119.00 227.00
C 113.41 203.83 107.59 180.71 104.00 157.00
C 101.09 166.32 98.67 173.66 97.07 184.07 C 95.48 194.48 91.70 201.47 91.00 213.00 C 90.30 224.54 79.18 226.35 68.00 223.00
C 63.00 193.09 55.70 163.76 50.00 134.00
C 56.02 133.83 61.76 132.38 68.00 133.00
C 69.80 155.37 76.33 176.57 78.00 199.00 Z"/>
</g>
<g fill="None" fill-opacity="0.0" stroke="#11418C" stroke-opacity="1.00" stroke-width="0.3"><path d="
M 202.00 89.00 
C 202.00 82.33 202.00 75.67 202.00 69.00
C 244.67 69.00 287.33 69.00 330.00 69.00
C 330.00 142.67 330.00 216.33 330.00 290.00
C 327.09 294.16 315.49 289.81 310.00 291.00 C 304.51 292.19 295.44 290.51 289.00 291.00 C 282.56 291.49 273.80 290.81 267.00 291.00 C 260.20 291.19 252.95 291.03 246.00 291.00 C 239.05 290.97 232.06 291.27 225.00 291.00 C 217.94 290.73 210.09 291.64 203.00 291.00
C 206.93 295.06 218.11 290.80 224.00 292.00 C 229.89 293.20 238.55 291.53 245.00 292.00 C 251.45 292.47 259.36 291.95 266.00 292.00 C 272.64 292.05 280.40 292.35 287.00 292.00 C 293.60 291.65 301.71 292.97 308.00 292.00 C 314.29 291.03 323.41 294.28 328.92 291.92 C 334.42 289.55 329.89 278.60 331.00 273.00 C 332.11 267.40 330.50 258.37 331.00 252.00 C 331.50 245.63 330.78 237.71 331.00 231.00 C 331.22 224.29 330.90 216.86 331.00 210.00 C 331.10 203.14 330.96 195.93 331.00 189.00 C 331.04 182.07 330.99 174.94 331.00 168.00 C 331.01 161.06 331.01 153.92 331.00 147.00 C 330.99 140.08 331.05 132.85 331.00 126.00 C 330.95 119.15 331.11 111.67 331.00 105.00 C 330.89 98.33 331.26 90.28 331.00 84.00 C 330.74 77.72 333.54 67.92 326.00 68.00 C 318.46 68.08 312.19 67.95 305.00 68.00 C 297.81 68.05 290.96 67.95 284.00 68.00 C 277.04 68.05 269.72 67.92 263.00 68.00 C 256.28 68.08 248.28 67.83 242.00 68.00 C 235.72 68.17 226.37 67.63 221.00 68.00 C 215.63 68.37 204.00 66.58 201.33 69.33 C 198.66 72.08 200.47 87.93 202.00 89.00 Z"/>
</g>
<g fill="None" fill-opacity="0.0" stroke="#FBFCFD" stroke-opacity="1.00" stroke-width="0.3"><path d="
M 202.00 89.00 
C 206.85 92.40 218.00 87.30 224.00 89.00 C 230.00 90.70 238.52 88.03 245.00 89.00 C 251.48 89.97 260.53 88.05 267.00 89.00 C 273.47 89.95 282.05 87.40 288.00 89.00 C 293.95 90.60 304.27 85.69 309.00 89.00
C 310.35 89.95 311.11 100.42 310.00 102.00
C 300.14 103.69 289.86 103.19 279.00 103.00 C 268.14 102.81 258.33 103.75 247.00 103.00 C 235.67 102.25 227.23 104.81 215.00 103.00 C 202.77 101.19 199.08 109.27 202.00 122.00
C 209.15 122.12 216.91 121.84 224.00 122.00 C 231.09 122.16 238.05 121.69 245.00 122.00 C 251.95 122.31 260.31 121.36 267.00 122.00 C 273.69 122.64 281.97 120.52 288.00 122.00 C 294.03 123.48 304.27 118.69 309.00 122.00
C 310.91 123.34 310.85 134.70 309.00 136.00
C 273.33 136.00 237.67 136.00 202.00 136.00
C 202.00 142.67 202.00 149.33 202.00 156.00
C 209.15 156.12 216.91 155.84 224.00 156.00 C 231.09 156.16 238.05 155.69 245.00 156.00 C 251.95 156.31 260.31 155.36 267.00 156.00 C 273.69 156.64 281.97 154.52 288.00 156.00 C 294.03 157.48 304.27 152.69 309.00 156.00
C 310.91 157.34 310.85 168.70 309.00 170.00
C 273.33 170.00 237.67 170.00 202.00 170.00
C 204.28 174.06 198.09 187.13 204.00 189.00 C 209.91 190.87 218.57 188.05 225.00 189.00 C 231.43 189.95 239.42 188.33 246.00 189.00 C 252.58 189.67 260.56 188.17 267.00 189.00 C 273.44 189.83 282.07 187.45 288.00 189.00 C 293.93 190.55 304.30 185.71 309.00 189.00
C 310.91 190.34 310.85 201.70 309.00 203.00
C 273.33 203.00 237.67 203.00 202.00 203.00
C 202.00 209.33 202.00 215.67 202.00 222.00
C 209.15 222.12 216.91 221.84 224.00 222.00 C 231.09 222.16 238.05 221.69 245.00 222.00 C 251.95 222.31 260.31 221.36 267.00 222.00 C 273.69 222.64 281.97 220.52 288.00 222.00 C 294.03 223.48 304.27 218.69 309.00 222.00
C 310.91 223.34 310.85 234.70 309.00 236.00
C 273.33 236.00 237.67 236.00 202.00 236.00
C 202.00 242.33 202.00 248.67 202.00 255.00
C 210.72 255.29 220.37 254.61 229.00 255.00 C 237.63 255.39 247.72 254.25 256.00 255.00 C 264.28 255.75 275.54 253.40 283.00 255.00 C 290.46 256.60 304.00 251.00 309.00 256.00
C 310.65 257.65 311.05 267.57 309.00 269.00
C 304.21 272.35 292.94 267.38 287.00 269.00 C 281.06 270.62 272.36 268.20 266.00 269.00 C 259.64 269.80 250.22 268.41 244.00 269.00 C 237.78 269.59 228.37 268.24 223.00 269.00 C 217.63 269.76 205.15 267.02 202.33 270.33 C 199.51 273.64 201.34 287.75 203.00 290.00
C 244.99 286.20 287.92 292.85 330.00 290.00
C 330.00 216.33 330.00 142.67 330.00 69.00
C 287.33 69.00 244.67 69.00 202.00 69.00
C 202.00 75.67 202.00 82.33 202.00 89.00 Z"/>
</g>
<g fill="None" fill-opacity="0.0" stroke="#7E98C1" stroke-opacity="1.00" stroke-width="0.3"><path d="
M 310.00 102.00 
C 311.11 100.42 310.35 89.95 309.00 89.00
C 309.58 93.18 307.79 98.58 310.00 102.00 Z"/>
</g>
<g fill="None" fill-opacity="0.0" stroke="#7E98C1" stroke-opacity="1.00" stroke-width="0.3"><path d="
M 309.00 136.00 
C 310.85 134.70 310.91 123.34 309.00 122.00
C 309.00 126.67 309.00 131.33 309.00 136.00 Z"/>
</g>
<g fill="None" fill-opacity="0.0" stroke="#FCFCFD" stroke-opacity="1.00" stroke-width="0.3"><path d="
M 131.00 200.00 
C 130.76 201.63 131.18 203.36 131.00 205.00
C 128.47 205.63 129.10 202.47 129.00 201.00
C 125.46 176.61 119.38 152.89 114.00 129.00
C 107.45 130.17 100.53 129.83 94.00 131.00
C 89.64 153.48 84.54 175.59 80.00 198.00
C 79.65 199.75 79.53 201.28 79.00 203.00
C 77.40 202.47 78.28 200.25 78.00 199.00
C 76.33 176.57 69.80 155.37 68.00 133.00
C 61.76 132.38 56.02 133.83 50.00 134.00
C 55.70 163.76 63.00 193.09 68.00 223.00
C 79.18 226.35 90.30 224.54 91.00 213.00 C 91.70 201.47 95.48 194.48 97.07 184.07 C 98.67 173.66 101.09 166.32 104.00 157.00
C 107.59 180.71 113.41 203.83 119.00 227.00
C 126.56 226.48 133.39 228.75 141.00 228.00
C 148.06 193.40 158.28 159.64 165.00 125.00
C 152.67 124.79 142.28 126.53 141.93 138.93 C 141.58 151.33 137.38 157.67 136.00 169.00 C 134.62 180.32 132.66 188.89 131.00 200.00 Z"/>
</g>
<g fill="None" fill-opacity="0.0" stroke="#7E98C1" stroke-opacity="1.00" stroke-width="0.3"><path d="
M 309.00 170.00 
C 310.85 168.70 310.91 157.34 309.00 156.00
C 309.00 160.67 309.00 165.33 309.00 170.00 Z"/>
</g>
<g fill="None" fill-opacity="0.0" stroke="#7E98C1" stroke-opacity="1.00" stroke-width="0.3"><path d="
M 309.00 203.00 
C 310.85 201.70 310.91 190.34 309.00 189.00
C 309.00 193.67 309.00 198.33 309.00 203.00 Z"/>
</g>
<g fill="None" fill-opacity="0.0" stroke="#8BA3C7" stroke-opacity="1.00" stroke-width="0.3"><path d="
M 78.00 199.00 
C 78.28 200.25 77.40 202.47 79.00 203.00
C 79.53 201.28 79.65 199.75 80.00 198.00
C 79.88 198.26 78.17 198.59 78.00 199.00 Z"/>
</g>
<g fill="None" fill-opacity="0.0" stroke="#97ACCC" stroke-opacity="1.00" stroke-width="0.3"><path d="
M 129.00 201.00 
C 129.10 202.47 128.47 205.63 131.00 205.00
C 131.18 203.36 130.76 201.63 131.00 200.00
C 130.91 200.23 129.15 200.61 129.00 201.00 Z"/>
</g>
<g fill="None" fill-opacity="0.0" stroke="#7E98C1" stroke-opacity="1.00" stroke-width="0.3"><path d="
M 309.00 236.00 
C 310.85 234.70 310.91 223.34 309.00 222.00
C 309.00 226.67 309.00 231.33 309.00 236.00 Z"/>
</g>
<g fill="None" fill-opacity="0.0" stroke="#7E98C1" stroke-opacity="1.00" stroke-width="0.3"><path d="
M 309.00 269.00 
C 311.05 267.57 310.65 257.65 309.00 256.00
C 311.04 258.91 307.47 265.74 309.00 269.00 Z"/>
</g>
<g fill="None" fill-opacity="0.0" stroke="#7E98C1" stroke-opacity="1.00" stroke-width="0.3"><path d="
M 203.00 291.00 
C 210.09 291.64 217.94 290.73 225.00 291.00 C 232.06 291.27 239.05 290.97 246.00 291.00 C 252.95 291.03 260.20 291.19 267.00 291.00 C 273.80 290.81 282.56 291.49 289.00 291.00 C 295.44 290.51 304.51 292.19 310.00 291.00 C 315.49 289.81 327.09 294.16 330.00 290.00
C 287.92 292.85 244.99 286.20 203.00 290.00
C 203.00 290.00 202.75 290.74 203.00 291.00 Z"/>
</g>
<g fill="#F5F6F6" fill-opacity="1.00" stroke="None">
<path d="
M 0.00 360.00 
L 360.00 360.00
L 360.00 0.00
L 0.00 0.00
L 0.00 360.00
M 202.00 26.00 
C 202.00 36.33 202.00 46.67 202.00 57.00
C 222.44 55.97 239.19 58.37 260.00 57.00 C 280.81 55.63 296.99 59.58 319.00 57.00 C 341.01 54.42 345.02 72.41 343.00 92.00 C 340.98 111.59 343.59 130.47 343.00 150.00 C 342.41 169.53 342.60 189.52 343.00 209.00 C 343.40 228.48 341.35 248.70 343.00 268.00 C 344.65 287.30 341.72 304.98 320.00 303.00 C 298.28 301.02 281.74 304.03 261.00 303.00 C 240.26 301.97 222.47 303.78 202.00 303.00
C 202.00 313.33 202.00 323.67 202.00 334.00
C 140.95 322.90 80.22 310.53 19.00 300.00
C 19.00 220.00 19.00 140.00 19.00 60.00
C 80.16 49.33 140.86 36.85 202.00 26.00 Z"/>
</g>
<g fill="#285396" fill-opacity="1.00" stroke="None">
<path d="
M 202.00 26.00 
C 140.86 36.85 80.16 49.33 19.00 60.00
C 19.00 140.00 19.00 220.00 19.00 300.00
C 80.22 310.53 140.95 322.90 202.00 334.00
C 202.00 323.67 202.00 313.33 202.00 303.00
C 222.47 303.78 240.26 301.97 261.00 303.00 C 281.74 304.03 298.28 301.02 320.00 303.00 C 341.72 304.98 344.65 287.30 343.00 268.00 C 341.35 248.70 343.40 228.48 343.00 209.00 C 342.60 189.52 342.41 169.53 343.00 150.00 C 343.59 130.47 340.98 111.59 343.00 92.00 C 345.02 72.41 341.01 54.42 319.00 57.00 C 296.99 59.58 280.81 55.63 260.00 57.00 C 239.19 58.37 222.44 55.97 202.00 57.00
C 202.00 46.67 202.00 36.33 202.00 26.00
M 203.00 291.00 
C 202.75 290.74 203.00 290.00 203.00 290.00
C 201.34 287.75 199.51 273.64 202.33 270.33 C 205.15 267.02 217.63 269.76 223.00 269.00 C 228.37 268.24 237.78 269.59 244.00 269.00 C 250.22 268.41 259.64 269.80 266.00 269.00 C 272.36 268.20 281.06 270.62 287.00 269.00 C 292.94 267.38 304.21 272.35 309.00 269.00
C 307.47 265.74 311.04 258.91 309.00 256.00
C 304.00 251.00 290.46 256.60 283.00 255.00 C 275.54 253.40 264.28 255.75 256.00 255.00 C 247.72 254.25 237.63 255.39 229.00 255.00 C 220.37 254.61 210.72 255.29 202.00 255.00
C 202.00 248.67 202.00 242.33 202.00 236.00
C 237.67 236.00 273.33 236.00 309.00 236.00
C 309.00 231.33 309.00 226.67 309.00 222.00
C 304.27 218.69 294.03 223.48 288.00 222.00 C 281.97 220.52 273.69 222.64 267.00 222.00 C 260.31 221.36 251.95 222.31 245.00 222.00 C 238.05 221.69 231.09 222.16 224.00 222.00 C 216.91 221.84 209.15 222.12 202.00 222.00
C 202.00 215.67 202.00 209.33 202.00 203.00
C 237.67 203.00 273.33 203.00 309.00 203.00
C 309.00 198.33 309.00 193.67 309.00 189.00
C 304.30 185.71 293.93 190.55 288.00 189.00 C 282.07 187.45 273.44 189.83 267.00 189.00 C 260.56 188.17 252.58 189.67 246.00 189.00 C 239.42 188.33 231.43 189.95 225.00 189.00 C 218.57 188.05 209.91 190.87 204.00 189.00 C 198.09 187.13 204.28 174.06 202.00 170.00
C 237.67 170.00 273.33 170.00 309.00 170.00
C 309.00 165.33 309.00 160.67 309.00 156.00
C 304.27 152.69 294.03 157.48 288.00 156.00 C 281.97 154.52 273.69 156.64 267.00 156.00 C 260.31 155.36 251.95 156.31 245.00 156.00 C 238.05 155.69 231.09 156.16 224.00 156.00 C 216.91 155.84 209.15 156.12 202.00 156.00
C 202.00 149.33 202.00 142.67 202.00 136.00
C 237.67 136.00 273.33 136.00 309.00 136.00
C 309.00 131.33 309.00 126.67 309.00 122.00
C 304.27 118.69 294.03 123.48 288.00 122.00 C 281.97 120.52 273.69 122.64 267.00 122.00 C 260.31 121.36 251.95 122.31 245.00 122.00 C 238.05 121.69 231.09 122.16 224.00 122.00 C 216.91 121.84 209.15 122.12 202.00 122.00
C 199.08 109.27 202.77 101.19 215.00 103.00 C 227.23 104.81 235.67 102.25 247.00 103.00 C 258.33 103.75 268.14 102.81 279.00 103.00 C 289.86 103.19 300.14 103.69 310.00 102.00
C 307.79 98.58 309.58 93.18 309.00 89.00
C 304.27 85.69 293.95 90.60 288.00 89.00 C 282.05 87.40 273.47 89.95 267.00 89.00 C 260.53 88.05 251.48 89.97 245.00 89.00 C 238.52 88.03 230.00 90.70 224.00 89.00 C 218.00 87.30 206.85 92.40 202.00 89.00
C 200.47 87.93 198.66 72.08 201.33 69.33 C 204.00 66.58 215.63 68.37 221.00 68.00 C 226.37 67.63 235.72 68.17 242.00 68.00 C 248.28 67.83 256.28 68.08 263.00 68.00 C 269.72 67.92 277.04 68.05 284.00 68.00 C 290.96 67.95 297.81 68.05 305.00 68.00 C 312.19 67.95 318.46 68.08 326.00 68.00 C 333.54 67.92 330.74 77.72 331.00 84.00 C 331.26 90.28 330.89 98.33 331.00 105.00 C 331.11 111.67 330.95 119.15 331.00 126.00 C 331.05 132.85 330.99 140.08 331.00 147.00 C 331.01 153.92 331.01 161.06 331.00 168.00 C 330.99 174.94 331.04 182.07 331.00 189.00 C 330.96 195.93 331.10 203.14 331.00 210.00 C 330.90 216.86 331.22 224.29 331.00 231.00 C 330.78 237.71 331.50 245.63 331.00 252.00 C 330.50 258.37 332.11 267.40 331.00 273.00 C 329.89 278.60 334.42 289.55 328.92 291.92 C 323.41 294.28 314.29 291.03 308.00 292.00 C 301.71 292.97 293.60 291.65 287.00 292.00 C 280.40 292.35 272.64 292.05 266.00 292.00 C 259.36 291.95 251.45 292.47 245.00 292.00 C 238.55 291.53 229.89 293.20 224.00 292.00 C 218.11 290.80 206.93 295.06 203.00 291.00
M 78.00 199.00 
C 78.17 198.59 79.88 198.26 80.00 198.00
C 84.54 175.59 89.64 153.48 94.00 131.00
C 100.53 129.83 107.45 130.17 114.00 129.00
C 119.38 152.89 125.46 176.61 129.00 201.00
C 129.15 200.61 130.91 200.23 131.00 200.00
C 132.66 188.89 134.62 180.32 136.00 169.00 C 137.38 157.67 141.58 151.33 141.93 138.93 C 142.28 126.53 152.67 124.79 165.00 125.00
C 158.28 159.64 148.06 193.40 141.00 228.00
C 133.39 228.75 126.56 226.48 119.00 227.00
C 113.41 203.83 107.59 180.71 104.00 157.00
C 101.09 166.32 98.67 173.66 97.07 184.07 C 95.48 194.48 91.70 201.47 91.00 213.00 C 90.30 224.54 79.18 226.35 68.00 223.00
C 63.00 193.09 55.70 163.76 50.00 134.00
C 56.02 133.83 61.76 132.38 68.00 133.00
C 69.80 155.37 76.33 176.57 78.00 199.00 Z"/>
</g>
<g fill="#11418C" fill-opacity="1.00" stroke="None">
<path d="
M 202.00 89.00 
C 202.00 82.33 202.00 75.67 202.00 69.00
C 244.67 69.00 287.33 69.00 330.00 69.00
C 330.00 142.67 330.00 216.33 330.00 290.00
C 327.09 294.16 315.49 289.81 310.00 291.00 C 304.51 292.19 295.44 290.51 289.00 291.00 C 282.56 291.49 273.80 290.81 267.00 291.00 C 260.20 291.19 252.95 291.03 246.00 291.00 C 239.05 290.97 232.06 291.27 225.00 291.00 C 217.94 290.73 210.09 291.64 203.00 291.00
C 206.93 295.06 218.11 290.80 224.00 292.00 C 229.89 293.20 238.55 291.53 245.00 292.00 C 251.45 292.47 259.36 291.95 266.00 292.00 C 272.64 292.05 280.40 292.35 287.00 292.00 C 293.60 291.65 301.71 292.97 308.00 292.00 C 314.29 291.03 323.41 294.28 328.92 291.92 C 334.42 289.55 329.89 278.60 331.00 273.00 C 332.11 267.40 330.50 258.37 331.00 252.00 C 331.50 245.63 330.78 237.71 331.00 231.00 C 331.22 224.29 330.90 216.86 331.00 210.00 C 331.10 203.14 330.96 195.93 331.00 189.00 C 331.04 182.07 330.99 174.94 331.00 168.00 C 331.01 161.06 331.01 153.92 331.00 147.00 C 330.99 140.08 331.05 132.85 331.00 126.00 C 330.95 119.15 331.11 111.67 331.00 105.00 C 330.89 98.33 331.26 90.28 331.00 84.00 C 330.74 77.72 333.54 67.92 326.00 68.00 C 318.46 68.08 312.19 67.95 305.00 68.00 C 297.81 68.05 290.96 67.95 284.00 68.00 C 277.04 68.05 269.72 67.92 263.00 68.00 C 256.28 68.08 248.28 67.83 242.00 68.00 C 235.72 68.17 226.37 67.63 221.00 68.00 C 215.63 68.37 204.00 66.58 201.33 69.33 C 198.66 72.08 200.47 87.93 202.00 89.00 Z"/>
</g>
<g fill="#FBFCFD" fill-opacity="1.00" stroke="None">
<path d="
M 202.00 89.00 
C 206.85 92.40 218.00 87.30 224.00 89.00 C 230.00 90.70 238.52 88.03 245.00 89.00 C 251.48 89.97 260.53 88.05 267.00 89.00 C 273.47 89.95 282.05 87.40 288.00 89.00 C 293.95 90.60 304.27 85.69 309.00 89.00
C 310.35 89.95 311.11 100.42 310.00 102.00
C 300.14 103.69 289.86 103.19 279.00 103.00 C 268.14 102.81 258.33 103.75 247.00 103.00 C 235.67 102.25 227.23 104.81 215.00 103.00 C 202.77 101.19 199.08 109.27 202.00 122.00
C 209.15 122.12 216.91 121.84 224.00 122.00 C 231.09 122.16 238.05 121.69 245.00 122.00 C 251.95 122.31 260.31 121.36 267.00 122.00 C 273.69 122.64 281.97 120.52 288.00 122.00 C 294.03 123.48 304.27 118.69 309.00 122.00
C 310.91 123.34 310.85 134.70 309.00 136.00
C 273.33 136.00 237.67 136.00 202.00 136.00
C 202.00 142.67 202.00 149.33 202.00 156.00
C 209.15 156.12 216.91 155.84 224.00 156.00 C 231.09 156.16 238.05 155.69 245.00 156.00 C 251.95 156.31 260.31 155.36 267.00 156.00 C 273.69 156.64 281.97 154.52 288.00 156.00 C 294.03 157.48 304.27 152.69 309.00 156.00
C 310.91 157.34 310.85 168.70 309.00 170.00
C 273.33 170.00 237.67 170.00 202.00 170.00
C 204.28 174.06 198.09 187.13 204.00 189.00 C 209.91 190.87 218.57 188.05 225.00 189.00 C 231.43 189.95 239.42 188.33 246.00 189.00 C 252.58 189.67 260.56 188.17 267.00 189.00 C 273.44 189.83 282.07 187.45 288.00 189.00 C 293.93 190.55 304.30 185.71 309.00 189.00
C 310.91 190.34 310.85 201.70 309.00 203.00
C 273.33 203.00 237.67 203.00 202.00 203.00
C 202.00 209.33 202.00 215.67 202.00 222.00
C 209.15 222.12 216.91 221.84 224.00 222.00 C 231.09 222.16 238.05 221.69 245.00 222.00 C 251.95 222.31 260.31 221.36 267.00 222.00 C 273.69 222.64 281.97 220.52 288.00 222.00 C 294.03 223.48 304.27 218.69 309.00 222.00
C 310.91 223.34 310.85 234.70 309.00 236.00
C 273.33 236.00 237.67 236.00 202.00 236.00
C 202.00 242.33 202.00 248.67 202.00 255.00
C 210.72 255.29 220.37 254.61 229.00 255.00 C 237.63 255.39 247.72 254.25 256.00 255.00 C 264.28 255.75 275.54 253.40 283.00 255.00 C 290.46 256.60 304.00 251.00 309.00 256.00
C 310.65 257.65 311.05 267.57 309.00 269.00
C 304.21 272.35 292.94 267.38 287.00 269.00 C 281.06 270.62 272.36 268.20 266.00 269.00 C 259.64 269.80 250.22 268.41 244.00 269.00 C 237.78 269.59 228.37 268.24 223.00 269.00 C 217.63 269.76 205.15 267.02 202.33 270.33 C 199.51 273.64 201.34 287.75 203.00 290.00
C 244.99 286.20 287.92 292.85 330.00 290.00
C 330.00 216.33 330.00 142.67 330.00 69.00
C 287.33 69.00 244.67 69.00 202.00 69.00
C 202.00 75.67 202.00 82.33 202.00 89.00 Z"/>
</g>
<g fill="#7E98C1" fill-opacity="1.00" stroke="None">
<path d="
M 310.00 102.00 
C 311.11 100.42 310.35 89.95 309.00 89.00
C 309.58 93.18 307.79 98.58 310.00 102.00 Z"/>
</g>
<g fill="#7E98C1" fill-opacity="1.00" stroke="None">
<path d="
M 309.00 136.00 
C 310.85 134.70 310.91 123.34 309.00 122.00
C 309.00 126.67 309.00 131.33 309.00 136.00 Z"/>
</g>
<g fill="#FCFCFD" fill-opacity="1.00" stroke="None">
<path d="
M 131.00 200.00 
C 130.76 201.63 131.18 203.36 131.00 205.00
C 128.47 205.63 129.10 202.47 129.00 201.00
C 125.46 176.61 119.38 152.89 114.00 129.00
C 107.45 130.17 100.53 129.83 94.00 131.00
C 89.64 153.48 84.54 175.59 80.00 198.00
C 79.65 199.75 79.53 201.28 79.00 203.00
C 77.40 202.47 78.28 200.25 78.00 199.00
C 76.33 176.57 69.80 155.37 68.00 133.00
C 61.76 132.38 56.02 133.83 50.00 134.00
C 55.70 163.76 63.00 193.09 68.00 223.00
C 79.18 226.35 90.30 224.54 91.00 213.00 C 91.70 201.47 95.48 194.48 97.07 184.07 C 98.67 173.66 101.09 166.32 104.00 157.00
C 107.59 180.71 113.41 203.83 119.00 227.00
C 126.56 226.48 133.39 228.75 141.00 228.00
C 148.06 193.40 158.28 159.64 165.00 125.00
C 152.67 124.79 142.28 126.53 141.93 138.93 C 141.58 151.33 137.38 157.67 136.00 169.00 C 134.62 180.32 132.66 188.89 131.00 200.00 Z"/>
</g>
<g fill="#7E98C1" fill-opacity="1.00" stroke="None">
<path d="
M 309.00 170.00 
C 310.85 168.70 310.91 157.34 309.00 156.00
C 309.00 160.67 309.00 165.33 309.00 170.00 Z"/>
</g>
<g fill="#7E98C1" fill-opacity="1.00" stroke="None">
<path d="
M 309.00 203.00 
C 310.85 201.70 310.91 190.34 309.00 189.00
C 309.00 193.67 309.00 198.33 309.00 203.00 Z"/>
</g>
<g fill="#8BA3C7" fill-opacity="1.00" stroke="None">
<path d="
M 78.00 199.00 
C 78.28 200.25 77.40 202.47 79.00 203.00
C 79.53 201.28 79.65 199.75 80.00 198.00
C 79.88 198.26 78.17 198.59 78.00 199.00 Z"/>
</g>
<g fill="#97ACCC" fill-opacity="1.00" stroke="None">
<path d="
M 129.00 201.00 
C 129.10 202.47 128.47 205.63 131.00 205.00
C 131.18 203.36 130.76 201.63 131.00 200.00
C 130.91 200.23 129.15 200.61 129.00 201.00 Z"/>
</g>
<g fill="#7E98C1" fill-opacity="1.00" stroke="None">
<path d="
M 309.00 236.00 
C 310.85 234.70 310.91 223.34 309.00 222.00
C 309.00 226.67 309.00 231.33 309.00 236.00 Z"/>
</g>
<g fill="#7E98C1" fill-opacity="1.00" stroke="None">
<path d="
M 309.00 269.00 
C 311.05 267.57 310.65 257.65 309.00 256.00
C 311.04 258.91 307.47 265.74 309.00 269.00 Z"/>
</g>
<g fill="#7E98C1" fill-opacity="1.00" stroke="None">
<path d="
M 203.00 291.00 
C 210.09 291.64 217.94 290.73 225.00 291.00 C 232.06 291.27 239.05 290.97 246.00 291.00 C 252.95 291.03 260.20 291.19 267.00 291.00 C 273.80 290.81 282.56 291.49 289.00 291.00 C 295.44 290.51 304.51 292.19 310.00 291.00 C 315.49 289.81 327.09 294.16 330.00 290.00
C 287.92 292.85 244.99 286.20 203.00 290.00
C 203.00 290.00 202.75 290.74 203.00 291.00 Z"/>
</g>
</svg>